SplineFontDB: 3.2
FontName: F35Mono-Bold
FullName: F35 Mono Bold
FamilyName: F35 Mono
Weight: Bold
Copyright: Copyright 2012 The B612 Project Authors (https://github.com/polarsys/b612)
Version: 2024.3
ItalicAngle: 0
UnderlinePosition: -307
UnderlineWidth: 102
Ascent: 1638
Descent: 410
InvalidEm: 0
sfntRevision: 0x07e84ccd
LayerCount: 2
Layer: 0 1 "Back" 1
Layer: 1 1 "Fore" 0
XUID: [1021 443 1183686117 2047371]
StyleMap: 0x0020
FSType: 0
OS2Version: 3
OS2_WeightWidthSlopeOnly: 0
OS2_UseTypoMetrics: 0
CreationTime: 1511795400
ModificationTime: 1711165232
PfmFamily: 17
TTFWeight: 700
TTFWidth: 5
LineGap: 0
VLineGap: 0
Panose: 2 11 6 9 5 0 0 2 0 4
OS2TypoAscent: 1976
OS2TypoAOffset: 0
OS2TypoDescent: -512
OS2TypoDOffset: 0
OS2TypoLinegap: 0
OS2WinAscent: 2013
OS2WinAOffset: 0
OS2WinDescent: 729
OS2WinDOffset: 0
HheadAscent: 1976
HheadAOffset: 0
HheadDescent: -512
HheadDOffset: 0
OS2SubXSize: 1331
OS2SubYSize: 1433
OS2SubXOff: 0
OS2SubYOff: 286
OS2SupXSize: 1331
OS2SupYSize: 1433
OS2SupXOff: 0
OS2SupYOff: 983
OS2StrikeYSize: 102
OS2StrikeYPos: 512
OS2CapHeight: 1536
OS2XHeight: 1126
OS2FamilyClass: 2053
OS2Vendor: '    '
OS2CodePages: 20000011.81d40000
OS2UnicodeRanges: 800000af.5000e0fb.00000000.00000000
MarkAttachClasses: 1
DEI: 91125
TtTable: prep
PUSHW_1
 511
SCANCTRL
PUSHB_1
 4
SCANTYPE
EndTTInstrs
TtTable: fpgm
PUSHW_1
 0
FDEF
MPPEM
PUSHW_1
 9
LT
IF
PUSHB_2
 1
 1
INSTCTRL
EIF
PUSHW_1
 511
SCANCTRL
PUSHW_1
 68
SCVTCI
PUSHW_2
 9
 3
SDS
SDB
ENDF
PUSHW_1
 1
FDEF
DUP
DUP
RCVT
ROUND[Black]
WCVTP
PUSHB_1
 1
ADD
ENDF
PUSHW_1
 2
FDEF
PUSHW_1
 1
LOOPCALL
POP
ENDF
PUSHW_1
 3
FDEF
DUP
GC[cur]
PUSHB_1
 3
CINDEX
GC[cur]
GT
IF
SWAP
EIF
DUP
ROLL
DUP
ROLL
MD[grid]
ABS
ROLL
DUP
GC[cur]
DUP
ROUND[Grey]
SUB
ABS
PUSHB_1
 4
CINDEX
GC[cur]
DUP
ROUND[Grey]
SUB
ABS
GT
IF
SWAP
NEG
ROLL
EIF
MDAP[rnd]
DUP
PUSHB_1
 0
GTEQ
IF
ROUND[Black]
DUP
PUSHB_1
 0
EQ
IF
POP
PUSHB_1
 64
EIF
ELSE
ROUND[Black]
DUP
PUSHB_1
 0
EQ
IF
POP
PUSHB_1
 64
NEG
EIF
EIF
MSIRP[no-rp0]
ENDF
PUSHW_1
 4
FDEF
DUP
GC[cur]

StartChar: .notdef
Encoding: 65536 -1 0
Width: 1331
GlyphClass: 1
Flags: W
LayerCount: 2
Fore
SplineSet
102 1536 m 1,0,-1
 1229 1536 l 1,1,-1
 1229 0 l 1,2,-1
 102 0 l 1,3,-1
 102 1536 l 1,0,-1
307 205 m 1,4,-1
 1024 205 l 1,5,-1
 1024 1331 l 1,6,-1
 307 1331 l 1,7,-1
 307 205 l 1,4,-1
EndSplineSet
EndChar

StartChar: exclam
Encoding: 33 33 5
Width: 1331
GlyphClass: 1
Flags: W
LayerCount: 2
Fore
SplineSet
820.5 1536 m 1,0,-1
 820.5 455 l 1,1,-1
 512.5 419 l 1,2,-1
 512.5 1536 l 1,3,-1
 820.5 1536 l 1,0,-1
498.5 153 m 0,4,5
 498.5 188 498.5 188 512 218 c 128,-1,6
 525.5 248 525.5 248 548 271 c 128,-1,7
 570.5 294 570.5 294 600.5 307.5 c 128,-1,8
 630.5 321 630.5 321 665.5 321 c 256,9,10
 700.5 321 700.5 321 730.5 307.5 c 128,-1,11
 760.5 294 760.5 294 783 271 c 128,-1,12
 805.5 248 805.5 248 819 217.5 c 128,-1,13
 832.5 187 832.5 187 832.5 153 c 0,14,15
 832.5 119 832.5 119 819.5 87.5 c 128,-1,16
 806.5 56 806.5 56 784 33 c 128,-1,17
 761.5 10 761.5 10 731.5 -3.5 c 128,-1,18
 701.5 -17 701.5 -17 666.5 -17 c 256,19,20
 631.5 -17 631.5 -17 601 -3.5 c 128,-1,21
 570.5 10 570.5 10 548 33 c 128,-1,22
 525.5 56 525.5 56 512 87.5 c 128,-1,23
 498.5 119 498.5 119 498.5 153 c 0,4,5
EndSplineSet
EndChar

StartChar: quotedbl
Encoding: 34 34 6
Width: 1331
GlyphClass: 1
Flags: W
LayerCount: 2
Fore
SplineSet
945 1536 m 1,0,-1
 945 1400 l 2,1,2
 945 1382 945 1382 944.5 1356.5 c 128,-1,3
 944 1331 944 1331 943 1303.5 c 128,-1,4
 942 1276 942 1276 939.5 1248 c 128,-1,5
 937 1220 937 1220 934 1196 c 2,6,-1
 911 1037 l 1,7,-1
 727 1037 l 1,8,-1
 703 1196 l 2,9,10
 700 1220 700 1220 698 1248 c 128,-1,11
 696 1276 696 1276 695 1303.5 c 128,-1,12
 694 1331 694 1331 693.5 1356 c 128,-1,13
 693 1381 693 1381 693 1400 c 2,14,-1
 693 1536 l 1,15,-1
 945 1536 l 1,0,-1
637 1536 m 1,16,-1
 637 1400 l 2,17,18
 637 1382 637 1382 636.5 1356.5 c 128,-1,19
 636 1331 636 1331 635 1303.5 c 128,-1,20
 634 1276 634 1276 632 1248 c 128,-1,21
 630 1220 630 1220 627 1196 c 2,22,-1
 604 1037 l 1,23,-1
 419 1037 l 1,24,-1
 396 1196 l 2,25,26
 393 1220 393 1220 391 1248 c 128,-1,27
 389 1276 389 1276 388 1303.5 c 128,-1,28
 387 1331 387 1331 386.5 1356 c 128,-1,29
 386 1381 386 1381 386 1400 c 2,30,-1
 386 1536 l 1,31,-1
 637 1536 l 1,16,-1
EndSplineSet
EndChar

StartChar: numbersign
Encoding: 35 35 7
Width: 1331
GlyphClass: 1
Flags: W
LayerCount: 2
Fore
SplineSet
1074 906 m 1,0,-1
 1064 828 l 2,1,2
 1060 791 1060 791 1055 755.5 c 128,-1,3
 1050 720 1050 720 1045 682 c 128,-1,4
 1040 644 1040 644 1035 601 c 1,5,-1
 1294 601 l 1,6,-1
 1267 382 l 1,7,-1
 1011 382 l 1,8,9
 1006 337 1006 337 999.5 288 c 128,-1,10
 993 239 993 239 986.5 189 c 128,-1,11
 980 139 980 139 974 91 c 128,-1,12
 968 43 968 43 963 0 c 1,13,-1
 649 -17 l 1,14,-1
 700 382 l 1,15,-1
 530 382 l 1,16,17
 525 337 525 337 518.5 288 c 128,-1,18
 512 239 512 239 505.5 189 c 128,-1,19
 499 139 499 139 492 91 c 128,-1,20
 485 43 485 43 480 0 c 1,21,-1
 168 -17 l 1,22,-1
 222 382 l 1,23,-1
 41 382 l 1,24,-1
 41 601 l 1,25,-1
 248 601 l 1,26,-1
 286 906 l 1,27,-1
 37 906 l 1,28,-1
 65 1126 l 1,29,-1
 312 1126 l 1,30,31
 317 1162 317 1162 321 1195.5 c 128,-1,32
 325 1229 325 1229 330 1265 c 1,33,-1
 330 1536 l 1,34,-1
 675 1556 l 1,35,-1
 621 1126 l 1,36,-1
 792 1126 l 1,37,38
 797 1171 797 1171 803.5 1224.5 c 128,-1,39
 810 1278 810 1278 817.5 1333 c 128,-1,40
 825 1388 825 1388 832 1440.5 c 128,-1,41
 839 1493 839 1493 844 1536 c 1,42,-1
 1159 1556 l 1,43,-1
 1101 1126 l 1,44,-1
 1291 1126 l 1,45,-1
 1291 906 l 1,46,-1
 1074 906 l 1,0,-1
764 906 m 1,47,-1
 596 906 l 1,48,-1
 586 828 l 2,49,50
 582 791 582 791 577 755.5 c 128,-1,51
 572 720 572 720 567.5 682 c 128,-1,52
 563 644 563 644 558 601 c 1,53,-1
 726 601 l 1,54,-1
 764 906 l 1,47,-1
EndSplineSet
EndChar

StartChar: dollar
Encoding: 36 36 8
Width: 1331
GlyphClass: 1
Flags: W
LayerCount: 2
Fore
SplineSet
531.5 -14 m 1,0,1
 422.5 -6 422.5 -6 329 28 c 128,-1,2
 235.5 62 235.5 62 139.5 124 c 1,3,-1
 280.5 356 l 1,4,5
 303.5 341 303.5 341 332.5 323.5 c 128,-1,6
 361.5 306 361.5 306 394.5 289.5 c 128,-1,7
 427.5 273 427.5 273 462.5 259.5 c 128,-1,8
 497.5 246 497.5 246 531.5 239 c 1,9,-1
 531.5 729 l 1,10,11
 460.5 763 460.5 763 392.5 800 c 128,-1,12
 324.5 837 324.5 837 271.5 883 c 128,-1,13
 218.5 929 218.5 929 185.5 988 c 128,-1,14
 152.5 1047 152.5 1047 152.5 1123 c 0,15,16
 152.5 1207 152.5 1207 183 1275 c 128,-1,17
 213.5 1343 213.5 1343 265 1395.5 c 128,-1,18
 316.5 1448 316.5 1448 385.5 1483.5 c 128,-1,19
 454.5 1519 454.5 1519 531.5 1536 c 1,20,-1
 531.5 1721 l 1,21,-1
 838.5 1760 l 1,22,-1
 838.5 1535 l 1,23,24
 915.5 1518 915.5 1518 988 1485 c 128,-1,25
 1060.5 1452 1060.5 1452 1135.5 1402 c 1,26,-1
 982.5 1206 l 1,27,28
 939.5 1231 939.5 1231 904 1249.5 c 128,-1,29
 868.5 1268 868.5 1268 838.5 1282 c 1,30,-1
 838.5 887 l 1,31,32
 905.5 855 905.5 855 969 816 c 128,-1,33
 1032.5 777 1032.5 777 1082 726.5 c 128,-1,34
 1131.5 676 1131.5 676 1161.5 610.5 c 128,-1,35
 1191.5 545 1191.5 545 1191.5 459 c 0,36,37
 1191.5 372 1191.5 372 1163.5 300.5 c 128,-1,38
 1135.5 229 1135.5 229 1086.5 174 c 128,-1,39
 1037.5 119 1037.5 119 971.5 79.5 c 128,-1,40
 905.5 40 905.5 40 828.5 16 c 1,41,-1
 828.5 -195 l 1,42,-1
 531.5 -195 l 1,43,-1
 531.5 -14 l 1,0,1
899.5 440 m 0,44,45
 899.5 495 899.5 495 865.5 536.5 c 128,-1,46
 831.5 578 831.5 578 779.5 610 c 1,47,-1
 779.5 255 l 1,48,49
 804.5 264 804.5 264 826 279 c 128,-1,50
 847.5 294 847.5 294 864 316 c 128,-1,51
 880.5 338 880.5 338 890 368.5 c 128,-1,52
 899.5 399 899.5 399 899.5 440 c 0,44,45
465.5 1152 m 0,53,54
 465.5 1122 465.5 1122 475.5 1098.5 c 128,-1,55
 485.5 1075 485.5 1075 502.5 1056 c 128,-1,56
 519.5 1037 519.5 1037 542 1022.5 c 128,-1,57
 564.5 1008 564.5 1008 590.5 995 c 1,58,-1
 590.5 1298 l 1,59,60
 564.5 1290 564.5 1290 542.5 1278.5 c 128,-1,61
 520.5 1267 520.5 1267 503.5 1249 c 128,-1,62
 486.5 1231 486.5 1231 476 1207.5 c 128,-1,63
 465.5 1184 465.5 1184 465.5 1152 c 0,53,54
EndSplineSet
EndChar

StartChar: percent
Encoding: 37 37 9
Width: 1331
GlyphClass: 1
Flags: W
LayerCount: 2
Fore
SplineSet
388.5 764 m 0,0,1
 300.5 764 300.5 764 239 793 c 128,-1,2
 177.5 822 177.5 822 138.5 873.5 c 128,-1,3
 99.5 925 99.5 925 82 995.5 c 128,-1,4
 64.5 1066 64.5 1066 64.5 1148 c 0,5,6
 64.5 1229 64.5 1229 81 1298 c 128,-1,7
 97.5 1367 97.5 1367 135.5 1417 c 128,-1,8
 173.5 1467 173.5 1467 235.5 1496 c 128,-1,9
 297.5 1525 297.5 1525 388.5 1525 c 0,10,11
 475.5 1525 475.5 1525 537 1496 c 128,-1,12
 598.5 1467 598.5 1467 637 1417 c 128,-1,13
 675.5 1367 675.5 1367 692.5 1297 c 0,14,15
 704.5 1249 704.5 1249 708.5 1196 c 1,16,-1
 850.5 1508 l 1,17,-1
 1161.5 1508 l 1,18,-1
 807.5 723 l 1,19,20
 864.5 745 864.5 745 944.5 744 c 0,21,22
 1031.5 744 1031.5 744 1093 716 c 128,-1,23
 1154.5 688 1154.5 688 1193.5 637.5 c 128,-1,24
 1232.5 587 1232.5 587 1249.5 518 c 128,-1,25
 1266.5 449 1266.5 449 1266.5 368 c 0,26,27
 1266.5 286 1266.5 286 1250.5 215 c 128,-1,28
 1234.5 144 1234.5 144 1196.5 93 c 128,-1,29
 1158.5 42 1158.5 42 1096.5 13 c 128,-1,30
 1034.5 -16 1034.5 -16 944.5 -16 c 0,31,32
 856.5 -16 856.5 -16 795 13 c 128,-1,33
 733.5 42 733.5 42 695 93 c 128,-1,34
 656.5 144 656.5 144 638.5 215 c 0,35,36
 627.5 261 627.5 261 622.5 313 c 1,37,-1
 481.5 0 l 1,38,-1
 170.5 0 l 1,39,-1
 524.5 786 l 1,40,41
 467.5 764 467.5 764 388.5 764 c 0,0,1
442.5 1193 m 2,42,43
 442.5 1219 442.5 1219 441 1242.5 c 128,-1,44
 439.5 1266 439.5 1266 434 1283 c 128,-1,45
 428.5 1300 428.5 1300 416.5 1311 c 128,-1,46
 404.5 1322 404.5 1322 385.5 1322 c 0,47,48
 368.5 1322 368.5 1322 358 1313 c 128,-1,49
 347.5 1304 347.5 1304 343 1288 c 128,-1,50
 338.5 1272 338.5 1272 337.5 1251 c 128,-1,51
 336.5 1230 336.5 1230 336.5 1206 c 2,52,-1
 336.5 1110 l 2,53,54
 336.5 1083 336.5 1083 338 1059.5 c 128,-1,55
 339.5 1036 339.5 1036 345 1018 c 128,-1,56
 350.5 1000 350.5 1000 362 989.5 c 128,-1,57
 373.5 979 373.5 979 393.5 979 c 0,58,59
 409.5 979 409.5 979 420 988 c 128,-1,60
 430.5 997 430.5 997 435 1013 c 128,-1,61
 439.5 1029 439.5 1029 441 1049.5 c 128,-1,62
 442.5 1070 442.5 1070 442.5 1094 c 2,63,-1
 442.5 1193 l 2,42,43
998.5 414 m 2,64,65
 998.5 440 998.5 440 997 462.5 c 128,-1,66
 995.5 485 995.5 485 990 503 c 128,-1,67
 984.5 521 984.5 521 972.5 531.5 c 128,-1,68
 960.5 542 960.5 542 941.5 542 c 0,69,70
 924.5 542 924.5 542 914.5 532.5 c 128,-1,71
 904.5 523 904.5 523 900 507.5 c 128,-1,72
 895.5 492 895.5 492 894 471 c 128,-1,73
 892.5 450 892.5 450 892.5 427 c 2,74,-1
 892.5 331 l 2,75,76
 892.5 304 892.5 304 894 280 c 128,-1,77
 895.5 256 895.5 256 901.5 238 c 128,-1,78
 907.5 220 907.5 220 919.5 209.5 c 128,-1,79
 931.5 199 931.5 199 951.5 199 c 0,80,81
 967.5 199 967.5 199 977 208 c 128,-1,82
 986.5 217 986.5 217 991 233 c 128,-1,83
 995.5 249 995.5 249 997 269.5 c 128,-1,84
 998.5 290 998.5 290 998.5 313 c 2,85,-1
 998.5 414 l 2,64,65
EndSplineSet
EndChar

StartChar: ampersand
Encoding: 38 38 10
Width: 1331
GlyphClass: 1
Flags: W
LayerCount: 2
Fore
SplineSet
1238 758 m 1,0,1
 1238 658 1238 658 1221.5 573 c 128,-1,2
 1205 488 1205 488 1177.5 419 c 128,-1,3
 1150 350 1150 350 1112.5 296.5 c 128,-1,4
 1075 243 1075 243 1033 205 c 1,5,-1
 1112 205 l 1,6,-1
 1280 -17 l 1,7,-1
 892 -17 l 1,8,-1
 814 102 l 1,9,-1
 777 11 l 1,10,11
 753 5 753 5 729 0 c 128,-1,12
 705 -5 705 -5 679 -9 c 128,-1,13
 653 -13 653 -13 623 -15 c 128,-1,14
 593 -17 593 -17 556 -17 c 0,15,16
 440 -17 440 -17 347 22 c 128,-1,17
 254 61 254 61 188 127.5 c 128,-1,18
 122 194 122 194 86.5 281.5 c 128,-1,19
 51 369 51 369 51 465 c 0,20,21
 51 545 51 545 73.5 611.5 c 128,-1,22
 96 678 96 678 132 730.5 c 128,-1,23
 168 783 168 783 212.5 822.5 c 128,-1,24
 257 862 257 862 301 888 c 1,25,26
 284 918 284 918 266.5 952.5 c 128,-1,27
 249 987 249 987 235 1023.5 c 128,-1,28
 221 1060 221 1060 212.5 1095 c 128,-1,29
 204 1130 204 1130 204 1161 c 0,30,31
 204 1237 204 1237 227 1305 c 128,-1,32
 250 1373 250 1373 300 1424.5 c 128,-1,33
 350 1476 350 1476 429.5 1506 c 128,-1,34
 509 1536 509 1536 621 1536 c 0,35,36
 700 1536 700 1536 760 1518 c 128,-1,37
 820 1500 820 1500 867 1470 c 128,-1,38
 914 1440 914 1440 951.5 1400.5 c 128,-1,39
 989 1361 989 1361 1024 1317 c 1,40,-1
 879 1126 l 1,41,42
 850 1164 850 1164 825 1193 c 128,-1,43
 800 1222 800 1222 772.5 1241.5 c 128,-1,44
 745 1261 745 1261 714 1270.5 c 128,-1,45
 683 1280 683 1280 644 1280 c 0,46,47
 607 1280 607 1280 584.5 1268 c 128,-1,48
 562 1256 562 1256 549 1239 c 128,-1,49
 536 1222 536 1222 531.5 1201 c 128,-1,50
 527 1180 527 1180 527 1160 c 0,51,52
 527 1148 527 1148 528.5 1135 c 128,-1,53
 530 1122 530 1122 534 1110 c 0,54,55
 539 1090 539 1090 553 1062 c 128,-1,56
 567 1034 567 1034 594 988.5 c 128,-1,57
 621 943 621 943 663.5 874.5 c 128,-1,58
 706 806 706 806 769 705 c 0,59,60
 788 673 788 673 800.5 653 c 128,-1,61
 813 633 813 633 826 612.5 c 128,-1,62
 839 592 839 592 856 565 c 128,-1,63
 873 538 873 538 902 492 c 1,64,65
 916 510 916 510 924 540 c 0,66,67
 931 568 931 568 931 636 c 2,68,-1
 931 737 l 1,69,-1
 1238 758 l 1,0,1
419 711 m 1,70,-1
 419 610 l 1,71,72
 384 556 384 556 384 474 c 0,73,74
 384 415 384 415 402 371 c 128,-1,75
 420 327 420 327 448 297.5 c 128,-1,76
 476 268 476 268 511 253.5 c 128,-1,77
 546 239 546 239 579 239 c 0,78,79
 622 239 622 239 649.5 249.5 c 128,-1,80
 677 260 677 260 697 275 c 1,81,-1
 419 711 l 1,70,-1
EndSplineSet
EndChar

StartChar: quotesingle
Encoding: 39 39 11
Width: 1331
GlyphClass: 1
Flags: W
LayerCount: 2
Fore
SplineSet
533 1536 m 1,0,-1
 809 1536 l 1,1,-1
 809 1400 l 2,2,3
 809 1363 809 1363 802 1329.5 c 128,-1,4
 795 1296 795 1296 778 1261 c 128,-1,5
 761 1226 761 1226 733.5 1185.5 c 128,-1,6
 706 1145 706 1145 665 1094 c 1,7,-1
 522 1094 l 1,8,9
 524 1177 524 1177 528.5 1254.5 c 128,-1,10
 533 1332 533 1332 533 1400 c 2,11,-1
 533 1536 l 1,0,-1
EndSplineSet
EndChar

StartChar: parenleft
Encoding: 40 40 12
Width: 1331
GlyphClass: 1
Flags: W
LayerCount: 2
Fore
SplineSet
383 1186 m 2,0,1
 383 1281 383 1281 393.5 1363.5 c 128,-1,2
 404 1446 404 1446 440 1507.5 c 128,-1,3
 476 1569 476 1569 545.5 1603.5 c 128,-1,4
 615 1638 615 1638 731 1638 c 0,5,6
 757 1638 757 1638 786 1634.5 c 128,-1,7
 815 1631 815 1631 844.5 1624 c 128,-1,8
 874 1617 874 1617 900.5 1606 c 128,-1,9
 927 1595 927 1595 948 1582 c 1,10,-1
 856 1465 l 1,11,12
 838 1465 838 1465 813 1460 c 128,-1,13
 788 1455 788 1455 765.5 1434 c 128,-1,14
 743 1413 743 1413 727.5 1371 c 128,-1,15
 712 1329 712 1329 712 1256 c 2,16,-1
 712 -47 l 2,17,18
 712 -123 712 -123 728 -164 c 128,-1,19
 744 -205 744 -205 765.5 -224.5 c 128,-1,20
 787 -244 787 -244 810 -247.5 c 128,-1,21
 833 -251 833 -251 848 -251 c 1,22,-1
 948 -374 l 1,23,24
 926 -387 926 -387 900 -398 c 128,-1,25
 874 -409 874 -409 844.5 -416 c 128,-1,26
 815 -423 815 -423 786 -426.5 c 128,-1,27
 757 -430 757 -430 731 -430 c 0,28,29
 614 -430 614 -430 545 -392.5 c 128,-1,30
 476 -355 476 -355 440 -290.5 c 128,-1,31
 404 -226 404 -226 393.5 -141 c 128,-1,32
 383 -56 383 -56 383 39 c 2,33,-1
 383 1186 l 2,0,1
EndSplineSet
EndChar

StartChar: parenright
Encoding: 41 41 13
Width: 1331
GlyphClass: 1
Flags: W
LayerCount: 2
Fore
SplineSet
948 39 m 2,0,1
 948 -56 948 -56 938 -141 c 128,-1,2
 928 -226 928 -226 891.5 -290.5 c 128,-1,3
 855 -355 855 -355 786 -392.5 c 128,-1,4
 717 -430 717 -430 600 -430 c 0,5,6
 573 -430 573 -430 544.5 -426.5 c 128,-1,7
 516 -423 516 -423 487 -416 c 128,-1,8
 458 -409 458 -409 431.5 -398 c 128,-1,9
 405 -387 405 -387 383 -374 c 1,10,-1
 484 -251 l 1,11,12
 499 -251 499 -251 522 -247.5 c 128,-1,13
 545 -244 545 -244 566.5 -224.5 c 128,-1,14
 588 -205 588 -205 604 -164 c 128,-1,15
 620 -123 620 -123 620 -47 c 2,16,-1
 620 1256 l 2,17,18
 620 1329 620 1329 604.5 1371 c 128,-1,19
 589 1413 589 1413 566.5 1434 c 128,-1,20
 544 1455 544 1455 519 1460 c 128,-1,21
 494 1465 494 1465 475 1465 c 1,22,-1
 383 1582 l 1,23,24
 405 1595 405 1595 431.5 1606 c 128,-1,25
 458 1617 458 1617 487 1624 c 128,-1,26
 516 1631 516 1631 545 1634.5 c 128,-1,27
 574 1638 574 1638 600 1638 c 0,28,29
 717 1638 717 1638 786 1603.5 c 128,-1,30
 855 1569 855 1569 891.5 1507.5 c 128,-1,31
 928 1446 928 1446 938 1363.5 c 128,-1,32
 948 1281 948 1281 948 1186 c 2,33,-1
 948 39 l 2,0,1
EndSplineSet
EndChar

StartChar: asterisk
Encoding: 42 42 14
Width: 1331
GlyphClass: 1
Flags: W
LayerCount: 2
Fore
SplineSet
913 948 m 1,0,-1
 1007 824 l 1,1,-1
 835 670 l 1,2,-1
 721 819 l 1,3,-1
 664 1014 l 1,4,-1
 613 819 l 1,5,-1
 510 672 l 1,6,-1
 306 800 l 1,7,-1
 431 973 l 1,8,-1
 596 1066 l 1,9,-1
 381 1066 l 1,10,-1
 226 1116 l 1,11,-1
 271 1340 l 1,12,-1
 460 1289 l 1,13,-1
 623 1147 l 1,14,-1
 555 1347 l 1,15,-1
 555 1481 l 1,16,-1
 789 1505 l 1,17,-1
 789 1340 l 1,18,-1
 710 1144 l 1,19,-1
 861 1277 l 1,20,-1
 1008 1325 l 1,21,-1
 1105 1109 l 1,22,-1
 963 1062 l 1,23,-1
 735 1062 l 1,24,-1
 913 948 l 1,0,-1
EndSplineSet
EndChar

StartChar: plus
Encoding: 43 43 15
Width: 1331
GlyphClass: 1
Flags: W
LayerCount: 2
Fore
SplineSet
184 717 m 1,0,-1
 553 717 l 1,1,-1
 553 1144 l 1,2,-1
 778 1144 l 1,3,-1
 778 717 l 1,4,-1
 1147 717 l 1,5,-1
 1147 512 l 1,6,-1
 778 512 l 1,7,-1
 778 102 l 1,8,-1
 553 102 l 1,9,-1
 553 512 l 1,10,-1
 184 512 l 1,11,-1
 184 717 l 1,0,-1
EndSplineSet
EndChar

StartChar: comma
Encoding: 44 44 16
Width: 1331
GlyphClass: 1
Flags: W
LayerCount: 2
Fore
SplineSet
483.5 160 m 0,0,1
 483.5 196 483.5 196 498 228 c 128,-1,2
 512.5 260 512.5 260 537.5 284 c 128,-1,3
 562.5 308 562.5 308 595.5 322.5 c 128,-1,4
 628.5 337 628.5 337 665.5 337 c 0,5,6
 700.5 337 700.5 337 733.5 324 c 128,-1,7
 766.5 311 766.5 311 792 286 c 128,-1,8
 817.5 261 817.5 261 832.5 224 c 128,-1,9
 847.5 187 847.5 187 847.5 139 c 0,10,11
 847.5 74 847.5 74 839.5 12.5 c 128,-1,12
 831.5 -49 831.5 -49 806.5 -111 c 128,-1,13
 781.5 -173 781.5 -173 735 -238 c 128,-1,14
 688.5 -303 688.5 -303 611.5 -374 c 1,15,-1
 547.5 -345 l 1,16,17
 561.5 -318 561.5 -318 574 -290 c 128,-1,18
 586.5 -262 586.5 -262 598.5 -233 c 0,19,20
 616.5 -184 616.5 -184 632 -128.5 c 128,-1,21
 647.5 -73 647.5 -73 647.5 -17 c 1,22,23
 616.5 -16 616.5 -16 587 -4.5 c 128,-1,24
 557.5 7 557.5 7 534.5 29.5 c 128,-1,25
 511.5 52 511.5 52 497.5 84.5 c 128,-1,26
 483.5 117 483.5 117 483.5 160 c 0,0,1
EndSplineSet
EndChar

StartChar: hyphen
Encoding: 45 45 17
Width: 1331
GlyphClass: 1
Flags: W
LayerCount: 2
Fore
SplineSet
344.5 639 m 1,0,-1
 986.5 639 l 1,1,-1
 986.5 410 l 1,2,-1
 344.5 410 l 1,3,-1
 344.5 639 l 1,0,-1
EndSplineSet
EndChar

StartChar: period
Encoding: 46 46 18
Width: 1331
GlyphClass: 1
Flags: W
LayerCount: 2
Fore
SplineSet
463 187 m 256,0,1
 463 229 463 229 479 266 c 128,-1,2
 495 303 495 303 523 330.5 c 128,-1,3
 551 358 551 358 587 374 c 128,-1,4
 623 390 623 390 665 390 c 256,5,6
 707 390 707 390 744 374 c 128,-1,7
 781 358 781 358 808.5 330.5 c 128,-1,8
 836 303 836 303 852 266 c 128,-1,9
 868 229 868 229 868 187 c 256,10,11
 868 145 868 145 852 108 c 128,-1,12
 836 71 836 71 809 43 c 128,-1,13
 782 15 782 15 745 -1 c 128,-1,14
 708 -17 708 -17 667 -17 c 0,15,16
 625 -17 625 -17 588 -1 c 128,-1,17
 551 15 551 15 523 43 c 128,-1,18
 495 71 495 71 479 108 c 128,-1,19
 463 145 463 145 463 187 c 256,0,1
EndSplineSet
EndChar

StartChar: slash
Encoding: 47 47 19
Width: 1331
GlyphClass: 1
Flags: W
LayerCount: 2
Fore
SplineSet
487.5 -102 m 1,0,-1
 126.5 -102 l 1,1,-1
 852.5 1638 l 1,2,-1
 1204.5 1638 l 1,3,-1
 487.5 -102 l 1,0,-1
EndSplineSet
EndChar

StartChar: zero
Encoding: 48 48 20
Width: 1331
GlyphClass: 1
Flags: W
LayerCount: 2
Fore
SplineSet
665 -16 m 0,0,1
 570 -16 570 -16 490 17 c 128,-1,2
 410 50 410 50 346.5 107.5 c 128,-1,3
 283 165 283 165 235 241.5 c 128,-1,4
 187 318 187 318 155 405.5 c 128,-1,5
 123 493 123 493 107.5 586 c 128,-1,6
 92 679 92 679 92 768 c 0,7,8
 92 860 92 860 105 954 c 128,-1,9
 118 1048 118 1048 147.5 1135.5 c 128,-1,10
 177 1223 177 1223 222.5 1298.5 c 128,-1,11
 268 1374 268 1374 331.5 1431 c 128,-1,12
 395 1488 395 1488 478 1520 c 128,-1,13
 561 1552 561 1552 665 1552 c 0,14,15
 760 1552 760 1552 840 1519 c 128,-1,16
 920 1486 920 1486 983.5 1428.5 c 128,-1,17
 1047 1371 1047 1371 1095 1294.5 c 128,-1,18
 1143 1218 1143 1218 1175 1130.5 c 128,-1,19
 1207 1043 1207 1043 1223 950 c 128,-1,20
 1239 857 1239 857 1239 768 c 0,21,22
 1239 676 1239 676 1225 582 c 128,-1,23
 1211 488 1211 488 1182.5 400.5 c 128,-1,24
 1154 313 1154 313 1108 237.5 c 128,-1,25
 1062 162 1062 162 998 105 c 128,-1,26
 934 48 934 48 851 16 c 128,-1,27
 768 -16 768 -16 665 -16 c 0,0,1
428 810 m 0,28,29
 428 773 428 773 430 730.5 c 128,-1,30
 432 688 432 688 437 643 c 1,31,-1
 414 336 l 1,32,-1
 786 1233 l 1,33,34
 760 1266 760 1266 728.5 1285 c 128,-1,35
 697 1304 697 1304 657 1304 c 0,36,37
 614 1304 614 1304 580 1283 c 128,-1,38
 546 1262 546 1262 520.5 1225.5 c 128,-1,39
 495 1189 495 1189 477 1140.5 c 128,-1,40
 459 1092 459 1092 448.5 1037 c 128,-1,41
 438 982 438 982 433 923.5 c 128,-1,42
 428 865 428 865 428 810 c 0,28,29
923 1138 m 1,43,-1
 571 272 l 1,44,45
 591 253 591 253 617 242 c 128,-1,46
 643 231 643 231 672 231 c 0,47,48
 715 231 715 231 749 252 c 128,-1,49
 783 273 783 273 808.5 309.5 c 128,-1,50
 834 346 834 346 852 394.5 c 128,-1,51
 870 443 870 443 881 498.5 c 128,-1,52
 892 554 892 554 897.5 612 c 128,-1,53
 903 670 903 670 903 726 c 0,54,55
 903 770 903 770 900 819 c 1,56,-1
 923 1138 l 1,43,-1
EndSplineSet
EndChar

StartChar: one
Encoding: 49 49 21
Width: 1331
GlyphClass: 1
Flags: W
LayerCount: 2
Fore
SplineSet
572 901 m 1,0,-1
 648 1273 l 1,1,-1
 415 995 l 1,2,-1
 329 920 l 1,3,-1
 171 1109 l 1,4,-1
 662 1556 l 1,5,-1
 911 1536 l 1,6,-1
 911 205 l 1,7,-1
 1160 205 l 1,8,-1
 1160 0 l 1,9,-1
 323 0 l 1,10,-1
 323 205 l 1,11,-1
 572 205 l 1,12,-1
 572 901 l 1,0,-1
EndSplineSet
EndChar

StartChar: two
Encoding: 50 50 22
Width: 1331
GlyphClass: 1
Flags: W
LayerCount: 2
Fore
SplineSet
148.5 0 m 1,0,-1
 148.5 195 l 1,1,2
 196.5 271 196.5 271 259.5 354 c 128,-1,3
 322.5 437 322.5 437 389 517.5 c 128,-1,4
 455.5 598 455.5 598 519 669.5 c 128,-1,5
 582.5 741 582.5 741 630.5 794 c 0,6,7
 685.5 853 685.5 853 724.5 894 c 128,-1,8
 763.5 935 763.5 935 787 970 c 128,-1,9
 810.5 1005 810.5 1005 821.5 1040 c 128,-1,10
 832.5 1075 832.5 1075 832.5 1123 c 0,11,12
 832.5 1161 832.5 1161 819.5 1198.5 c 128,-1,13
 806.5 1236 806.5 1236 783 1265.5 c 128,-1,14
 759.5 1295 759.5 1295 725.5 1313 c 128,-1,15
 691.5 1331 691.5 1331 650.5 1331 c 0,16,17
 566.5 1331 566.5 1331 503.5 1275 c 128,-1,18
 440.5 1219 440.5 1219 390.5 1122 c 1,19,-1
 152.5 1211 l 1,20,21
 182.5 1289 182.5 1289 229 1352.5 c 128,-1,22
 275.5 1416 275.5 1416 340 1460.5 c 128,-1,23
 404.5 1505 404.5 1505 486 1529 c 128,-1,24
 567.5 1553 567.5 1553 666.5 1553 c 0,25,26
 783.5 1553 783.5 1553 874.5 1515 c 128,-1,27
 965.5 1477 965.5 1477 1028.5 1414.5 c 128,-1,28
 1091.5 1352 1091.5 1352 1124 1272.5 c 128,-1,29
 1156.5 1193 1156.5 1193 1156.5 1112 c 0,30,31
 1156.5 1040 1156.5 1040 1134 980 c 128,-1,32
 1111.5 920 1111.5 920 1073.5 864 c 128,-1,33
 1035.5 808 1035.5 808 987.5 752.5 c 128,-1,34
 939.5 697 939.5 697 888.5 636 c 256,35,36
 837.5 575 837.5 575 782.5 511 c 128,-1,37
 727.5 447 727.5 447 678 390 c 128,-1,38
 628.5 333 628.5 333 588 285 c 128,-1,39
 547.5 237 547.5 237 525.5 205 c 1,40,-1
 1182.5 205 l 1,41,-1
 1182.5 0 l 1,42,-1
 148.5 0 l 1,0,-1
EndSplineSet
EndChar

StartChar: three
Encoding: 51 51 23
Width: 1331
GlyphClass: 1
Flags: W
LayerCount: 2
Fore
SplineSet
287 961 m 1,0,1
 317 983 317 983 358.5 1013 c 128,-1,2
 400 1043 400 1043 448 1080 c 128,-1,3
 496 1117 496 1117 545.5 1157.5 c 128,-1,4
 595 1198 595 1198 640 1240.5 c 128,-1,5
 685 1283 685 1283 723.5 1325.5 c 128,-1,6
 762 1368 762 1368 787 1407 c 1,7,-1
 520 1331 l 1,8,-1
 181 1331 l 1,9,-1
 203 1536 l 1,10,-1
 1065 1536 l 1,11,-1
 1065 1359 l 1,12,13
 1033 1278 1033 1278 974.5 1210.5 c 128,-1,14
 916 1143 916 1143 842 1077 c 1,15,-1
 682 992 l 1,16,17
 790 992 790 992 878.5 964 c 128,-1,18
 967 936 967 936 1029.5 883.5 c 128,-1,19
 1092 831 1092 831 1126 756 c 128,-1,20
 1160 681 1160 681 1160 587 c 0,21,22
 1160 486 1160 486 1118 402.5 c 128,-1,23
 1076 319 1076 319 1004.5 254 c 128,-1,24
 933 189 933 189 836 141 c 128,-1,25
 739 93 739 93 629 62 c 128,-1,26
 519 31 519 31 402 15.5 c 128,-1,27
 285 0 285 0 171 0 c 1,28,-1
 171 205 l 1,29,30
 292 209 292 209 406.5 236.5 c 128,-1,31
 521 264 521 264 611.5 311.5 c 128,-1,32
 702 359 702 359 756.5 426.5 c 128,-1,33
 811 494 811 494 811 577 c 0,34,35
 811 636 811 636 786 676.5 c 128,-1,36
 761 717 761 717 718 742 c 128,-1,37
 675 767 675 767 618 777.5 c 128,-1,38
 561 788 561 788 498 788 c 0,39,40
 483 788 483 788 453 787 c 128,-1,41
 423 786 423 786 391 784.5 c 128,-1,42
 359 783 359 783 330 781 c 128,-1,43
 301 779 301 779 287 778 c 1,44,-1
 287 961 l 1,0,1
EndSplineSet
EndChar

StartChar: four
Encoding: 52 52 24
Width: 1331
GlyphClass: 1
Flags: W
LayerCount: 2
Fore
SplineSet
1196.5 307 m 1,0,-1
 1014.5 307 l 1,1,-1
 1014.5 0 l 1,2,-1
 685.5 0 l 1,3,-1
 685.5 307 l 1,4,-1
 112.5 307 l 1,5,-1
 112.5 512 l 1,6,-1
 617.5 1556 l 1,7,-1
 904.5 1536 l 1,8,-1
 566.5 781 l 1,9,-1
 387.5 512 l 1,10,-1
 685.5 512 l 1,11,-1
 685.5 799 l 1,12,-1
 1014.5 819 l 1,13,-1
 1014.5 512 l 1,14,-1
 1218.5 512 l 1,15,-1
 1196.5 307 l 1,0,-1
EndSplineSet
EndChar

StartChar: five
Encoding: 53 53 25
Width: 1331
GlyphClass: 1
Flags: W
LayerCount: 2
Fore
SplineSet
533 1071 m 1,0,1
 558 1077 558 1077 586.5 1080.5 c 128,-1,2
 615 1084 615 1084 651 1084 c 0,3,4
 770 1084 770 1084 863.5 1049.5 c 128,-1,5
 957 1015 957 1015 1022.5 954.5 c 128,-1,6
 1088 894 1088 894 1122 813.5 c 128,-1,7
 1156 733 1156 733 1156 641 c 0,8,9
 1156 537 1156 537 1114 448 c 128,-1,10
 1072 359 1072 359 1000 288 c 128,-1,11
 928 217 928 217 831.5 163.5 c 128,-1,12
 735 110 735 110 626 73.5 c 128,-1,13
 517 37 517 37 401.5 18.5 c 128,-1,14
 286 0 286 0 175 0 c 1,15,-1
 175 231 l 1,16,17
 248 233 248 233 324 247.5 c 128,-1,18
 400 262 400 262 472 286.5 c 128,-1,19
 544 311 544 311 607.5 346 c 128,-1,20
 671 381 671 381 718.5 423.5 c 128,-1,21
 766 466 766 466 793.5 515.5 c 128,-1,22
 821 565 821 565 821 621 c 0,23,24
 821 663 821 663 807 702.5 c 128,-1,25
 793 742 793 742 766.5 773 c 128,-1,26
 740 804 740 804 704.5 823 c 128,-1,27
 669 842 669 842 625 842 c 0,28,29
 585 842 585 842 551.5 835.5 c 128,-1,30
 518 829 518 829 490.5 819.5 c 128,-1,31
 463 810 463 810 442 798.5 c 128,-1,32
 421 787 421 787 406 777 c 1,33,-1
 175 777 l 1,34,-1
 175 1536 l 1,35,-1
 1062 1536 l 1,36,-1
 1062 1331 l 1,37,-1
 533 1331 l 1,38,-1
 533 1071 l 1,0,1
EndSplineSet
EndChar

StartChar: six
Encoding: 54 54 26
Width: 1331
GlyphClass: 1
Flags: W
LayerCount: 2
Fore
SplineSet
1030.5 1311 m 1,0,1
 1003.5 1325 1003.5 1325 972.5 1328 c 128,-1,2
 941.5 1331 941.5 1331 916.5 1331 c 0,3,4
 845.5 1331 845.5 1331 770.5 1297 c 128,-1,5
 695.5 1263 695.5 1263 629 1197.5 c 128,-1,6
 562.5 1132 562.5 1132 513 1036.5 c 128,-1,7
 463.5 941 463.5 941 444.5 819 c 1,8,-1
 613.5 968 l 1,9,10
 641.5 973 641.5 973 667.5 976 c 128,-1,11
 693.5 979 693.5 979 717.5 979 c 0,12,13
 816.5 979 816.5 979 909 954 c 128,-1,14
 1001.5 929 1001.5 929 1073.5 875 c 128,-1,15
 1145.5 821 1145.5 821 1188.5 737.5 c 128,-1,16
 1231.5 654 1231.5 654 1231.5 538 c 0,17,18
 1231.5 424 1231.5 424 1190.5 323 c 128,-1,19
 1149.5 222 1149.5 222 1075 146.5 c 128,-1,20
 1000.5 71 1000.5 71 896.5 27 c 128,-1,21
 792.5 -17 792.5 -17 666.5 -17 c 0,22,23
 555.5 -17 555.5 -17 471 15.5 c 128,-1,24
 386.5 48 386.5 48 323.5 102 c 128,-1,25
 260.5 156 260.5 156 217.5 225 c 128,-1,26
 174.5 294 174.5 294 148.5 367 c 128,-1,27
 122.5 440 122.5 440 111 512 c 128,-1,28
 99.5 584 99.5 584 99.5 642 c 0,29,30
 99.5 763 99.5 763 126 877.5 c 128,-1,31
 152.5 992 152.5 992 202 1093 c 128,-1,32
 251.5 1194 251.5 1194 323.5 1279 c 128,-1,33
 395.5 1364 395.5 1364 487.5 1425 c 128,-1,34
 579.5 1486 579.5 1486 690 1519.5 c 128,-1,35
 800.5 1553 800.5 1553 926.5 1553 c 0,36,37
 944.5 1553 944.5 1553 979 1550.5 c 128,-1,38
 1013.5 1548 1013.5 1548 1065.5 1534 c 1,39,-1
 1030.5 1311 l 1,0,1
702.5 774 m 0,40,41
 665.5 774 665.5 774 628.5 758.5 c 128,-1,42
 591.5 743 591.5 743 557 719.5 c 128,-1,43
 522.5 696 522.5 696 493.5 668 c 128,-1,44
 464.5 640 464.5 640 444.5 615 c 1,45,46
 444.5 588 444.5 588 445 566.5 c 128,-1,47
 445.5 545 445.5 545 447 525 c 128,-1,48
 448.5 505 448.5 505 452.5 485.5 c 128,-1,49
 456.5 466 456.5 466 462.5 444 c 0,50,51
 474.5 396 474.5 396 494.5 352.5 c 128,-1,52
 514.5 309 514.5 309 540.5 276.5 c 128,-1,53
 566.5 244 566.5 244 599 224.5 c 128,-1,54
 631.5 205 631.5 205 669.5 205 c 0,55,56
 724.5 205 724.5 205 765.5 234 c 128,-1,57
 806.5 263 806.5 263 833.5 309.5 c 128,-1,58
 860.5 356 860.5 356 873.5 413.5 c 128,-1,59
 886.5 471 886.5 471 886.5 528 c 0,60,61
 886.5 579 886.5 579 872.5 624.5 c 128,-1,62
 858.5 670 858.5 670 834 703 c 128,-1,63
 809.5 736 809.5 736 775.5 755 c 128,-1,64
 741.5 774 741.5 774 702.5 774 c 0,40,41
EndSplineSet
EndChar

StartChar: seven
Encoding: 55 55 27
Width: 1331
GlyphClass: 1
Flags: W
LayerCount: 2
Fore
SplineSet
149.5 1536 m 1,0,-1
 1181.5 1536 l 1,1,-1
 1181.5 1371 l 2,2,3
 1181.5 1344 1181.5 1344 1166.5 1305 c 128,-1,4
 1151.5 1266 1151.5 1266 1127 1217.5 c 128,-1,5
 1102.5 1169 1102.5 1169 1069 1114 c 128,-1,6
 1035.5 1059 1035.5 1059 998.5 999 c 0,7,8
 955.5 927 955.5 927 908.5 846.5 c 128,-1,9
 861.5 766 861.5 766 821 682 c 128,-1,10
 780.5 598 780.5 598 750.5 514.5 c 128,-1,11
 720.5 431 720.5 431 711.5 354 c 0,12,13
 707.5 317 707.5 317 704.5 272 c 128,-1,14
 701.5 227 701.5 227 700.5 179.5 c 128,-1,15
 699.5 132 699.5 132 699.5 86 c 128,-1,16
 699.5 40 699.5 40 699.5 0 c 1,17,-1
 354.5 0 l 1,18,19
 354.5 33 354.5 33 355 88 c 128,-1,20
 355.5 143 355.5 143 357.5 204.5 c 128,-1,21
 359.5 266 359.5 266 365 326 c 128,-1,22
 370.5 386 370.5 386 379.5 428 c 0,23,24
 398.5 520 398.5 520 434.5 612.5 c 128,-1,25
 470.5 705 470.5 705 514 793 c 128,-1,26
 557.5 881 557.5 881 604.5 961.5 c 128,-1,27
 651.5 1042 651.5 1042 694.5 1112 c 0,28,29
 730.5 1170 730.5 1170 759.5 1219.5 c 128,-1,30
 788.5 1269 788.5 1269 801.5 1303 c 1,31,-1
 149.5 1303 l 1,32,-1
 149.5 1536 l 1,0,-1
EndSplineSet
EndChar

StartChar: eight
Encoding: 56 56 28
Width: 1331
GlyphClass: 1
Flags: W
LayerCount: 2
Fore
SplineSet
647 1553 m 0,0,1
 752 1553 752 1553 841.5 1526 c 128,-1,2
 931 1499 931 1499 997 1448.5 c 128,-1,3
 1063 1398 1063 1398 1099.5 1325 c 128,-1,4
 1136 1252 1136 1252 1136 1161 c 0,5,6
 1136 1109 1136 1109 1115.5 1065 c 128,-1,7
 1095 1021 1095 1021 1063 984 c 128,-1,8
 1031 947 1031 947 989.5 917.5 c 128,-1,9
 948 888 948 888 907 864 c 1,10,11
 975 831 975 831 1034 787.5 c 128,-1,12
 1093 744 1093 744 1137 690.5 c 128,-1,13
 1181 637 1181 637 1206 573.5 c 128,-1,14
 1231 510 1231 510 1231 437 c 0,15,16
 1231 318 1231 318 1181.5 232.5 c 128,-1,17
 1132 147 1132 147 1051 91.5 c 128,-1,18
 970 36 970 36 865.5 9.5 c 128,-1,19
 761 -17 761 -17 653 -17 c 0,20,21
 547 -17 547 -17 447 13 c 128,-1,22
 347 43 347 43 270 102.5 c 128,-1,23
 193 162 193 162 146.5 249.5 c 128,-1,24
 100 337 100 337 100 452 c 0,25,26
 100 525 100 525 122 587.5 c 128,-1,27
 144 650 144 650 183.5 702.5 c 128,-1,28
 223 755 223 755 276.5 796.5 c 128,-1,29
 330 838 330 838 395 868 c 1,30,31
 348 896 348 896 308 927 c 128,-1,32
 268 958 268 958 238.5 993 c 128,-1,33
 209 1028 209 1028 192 1067.5 c 128,-1,34
 175 1107 175 1107 175 1151 c 0,35,36
 175 1255 175 1255 220 1331.5 c 128,-1,37
 265 1408 265 1408 334 1457 c 128,-1,38
 403 1506 403 1506 486.5 1529.5 c 128,-1,39
 570 1553 570 1553 647 1553 c 0,0,1
899 432 m 0,40,41
 899 487 899 487 875.5 532.5 c 128,-1,42
 852 578 852 578 814.5 614 c 128,-1,43
 777 650 777 650 730.5 678.5 c 128,-1,44
 684 707 684 707 638 728 c 1,45,46
 594 706 594 706 556.5 678 c 128,-1,47
 519 650 519 650 491 613.5 c 128,-1,48
 463 577 463 577 447.5 531.5 c 128,-1,49
 432 486 432 486 432 431 c 0,50,51
 432 382 432 382 452 340 c 128,-1,52
 472 298 472 298 503 268.5 c 128,-1,53
 534 239 534 239 574 222 c 128,-1,54
 614 205 614 205 654 205 c 0,55,56
 700 205 700 205 744 220.5 c 128,-1,57
 788 236 788 236 822.5 265 c 128,-1,58
 857 294 857 294 878 336 c 128,-1,59
 899 378 899 378 899 432 c 0,40,41
502 1184 m 0,60,61
 502 1149 502 1149 516.5 1120 c 128,-1,62
 531 1091 531 1091 555 1066 c 128,-1,63
 579 1041 579 1041 610.5 1021.5 c 128,-1,64
 642 1002 642 1002 674 987 c 1,65,66
 702 1002 702 1002 726.5 1022 c 128,-1,67
 751 1042 751 1042 769 1066.5 c 128,-1,68
 787 1091 787 1091 798 1119 c 128,-1,69
 809 1147 809 1147 809 1180 c 0,70,71
 809 1219 809 1219 794 1247.5 c 128,-1,72
 779 1276 779 1276 757.5 1294.5 c 128,-1,73
 736 1313 736 1313 711 1322 c 128,-1,74
 686 1331 686 1331 665 1331 c 0,75,76
 636 1331 636 1331 607 1320 c 128,-1,77
 578 1309 578 1309 555 1289 c 128,-1,78
 532 1269 532 1269 517 1242 c 128,-1,79
 502 1215 502 1215 502 1184 c 0,60,61
EndSplineSet
EndChar

StartChar: nine
Encoding: 57 57 29
Width: 1331
GlyphClass: 1
Flags: W
LayerCount: 2
Fore
SplineSet
328.5 204 m 1,0,1
 399.5 206 399.5 206 467 227.5 c 128,-1,2
 534.5 249 534.5 249 596.5 285.5 c 128,-1,3
 658.5 322 658.5 322 711 370 c 128,-1,4
 763.5 418 763.5 418 802.5 474 c 128,-1,5
 841.5 530 841.5 530 863.5 592 c 128,-1,6
 885.5 654 885.5 654 886.5 717 c 1,7,-1
 703.5 561 l 1,8,9
 687.5 559 687.5 559 670.5 558 c 128,-1,10
 653.5 557 653.5 557 636.5 557 c 0,11,12
 523.5 557 523.5 557 427 591.5 c 128,-1,13
 330.5 626 330.5 626 258.5 689.5 c 128,-1,14
 186.5 753 186.5 753 145.5 842.5 c 128,-1,15
 104.5 932 104.5 932 104.5 1041 c 0,16,17
 104.5 1155 104.5 1155 143.5 1249 c 128,-1,18
 182.5 1343 182.5 1343 255 1411 c 128,-1,19
 327.5 1479 327.5 1479 429.5 1516 c 128,-1,20
 531.5 1553 531.5 1553 658.5 1553 c 0,21,22
 771.5 1553 771.5 1553 857.5 1521.5 c 128,-1,23
 943.5 1490 943.5 1490 1006.5 1437 c 128,-1,24
 1069.5 1384 1069.5 1384 1112 1315.5 c 128,-1,25
 1154.5 1247 1154.5 1247 1179.5 1174 c 128,-1,26
 1204.5 1101 1204.5 1101 1215.5 1028 c 128,-1,27
 1226.5 955 1226.5 955 1226.5 894 c 0,28,29
 1226.5 713 1226.5 713 1169 553.5 c 128,-1,30
 1111.5 394 1111.5 394 1002 273 c 128,-1,31
 892.5 152 892.5 152 733.5 75.5 c 128,-1,32
 574.5 -1 574.5 -1 372.5 -17 c 1,33,-1
 328.5 204 l 1,0,1
645.5 779 m 0,34,35
 680.5 779 680.5 779 717.5 795.5 c 128,-1,36
 754.5 812 754.5 812 787 838.5 c 128,-1,37
 819.5 865 819.5 865 846.5 899 c 128,-1,38
 873.5 933 873.5 933 890.5 968 c 1,39,40
 887.5 1033 887.5 1033 870.5 1097.5 c 128,-1,41
 853.5 1162 853.5 1162 825 1214.5 c 128,-1,42
 796.5 1267 796.5 1267 756.5 1299 c 128,-1,43
 716.5 1331 716.5 1331 666.5 1331 c 0,44,45
 618.5 1331 618.5 1331 578 1309 c 128,-1,46
 537.5 1287 537.5 1287 507 1250 c 128,-1,47
 476.5 1213 476.5 1213 459.5 1163.5 c 128,-1,48
 442.5 1114 442.5 1114 442.5 1059 c 256,49,50
 442.5 1004 442.5 1004 456.5 953.5 c 128,-1,51
 470.5 903 470.5 903 496.5 864 c 128,-1,52
 522.5 825 522.5 825 560 802 c 128,-1,53
 597.5 779 597.5 779 645.5 779 c 0,34,35
EndSplineSet
EndChar

StartChar: colon
Encoding: 58 58 30
Width: 1331
GlyphClass: 1
Flags: W
LayerCount: 2
Fore
SplineSet
463 187 m 256,0,1
 463 229 463 229 479 266 c 128,-1,2
 495 303 495 303 523 330.5 c 128,-1,3
 551 358 551 358 587 374 c 128,-1,4
 623 390 623 390 665 390 c 256,5,6
 707 390 707 390 744 374 c 128,-1,7
 781 358 781 358 808.5 330.5 c 128,-1,8
 836 303 836 303 852 266 c 128,-1,9
 868 229 868 229 868 187 c 256,10,11
 868 145 868 145 852 108 c 128,-1,12
 836 71 836 71 809 43 c 128,-1,13
 782 15 782 15 745 -1 c 128,-1,14
 708 -17 708 -17 667 -17 c 0,15,16
 625 -17 625 -17 588 -1 c 128,-1,17
 551 15 551 15 523 43 c 128,-1,18
 495 71 495 71 479 108 c 128,-1,19
 463 145 463 145 463 187 c 256,0,1
463 717 m 256,20,21
 463 759 463 759 479 796 c 128,-1,22
 495 833 495 833 523 860.5 c 128,-1,23
 551 888 551 888 587 904 c 128,-1,24
 623 920 623 920 665 920 c 256,25,26
 707 920 707 920 744 904 c 128,-1,27
 781 888 781 888 808.5 860.5 c 128,-1,28
 836 833 836 833 852 796 c 128,-1,29
 868 759 868 759 868 717 c 256,30,31
 868 675 868 675 852 637.5 c 128,-1,32
 836 600 836 600 809 572.5 c 128,-1,33
 782 545 782 545 745 528.5 c 128,-1,34
 708 512 708 512 667 512 c 0,35,36
 625 512 625 512 588 528.5 c 128,-1,37
 551 545 551 545 523 572.5 c 128,-1,38
 495 600 495 600 479 637.5 c 128,-1,39
 463 675 463 675 463 717 c 256,20,21
EndSplineSet
EndChar

StartChar: semicolon
Encoding: 59 59 31
Width: 1331
GlyphClass: 1
Flags: W
LayerCount: 2
Fore
SplineSet
483 160 m 0,0,1
 483 196 483 196 497.5 228 c 128,-1,2
 512 260 512 260 537 284 c 128,-1,3
 562 308 562 308 595 322.5 c 128,-1,4
 628 337 628 337 665 337 c 0,5,6
 700 337 700 337 733 324 c 128,-1,7
 766 311 766 311 791.5 286 c 128,-1,8
 817 261 817 261 832 224 c 128,-1,9
 847 187 847 187 847 139 c 0,10,11
 847 74 847 74 839 12.5 c 128,-1,12
 831 -49 831 -49 806 -111 c 128,-1,13
 781 -173 781 -173 734.5 -238 c 128,-1,14
 688 -303 688 -303 611 -374 c 1,15,-1
 547 -345 l 1,16,17
 561 -318 561 -318 573.5 -290 c 128,-1,18
 586 -262 586 -262 598 -233 c 0,19,20
 616 -184 616 -184 631.5 -128.5 c 128,-1,21
 647 -73 647 -73 647 -17 c 1,22,23
 616 -16 616 -16 586.5 -4.5 c 128,-1,24
 557 7 557 7 534 29.5 c 128,-1,25
 511 52 511 52 497 84.5 c 128,-1,26
 483 117 483 117 483 160 c 0,0,1
463 717 m 256,27,28
 463 759 463 759 479 796 c 128,-1,29
 495 833 495 833 523 860.5 c 128,-1,30
 551 888 551 888 587 904 c 128,-1,31
 623 920 623 920 665 920 c 256,32,33
 707 920 707 920 744 904 c 128,-1,34
 781 888 781 888 808.5 860.5 c 128,-1,35
 836 833 836 833 852 796 c 128,-1,36
 868 759 868 759 868 717 c 256,37,38
 868 675 868 675 852 637.5 c 128,-1,39
 836 600 836 600 809 572.5 c 128,-1,40
 782 545 782 545 745 528.5 c 128,-1,41
 708 512 708 512 667 512 c 0,42,43
 625 512 625 512 588 528.5 c 128,-1,44
 551 545 551 545 523 572.5 c 128,-1,45
 495 600 495 600 479 637.5 c 128,-1,46
 463 675 463 675 463 717 c 256,27,28
EndSplineSet
EndChar

StartChar: less
Encoding: 60 60 32
Width: 1331
GlyphClass: 1
Flags: W
LayerCount: 2
Fore
SplineSet
1181 1308 m 1,0,-1
 1181 1033 l 1,1,-1
 498 670 l 1,2,-1
 1181 309 l 1,3,-1
 1181 35 l 1,4,-1
 150 558 l 1,5,-1
 150 788 l 1,6,-1
 1181 1308 l 1,0,-1
EndSplineSet
EndChar

StartChar: equal
Encoding: 61 61 33
Width: 1331
GlyphClass: 1
Flags: W
LayerCount: 2
Fore
SplineSet
256 918 m 5,0,-1
 1075 918 l 5,1,-1
 1075 694 l 5,2,-1
 256 694 l 5,3,-1
 256 918 l 5,0,-1
256 443 m 5,4,-1
 1075 443 l 5,5,-1
 1075 218 l 5,6,-1
 256 218 l 5,7,-1
 256 443 l 5,4,-1
EndSplineSet
EndChar

StartChar: greater
Encoding: 62 62 34
Width: 1331
GlyphClass: 1
Flags: W
LayerCount: 2
Fore
SplineSet
1181 788 m 1,0,-1
 1181 558 l 1,1,-1
 150 35 l 1,2,-1
 150 309 l 1,3,-1
 833 670 l 1,4,-1
 150 1033 l 1,5,-1
 150 1309 l 1,6,-1
 1181 788 l 1,0,-1
EndSplineSet
EndChar

StartChar: question
Encoding: 63 63 35
Width: 1331
GlyphClass: 1
Flags: W
LayerCount: 2
Fore
SplineSet
1179.5 1151 m 0,0,1
 1179.5 1090 1179.5 1090 1159 1039 c 128,-1,2
 1138.5 988 1138.5 988 1105 944.5 c 128,-1,3
 1071.5 901 1071.5 901 1029 861.5 c 128,-1,4
 986.5 822 986.5 822 942.5 783 c 0,5,6
 912.5 757 912.5 757 882.5 725 c 128,-1,7
 852.5 693 852.5 693 828.5 652 c 128,-1,8
 804.5 611 804.5 611 789.5 560 c 128,-1,9
 774.5 509 774.5 509 774.5 444 c 1,10,-1
 456.5 409 l 1,11,12
 457.5 498 457.5 498 470 575.5 c 128,-1,13
 482.5 653 482.5 653 512.5 721.5 c 128,-1,14
 542.5 790 542.5 790 590.5 850 c 128,-1,15
 638.5 910 638.5 910 711.5 965 c 0,16,17
 734.5 984 734.5 984 755.5 1004.5 c 128,-1,18
 776.5 1025 776.5 1025 793 1048 c 128,-1,19
 809.5 1071 809.5 1071 819.5 1098 c 128,-1,20
 829.5 1125 829.5 1125 829.5 1159 c 0,21,22
 829.5 1200 829.5 1200 815 1229 c 128,-1,23
 800.5 1258 800.5 1258 775.5 1277 c 128,-1,24
 750.5 1296 750.5 1296 717.5 1305 c 128,-1,25
 684.5 1314 684.5 1314 649.5 1314 c 0,26,27
 622.5 1314 622.5 1314 584 1305 c 128,-1,28
 545.5 1296 545.5 1296 502.5 1276 c 128,-1,29
 459.5 1256 459.5 1256 416 1223.5 c 128,-1,30
 372.5 1191 372.5 1191 337.5 1144 c 1,31,-1
 151.5 1298 l 1,32,33
 209.5 1376 209.5 1376 275.5 1426 c 128,-1,34
 341.5 1476 341.5 1476 410 1504 c 128,-1,35
 478.5 1532 478.5 1532 546 1542.5 c 128,-1,36
 613.5 1553 613.5 1553 674.5 1553 c 0,37,38
 771.5 1553 771.5 1553 862.5 1529 c 128,-1,39
 953.5 1505 953.5 1505 1024 1455.5 c 128,-1,40
 1094.5 1406 1094.5 1406 1137 1330 c 128,-1,41
 1179.5 1254 1179.5 1254 1179.5 1151 c 0,0,1
460.5 153 m 0,42,43
 460.5 188 460.5 188 473.5 218 c 128,-1,44
 486.5 248 486.5 248 509 271 c 128,-1,45
 531.5 294 531.5 294 562 307.5 c 128,-1,46
 592.5 321 592.5 321 627.5 321 c 256,47,48
 662.5 321 662.5 321 692.5 307.5 c 128,-1,49
 722.5 294 722.5 294 745 271 c 128,-1,50
 767.5 248 767.5 248 781 217.5 c 128,-1,51
 794.5 187 794.5 187 794.5 153 c 0,52,53
 794.5 119 794.5 119 781.5 87.5 c 128,-1,54
 768.5 56 768.5 56 746 33 c 128,-1,55
 723.5 10 723.5 10 693.5 -3.5 c 128,-1,56
 663.5 -17 663.5 -17 628.5 -17 c 256,57,58
 593.5 -17 593.5 -17 562.5 -3.5 c 128,-1,59
 531.5 10 531.5 10 509 33 c 128,-1,60
 486.5 56 486.5 56 473.5 87.5 c 128,-1,61
 460.5 119 460.5 119 460.5 153 c 0,42,43
EndSplineSet
EndChar

StartChar: at
Encoding: 64 64 36
Width: 1331
GlyphClass: 1
Flags: W
LayerCount: 2
Fore
SplineSet
708 512 m 1,0,-1
 677 512 l 2,1,2
 660 512 660 512 643.5 504 c 128,-1,3
 627 496 627 496 613 476.5 c 128,-1,4
 599 457 599 457 591 424 c 128,-1,5
 583 391 583 391 583 341 c 0,6,7
 583 300 583 300 588.5 274 c 128,-1,8
 594 248 594 248 603 232.5 c 128,-1,9
 612 217 612 217 624.5 211 c 128,-1,10
 637 205 637 205 651 205 c 0,11,12
 671 205 671 205 683 217.5 c 128,-1,13
 695 230 695 230 700 247 c 256,14,15
 705 263 705 263 708 290 c 2,16,-1
 708 512 l 1,0,-1
283 512 m 2,17,18
 283 431 283 431 290 348.5 c 128,-1,19
 297 266 297 266 315.5 189.5 c 128,-1,20
 334 113 334 113 364 46.5 c 128,-1,21
 394 -20 394 -20 440 -69.5 c 128,-1,22
 486 -119 486 -119 549.5 -147.5 c 128,-1,23
 613 -176 613 -176 698 -176 c 0,24,25
 743 -176 743 -176 781.5 -170 c 128,-1,26
 820 -164 820 -164 849.5 -155 c 128,-1,27
 879 -146 879 -146 897.5 -137.5 c 128,-1,28
 916 -129 916 -129 924 -123 c 1,29,-1
 924 -354 l 1,30,31
 905 -365 905 -365 846.5 -378 c 128,-1,32
 788 -391 788 -391 698 -391 c 0,33,34
 569 -391 569 -391 470 -356.5 c 128,-1,35
 371 -322 371 -322 298 -259.5 c 128,-1,36
 225 -197 225 -197 176 -110 c 128,-1,37
 127 -23 127 -23 97.5 82 c 128,-1,38
 68 187 68 187 55 307 c 128,-1,39
 42 427 42 427 42 554 c 0,40,41
 42 684 42 684 63.5 805 c 128,-1,42
 85 926 85 926 126 1030.5 c 128,-1,43
 167 1135 167 1135 225 1220.5 c 128,-1,44
 283 1306 283 1306 356 1367 c 128,-1,45
 429 1428 429 1428 515.5 1461.5 c 128,-1,46
 602 1495 602 1495 699 1495 c 0,47,48
 802 1495 802 1495 886.5 1462.5 c 128,-1,49
 971 1430 971 1430 1036.5 1370.5 c 128,-1,50
 1102 1311 1102 1311 1149.5 1228 c 128,-1,51
 1197 1145 1197 1145 1228 1044 c 128,-1,52
 1259 943 1259 943 1274 828 c 128,-1,53
 1289 713 1289 713 1289 590 c 0,54,55
 1289 509 1289 509 1284.5 431 c 128,-1,56
 1280 353 1280 353 1267 283.5 c 128,-1,57
 1254 214 1254 214 1231.5 156 c 128,-1,58
 1209 98 1209 98 1174 56 c 128,-1,59
 1139 14 1139 14 1089 -9.5 c 128,-1,60
 1039 -33 1039 -33 972 -33 c 0,61,62
 915 -33 915 -33 872.5 -15.5 c 128,-1,63
 830 2 830 2 802.5 25 c 128,-1,64
 775 48 775 48 762 70.5 c 128,-1,65
 749 93 749 93 749 102 c 1,66,-1
 714 1 l 1,67,-1
 689 -8 l 2,68,69
 677 -12 677 -12 658.5 -14.5 c 128,-1,70
 640 -17 640 -17 616 -17 c 0,71,72
 555 -17 555 -17 513.5 15 c 128,-1,73
 472 47 472 47 447 97 c 128,-1,74
 422 147 422 147 410.5 208.5 c 128,-1,75
 399 270 399 270 397 329 c 128,-1,76
 395 388 395 388 399.5 437 c 128,-1,77
 404 486 404 486 412 512 c 0,78,79
 424 550 424 550 444 587 c 128,-1,80
 464 624 464 624 496 652.5 c 128,-1,81
 528 681 528 681 575 699 c 128,-1,82
 622 717 622 717 687 717 c 2,83,-1
 708 717 l 1,84,-1
 708 819 l 2,85,86
 708 845 708 845 693.5 857 c 128,-1,87
 679 869 679 869 656.5 872.5 c 128,-1,88
 634 876 634 876 606 871.5 c 128,-1,89
 578 867 578 867 550.5 860 c 128,-1,90
 523 853 523 853 499.5 844.5 c 128,-1,91
 476 836 476 836 463 829 c 1,92,-1
 463 1010 l 1,93,94
 485 1024 485 1024 522 1037 c 0,95,96
 552 1047 552 1047 598 1056 c 128,-1,97
 644 1065 644 1065 709 1065 c 0,98,99
 752 1065 752 1065 790.5 1056.5 c 128,-1,100
 829 1048 829 1048 859 1024.5 c 128,-1,101
 889 1001 889 1001 906.5 962.5 c 128,-1,102
 924 924 924 924 924 864 c 2,103,-1
 924 290 l 2,104,105
 925 265 925 265 930 247 c 0,106,107
 935 231 935 231 945 218 c 128,-1,108
 955 205 955 205 975 205 c 0,109,110
 1001 205 1001 205 1016 237.5 c 128,-1,111
 1031 270 1031 270 1039.5 318 c 128,-1,112
 1048 366 1048 366 1050.5 418.5 c 128,-1,113
 1053 471 1053 471 1053 512 c 2,114,-1
 1053 547 l 2,115,116
 1053 730 1053 730 1026 865.5 c 128,-1,117
 999 1001 999 1001 952 1091.5 c 128,-1,118
 905 1182 905 1182 840 1226 c 128,-1,119
 775 1270 775 1270 698 1270 c 256,120,121
 621 1270 621 1270 546.5 1226 c 128,-1,122
 472 1182 472 1182 413.5 1091.5 c 128,-1,123
 355 1001 355 1001 319 865.5 c 128,-1,124
 283 730 283 730 283 547 c 2,125,-1
 283 512 l 2,17,18
EndSplineSet
EndChar

StartChar: A
Encoding: 65 65 37
Width: 1331
GlyphClass: 1
Flags: W
LayerCount: 2
Fore
SplineSet
51 0 m 1,0,-1
 415 1315 l 1,1,-1
 452 1536 l 1,2,-1
 839 1556 l 1,3,-1
 1280 0 l 1,4,-1
 938 0 l 1,5,-1
 831 437 l 1,6,-1
 481 437 l 1,7,-1
 378 0 l 1,8,-1
 51 0 l 1,0,-1
658 1363 m 1,9,-1
 618 1014 l 1,10,-1
 542 662 l 1,11,-1
 771 662 l 1,12,-1
 697 1014 l 1,13,-1
 658 1363 l 1,9,-1
EndSplineSet
EndChar

StartChar: B
Encoding: 66 66 38
Width: 1331
GlyphClass: 1
Flags: W
LayerCount: 2
Fore
SplineSet
500.5 1157 m 1,0,-1
 500.5 922 l 1,1,-1
 530.5 922 l 2,2,3
 578.5 922 578.5 922 627 935 c 128,-1,4
 675.5 948 675.5 948 714.5 976.5 c 128,-1,5
 753.5 1005 753.5 1005 778 1049 c 128,-1,6
 802.5 1093 802.5 1093 802.5 1155 c 0,7,8
 802.5 1211 802.5 1211 779 1247 c 128,-1,9
 755.5 1283 755.5 1283 719 1302.5 c 128,-1,10
 682.5 1322 682.5 1322 637.5 1329 c 128,-1,11
 592.5 1336 592.5 1336 551.5 1336 c 0,12,13
 537.5 1336 537.5 1336 518.5 1335 c 128,-1,14
 499.5 1334 499.5 1334 484.5 1332 c 1,15,-1
 500.5 1157 l 1,0,-1
141.5 0 m 1,16,-1
 141.5 1292 l 1,17,-1
 108.5 1525 l 1,18,19
 152.5 1531 152.5 1531 205 1536 c 128,-1,20
 257.5 1541 257.5 1541 309 1545 c 128,-1,21
 360.5 1549 360.5 1549 407.5 1551 c 128,-1,22
 454.5 1553 454.5 1553 488.5 1553 c 0,23,24
 611.5 1553 611.5 1553 726 1536.5 c 128,-1,25
 840.5 1520 840.5 1520 929 1477 c 128,-1,26
 1017.5 1434 1017.5 1434 1071 1360.5 c 128,-1,27
 1124.5 1287 1124.5 1287 1124.5 1176 c 0,28,29
 1124.5 1121 1124.5 1121 1108.5 1071.5 c 128,-1,30
 1092.5 1022 1092.5 1022 1064.5 980 c 128,-1,31
 1036.5 938 1036.5 938 996 904 c 128,-1,32
 955.5 870 955.5 870 906.5 846 c 1,33,34
 972.5 823 972.5 823 1030 791.5 c 128,-1,35
 1087.5 760 1087.5 760 1130.5 716 c 128,-1,36
 1173.5 672 1173.5 672 1198 615 c 128,-1,37
 1222.5 558 1222.5 558 1222.5 486 c 0,38,39
 1222.5 396 1222.5 396 1197 325 c 128,-1,40
 1171.5 254 1171.5 254 1128 200 c 128,-1,41
 1084.5 146 1084.5 146 1025 108 c 128,-1,42
 965.5 70 965.5 70 898.5 46 c 128,-1,43
 831.5 22 831.5 22 759.5 11 c 128,-1,44
 687.5 0 687.5 0 617.5 0 c 2,45,-1
 141.5 0 l 1,16,-1
500.5 233 m 1,46,-1
 559.5 233 l 2,47,48
 636.5 233 636.5 233 696 245 c 128,-1,49
 755.5 257 755.5 257 797 285.5 c 128,-1,50
 838.5 314 838.5 314 860.5 360.5 c 128,-1,51
 882.5 407 882.5 407 882.5 476 c 0,52,53
 882.5 542 882.5 542 861 587 c 128,-1,54
 839.5 632 839.5 632 801.5 659 c 128,-1,55
 763.5 686 763.5 686 711.5 698 c 128,-1,56
 659.5 710 659.5 710 598.5 710 c 2,57,-1
 500.5 710 l 1,58,-1
 500.5 233 l 1,46,-1
EndSplineSet
EndChar

StartChar: C
Encoding: 67 67 39
Width: 1331
GlyphClass: 1
Flags: W
LayerCount: 2
Fore
SplineSet
1239 136 m 1,0,1
 1135 53 1135 53 1020.5 18 c 128,-1,2
 906 -17 906 -17 772 -17 c 0,3,4
 613 -17 613 -17 487.5 47 c 128,-1,5
 362 111 362 111 274 220.5 c 128,-1,6
 186 330 186 330 139 476.5 c 128,-1,7
 92 623 92 623 92 787 c 0,8,9
 92 890 92 890 109.5 987 c 128,-1,10
 127 1084 127 1084 163 1169.5 c 128,-1,11
 199 1255 199 1255 254 1325.5 c 128,-1,12
 309 1396 309 1396 385.5 1446.5 c 128,-1,13
 462 1497 462 1497 559.5 1525 c 128,-1,14
 657 1553 657 1553 776 1553 c 0,15,16
 909 1553 909 1553 1029 1508 c 128,-1,17
 1149 1463 1149 1463 1239 1376 c 1,18,-1
 1088 1188 l 1,19,20
 1054 1211 1054 1211 1016.5 1231 c 128,-1,21
 979 1251 979 1251 941 1266.5 c 128,-1,22
 903 1282 903 1282 865.5 1291 c 128,-1,23
 828 1300 828 1300 793 1300 c 0,24,25
 696 1300 696 1300 630 1260.5 c 128,-1,26
 564 1221 564 1221 524.5 1151.5 c 128,-1,27
 485 1082 485 1082 468 989 c 128,-1,28
 451 896 451 896 451 791 c 0,29,30
 451 729 451 729 459.5 663.5 c 128,-1,31
 468 598 468 598 486 536.5 c 128,-1,32
 504 475 504 475 532 421 c 128,-1,33
 560 367 560 367 598.5 326.5 c 128,-1,34
 637 286 637 286 686 262.5 c 128,-1,35
 735 239 735 239 797 239 c 0,36,37
 832 239 832 239 865.5 244.5 c 128,-1,38
 899 250 899 250 936.5 262.5 c 128,-1,39
 974 275 974 275 1018 296 c 128,-1,40
 1062 317 1062 317 1117 348 c 1,41,-1
 1239 136 l 1,0,1
EndSplineSet
EndChar

StartChar: D
Encoding: 68 68 40
Width: 1331
GlyphClass: 1
Flags: W
LayerCount: 2
Fore
SplineSet
65 1536 m 1,0,1
 115 1541 115 1541 171 1544 c 128,-1,2
 227 1547 227 1547 282 1549 c 128,-1,3
 337 1551 337 1551 385.5 1552 c 128,-1,4
 434 1553 434 1553 468 1553 c 0,5,6
 640 1553 640 1553 786 1511.5 c 128,-1,7
 932 1470 932 1470 1038.5 1382 c 128,-1,8
 1145 1294 1145 1294 1205.5 1156.5 c 128,-1,9
 1266 1019 1266 1019 1266 826 c 0,10,11
 1266 678 1266 678 1236 558.5 c 128,-1,12
 1206 439 1206 439 1152.5 347.5 c 128,-1,13
 1099 256 1099 256 1024 190 c 128,-1,14
 949 124 949 124 859.5 82 c 128,-1,15
 770 40 770 40 668.5 20 c 128,-1,16
 567 0 567 0 460 0 c 2,17,-1
 99 0 l 1,18,-1
 99 1292 l 1,19,-1
 65 1536 l 1,0,1
459 1148 m 1,20,-1
 459 256 l 1,21,22
 567 256 567 256 641.5 282 c 128,-1,23
 716 308 716 308 766 351.5 c 128,-1,24
 816 395 816 395 843.5 451.5 c 128,-1,25
 871 508 871 508 885.5 568 c 128,-1,26
 900 628 900 628 903 687 c 128,-1,27
 906 746 906 746 906 797 c 0,28,29
 906 912 906 912 888 1007 c 128,-1,30
 870 1102 870 1102 821 1170.5 c 128,-1,31
 772 1239 772 1239 685 1276.5 c 128,-1,32
 598 1314 598 1314 460 1314 c 0,33,34
 457 1314 457 1314 453.5 1313.5 c 128,-1,35
 450 1313 450 1313 446 1313 c 2,36,-1
 437 1313 l 1,37,-1
 459 1148 l 1,20,-1
EndSplineSet
EndChar

StartChar: E
Encoding: 69 69 41
Width: 1331
GlyphClass: 1
Flags: W
LayerCount: 2
Fore
SplineSet
1180 233 m 1,0,-1
 1153 0 l 1,1,-1
 170 0 l 1,2,-1
 187 237 l 1,3,-1
 187 1293 l 1,4,-1
 151 1536 l 1,5,-1
 1142 1536 l 1,6,-1
 1142 1303 l 1,7,-1
 531 1303 l 1,8,-1
 546 1161 l 1,9,-1
 546 938 l 1,10,-1
 1075 938 l 1,11,-1
 1075 720 l 1,12,-1
 546 720 l 1,13,-1
 546 369 l 1,14,-1
 538 233 l 1,15,-1
 1180 233 l 1,0,-1
EndSplineSet
EndChar

StartChar: F
Encoding: 70 70 42
Width: 1331
GlyphClass: 1
Flags: W
LayerCount: 2
Fore
SplineSet
547.5 0 m 1,0,-1
 188.5 0 l 1,1,-1
 188.5 1293 l 1,2,-1
 152.5 1536 l 1,3,-1
 1178.5 1536 l 1,4,-1
 1150.5 1303 l 1,5,-1
 532.5 1303 l 1,6,-1
 547.5 1161 l 1,7,-1
 547.5 938 l 1,8,-1
 1073.5 938 l 1,9,-1
 1073.5 720 l 1,10,-1
 547.5 720 l 1,11,-1
 547.5 0 l 1,0,-1
EndSplineSet
EndChar

StartChar: G
Encoding: 71 71 43
Width: 1331
GlyphClass: 1
Flags: W
LayerCount: 2
Fore
SplineSet
1283.5 226 m 1,0,1
 1237.5 175 1237.5 175 1180 130.5 c 128,-1,2
 1122.5 86 1122.5 86 1053 53 c 128,-1,3
 983.5 20 983.5 20 902 1.5 c 128,-1,4
 820.5 -17 820.5 -17 727.5 -17 c 0,5,6
 568.5 -17 568.5 -17 442.5 47 c 128,-1,7
 316.5 111 316.5 111 228.5 220.5 c 128,-1,8
 140.5 330 140.5 330 94 476.5 c 128,-1,9
 47.5 623 47.5 623 47.5 787 c 0,10,11
 47.5 890 47.5 890 66 987 c 128,-1,12
 84.5 1084 84.5 1084 122.5 1169.5 c 128,-1,13
 160.5 1255 160.5 1255 218 1325.5 c 128,-1,14
 275.5 1396 275.5 1396 353.5 1446.5 c 128,-1,15
 431.5 1497 431.5 1497 530.5 1525 c 128,-1,16
 629.5 1553 629.5 1553 750.5 1553 c 0,17,18
 883.5 1553 883.5 1553 1003 1508 c 128,-1,19
 1122.5 1463 1122.5 1463 1212.5 1376 c 1,20,-1
 1061.5 1198 l 1,21,22
 1027.5 1221 1027.5 1221 990.5 1241.5 c 128,-1,23
 953.5 1262 953.5 1262 915 1277 c 128,-1,24
 876.5 1292 876.5 1292 839 1301.5 c 128,-1,25
 801.5 1311 801.5 1311 765.5 1311 c 0,26,27
 668.5 1311 668.5 1311 600 1269.5 c 128,-1,28
 531.5 1228 531.5 1228 488.5 1156.5 c 128,-1,29
 445.5 1085 445.5 1085 426 990.5 c 128,-1,30
 406.5 896 406.5 896 406.5 791 c 0,31,32
 406.5 729 406.5 729 415.5 662.5 c 128,-1,33
 424.5 596 424.5 596 442.5 533 c 128,-1,34
 460.5 470 460.5 470 488.5 414.5 c 128,-1,35
 516.5 359 516.5 359 555 317 c 128,-1,36
 593.5 275 593.5 275 642.5 250.5 c 128,-1,37
 691.5 226 691.5 226 753.5 226 c 0,38,39
 779.5 226 779.5 226 806 232.5 c 128,-1,40
 832.5 239 832.5 239 858 248.5 c 128,-1,41
 883.5 258 883.5 258 905.5 270.5 c 128,-1,42
 927.5 283 927.5 283 943.5 296 c 1,43,-1
 943.5 631 l 1,44,-1
 642.5 650 l 1,45,-1
 642.5 860 l 1,46,-1
 1283.5 860 l 1,47,-1
 1283.5 226 l 1,0,1
EndSplineSet
EndChar

StartChar: H
Encoding: 72 72 44
Width: 1331
GlyphClass: 1
Flags: W
LayerCount: 2
Fore
SplineSet
910.5 0 m 1,0,-1
 910.5 705 l 1,1,-1
 453.5 705 l 1,2,-1
 453.5 0 l 1,3,-1
 98.5 0 l 1,4,-1
 98.5 1293 l 1,5,-1
 66.5 1536 l 1,6,-1
 453.5 1556 l 1,7,-1
 453.5 938 l 1,8,-1
 910.5 938 l 1,9,-1
 910.5 1536 l 1,10,-1
 1264.5 1556 l 1,11,-1
 1264.5 0 l 1,12,-1
 910.5 0 l 1,0,-1
EndSplineSet
EndChar

StartChar: I
Encoding: 73 73 45
Width: 1331
GlyphClass: 1
Flags: W
LayerCount: 2
Fore
SplineSet
219 1536 m 1,0,-1
 1118 1536 l 1,1,-1
 1118 1303 l 1,2,-1
 839 1303 l 1,3,-1
 839 233 l 1,4,-1
 1147 233 l 1,5,-1
 1111 0 l 1,6,-1
 212 0 l 1,7,-1
 212 233 l 1,8,-1
 497 233 l 1,9,-1
 497 1303 l 1,10,-1
 184 1303 l 1,11,-1
 219 1536 l 1,0,-1
EndSplineSet
EndChar

StartChar: J
Encoding: 74 74 46
Width: 1331
GlyphClass: 1
Flags: W
LayerCount: 2
Fore
SplineSet
368 1536 m 1,0,-1
 1159 1536 l 1,1,-1
 1159 457 l 2,2,3
 1159 268 1159 268 1040 124 c 0,4,5
 1012 90 1012 90 971.5 64 c 128,-1,6
 931 38 931 38 882 20 c 128,-1,7
 833 2 833 2 776 -7.5 c 128,-1,8
 719 -17 719 -17 660 -17 c 0,9,10
 561 -17 561 -17 485.5 0.5 c 128,-1,11
 410 18 410 18 352.5 49 c 128,-1,12
 295 80 295 80 251.5 120 c 128,-1,13
 208 160 208 160 172 205 c 1,14,-1
 329 410 l 1,15,16
 344 392 344 392 369 364.5 c 128,-1,17
 394 337 394 337 429.5 312 c 128,-1,18
 465 287 465 287 514.5 268.5 c 128,-1,19
 564 250 564 250 628 250 c 0,20,21
 659 250 659 250 689.5 259.5 c 128,-1,22
 720 269 720 269 744 292.5 c 128,-1,23
 768 316 768 316 783.5 355.5 c 128,-1,24
 799 395 799 395 799 455 c 2,25,-1
 799 1159 l 1,26,-1
 820 1296 l 1,27,-1
 389 1296 l 1,28,-1
 368 1536 l 1,0,-1
EndSplineSet
EndChar

StartChar: K
Encoding: 75 75 47
Width: 1331
GlyphClass: 1
Flags: W
LayerCount: 2
Fore
SplineSet
103.5 0 m 1,0,-1
 103.5 1293 l 1,1,-1
 69.5 1536 l 1,2,-1
 462.5 1556 l 1,3,-1
 462.5 1060 l 1,4,-1
 863.5 1536 l 1,5,-1
 1240.5 1536 l 1,6,-1
 729.5 922 l 1,7,-1
 490.5 819 l 1,8,-1
 718.5 733 l 1,9,-1
 1261.5 0 l 1,10,-1
 872.5 0 l 1,11,-1
 462.5 553 l 1,12,-1
 462.5 0 l 1,13,-1
 103.5 0 l 1,0,-1
EndSplineSet
EndChar

StartChar: L
Encoding: 76 76 48
Width: 1331
GlyphClass: 1
Flags: W
LayerCount: 2
Fore
SplineSet
503.5 233 m 1,0,-1
 1210.5 233 l 1,1,-1
 1182.5 0 l 1,2,-1
 131.5 0 l 1,3,-1
 155.5 238 l 1,4,-1
 155.5 1293 l 1,5,-1
 120.5 1536 l 1,6,-1
 511.5 1556 l 1,7,-1
 511.5 369 l 1,8,-1
 503.5 233 l 1,0,-1
EndSplineSet
EndChar

StartChar: M
Encoding: 77 77 49
Width: 1331
GlyphClass: 1
Flags: W
LayerCount: 2
Fore
SplineSet
916.5 0 m 1,0,-1
 916.5 460 l 1,1,-1
 1026.5 1229 l 1,2,-1
 1016.5 1229 l 1,3,-1
 875.5 717 l 1,4,-1
 785.5 486 l 1,5,-1
 569.5 486 l 1,6,-1
 482.5 717 l 1,7,-1
 340.5 1229 l 1,8,-1
 329.5 1229 l 1,9,-1
 444.5 460 l 1,10,-1
 444.5 0 l 1,11,-1
 114.5 0 l 1,12,-1
 114.5 1293 l 1,13,-1
 83.5 1536 l 1,14,-1
 431.5 1556 l 1,15,-1
 626.5 1105 l 1,16,-1
 679.5 819 l 1,17,-1
 729.5 1108 l 1,18,-1
 903.5 1536 l 1,19,-1
 1247.5 1556 l 1,20,-1
 1247.5 0 l 1,21,-1
 916.5 0 l 1,0,-1
EndSplineSet
EndChar

StartChar: N
Encoding: 78 78 50
Width: 1331
GlyphClass: 1
Flags: W
LayerCount: 2
Fore
SplineSet
921 0 m 1,0,-1
 426 973 l 1,1,-1
 415 973 l 1,2,-1
 479 665 l 1,3,-1
 479 0 l 1,4,-1
 148 0 l 1,5,-1
 148 1293 l 1,6,-1
 114 1536 l 1,7,-1
 448 1556 l 1,8,-1
 938 614 l 1,9,-1
 948 614 l 1,10,-1
 887 872 l 1,11,-1
 887 1536 l 1,12,-1
 1217 1556 l 1,13,-1
 1217 0 l 1,14,-1
 921 0 l 1,0,-1
EndSplineSet
EndChar

StartChar: O
Encoding: 79 79 51
Width: 1331
GlyphClass: 1
Flags: W
LayerCount: 2
Fore
SplineSet
666.5 -17 m 0,0,1
 566.5 -17 566.5 -17 481.5 11 c 128,-1,2
 396.5 39 396.5 39 328.5 90.5 c 128,-1,3
 260.5 142 260.5 142 209 214 c 128,-1,4
 157.5 286 157.5 286 122.5 373.5 c 128,-1,5
 87.5 461 87.5 461 70 560.5 c 128,-1,6
 52.5 660 52.5 660 52.5 768 c 0,7,8
 52.5 929 52.5 929 90.5 1072 c 128,-1,9
 128.5 1215 128.5 1215 205 1321.5 c 128,-1,10
 281.5 1428 281.5 1428 396.5 1490.5 c 128,-1,11
 511.5 1553 511.5 1553 666.5 1553 c 0,12,13
 817.5 1553 817.5 1553 931 1490.5 c 128,-1,14
 1044.5 1428 1044.5 1428 1122 1321.5 c 128,-1,15
 1199.5 1215 1199.5 1215 1239 1072 c 128,-1,16
 1278.5 929 1278.5 929 1278.5 768 c 0,17,18
 1278.5 660 1278.5 660 1261.5 560.5 c 128,-1,19
 1244.5 461 1244.5 461 1211 373.5 c 128,-1,20
 1177.5 286 1177.5 286 1126.5 214 c 128,-1,21
 1075.5 142 1075.5 142 1007.5 90.5 c 128,-1,22
 939.5 39 939.5 39 854 11 c 128,-1,23
 768.5 -17 768.5 -17 666.5 -17 c 0,0,1
920.5 738 m 0,24,25
 920.5 801 920.5 801 916.5 868 c 128,-1,26
 912.5 935 912.5 935 903 998 c 128,-1,27
 893.5 1061 893.5 1061 875.5 1116.5 c 128,-1,28
 857.5 1172 857.5 1172 828.5 1214 c 128,-1,29
 799.5 1256 799.5 1256 758 1280.5 c 128,-1,30
 716.5 1305 716.5 1305 659.5 1305 c 0,31,32
 606.5 1305 606.5 1305 567.5 1283 c 128,-1,33
 528.5 1261 528.5 1261 501 1223.5 c 128,-1,34
 473.5 1186 473.5 1186 455.5 1136 c 128,-1,35
 437.5 1086 437.5 1086 428 1030.5 c 128,-1,36
 418.5 975 418.5 975 415 916 c 128,-1,37
 411.5 857 411.5 857 411.5 802 c 0,38,39
 411.5 737 411.5 737 415 670 c 128,-1,40
 418.5 603 418.5 603 428.5 539.5 c 128,-1,41
 438.5 476 438.5 476 456.5 420.5 c 128,-1,42
 474.5 365 474.5 365 503 323 c 128,-1,43
 531.5 281 531.5 281 573 256 c 128,-1,44
 614.5 231 614.5 231 671.5 231 c 0,45,46
 724.5 231 724.5 231 763.5 253 c 128,-1,47
 802.5 275 802.5 275 830 313.5 c 128,-1,48
 857.5 352 857.5 352 875 402.5 c 128,-1,49
 892.5 453 892.5 453 902.5 509 c 128,-1,50
 912.5 565 912.5 565 916.5 624 c 128,-1,51
 920.5 683 920.5 683 920.5 738 c 0,24,25
EndSplineSet
EndChar

StartChar: P
Encoding: 80 80 52
Width: 1331
GlyphClass: 1
Flags: W
LayerCount: 2
Fore
SplineSet
485 0 m 1,0,-1
 145 0 l 1,1,-1
 145 1292 l 1,2,3
 141 1316 141 1316 136 1345.5 c 128,-1,4
 131 1375 131 1375 125.5 1406 c 128,-1,5
 120 1437 120 1437 115 1466.5 c 128,-1,6
 110 1496 110 1496 106 1520 c 1,7,8
 152 1527 152 1527 206.5 1533 c 128,-1,9
 261 1539 261 1539 315.5 1543.5 c 128,-1,10
 370 1548 370 1548 421.5 1550.5 c 128,-1,11
 473 1553 473 1553 511 1553 c 0,12,13
 696 1553 696 1553 831 1520 c 128,-1,14
 966 1487 966 1487 1053.5 1427.5 c 128,-1,15
 1141 1368 1141 1368 1183 1286 c 128,-1,16
 1225 1204 1225 1204 1225 1107 c 0,17,18
 1225 973 1225 973 1178.5 877.5 c 128,-1,19
 1132 782 1132 782 1039.5 721 c 128,-1,20
 947 660 947 660 808 630.5 c 128,-1,21
 669 601 669 601 485 597 c 1,22,-1
 485 0 l 1,0,-1
485 1148 m 1,23,-1
 485 833 l 1,24,25
 591 837 591 837 667 852.5 c 128,-1,26
 743 868 743 868 791 899.5 c 128,-1,27
 839 931 839 931 861.5 981 c 128,-1,28
 884 1031 884 1031 884 1104 c 0,29,30
 884 1159 884 1159 853.5 1200.5 c 128,-1,31
 823 1242 823 1242 775.5 1269 c 128,-1,32
 728 1296 728 1296 669.5 1309.5 c 128,-1,33
 611 1323 611 1323 556 1323 c 2,34,-1
 531 1323 l 2,35,36
 521 1323 521 1323 511.5 1322.5 c 128,-1,37
 502 1322 502 1322 492 1321.5 c 128,-1,38
 482 1321 482 1321 468 1320 c 1,39,-1
 485 1148 l 1,23,-1
EndSplineSet
EndChar

StartChar: Q
Encoding: 81 81 53
Width: 1331
GlyphClass: 1
Flags: W
LayerCount: 2
Fore
SplineSet
1229.5 -184 m 1,0,1
 1131.5 -184 1131.5 -184 1058.5 -173.5 c 128,-1,2
 985.5 -163 985.5 -163 926.5 -132 c 128,-1,3
 867.5 -101 867.5 -101 818 -45 c 128,-1,4
 768.5 11 768.5 11 717.5 102 c 1,5,-1
 717.5 -11 l 1,6,7
 665.5 -17 665.5 -17 616.5 -17 c 0,8,9
 476.5 -17 476.5 -17 371 48 c 128,-1,10
 265.5 113 265.5 113 195 222 c 128,-1,11
 124.5 331 124.5 331 88.5 472.5 c 128,-1,12
 52.5 614 52.5 614 52.5 768 c 0,13,14
 52.5 929 52.5 929 90.5 1072 c 128,-1,15
 128.5 1215 128.5 1215 205 1321.5 c 128,-1,16
 281.5 1428 281.5 1428 396.5 1490.5 c 128,-1,17
 511.5 1553 511.5 1553 666.5 1553 c 0,18,19
 817.5 1553 817.5 1553 931 1496 c 128,-1,20
 1044.5 1439 1044.5 1439 1122 1338 c 128,-1,21
 1199.5 1237 1199.5 1237 1239 1099 c 128,-1,22
 1278.5 961 1278.5 961 1278.5 799 c 0,23,24
 1278.5 705 1278.5 705 1262 607 c 128,-1,25
 1245.5 509 1245.5 509 1213 420 c 128,-1,26
 1180.5 331 1180.5 331 1130.5 255.5 c 128,-1,27
 1080.5 180 1080.5 180 1014.5 130 c 1,28,29
 1032.5 99 1032.5 99 1058 83 c 128,-1,30
 1083.5 67 1083.5 67 1112.5 60 c 128,-1,31
 1141.5 53 1141.5 53 1171.5 52 c 128,-1,32
 1201.5 51 1201.5 51 1229.5 51 c 1,33,-1
 1229.5 -184 l 1,0,1
402.5 802 m 0,34,35
 403.5 741 403.5 741 406 675.5 c 128,-1,36
 408.5 610 408.5 610 416 548 c 128,-1,37
 423.5 486 423.5 486 438.5 431 c 128,-1,38
 453.5 376 453.5 376 480 334.5 c 128,-1,39
 506.5 293 506.5 293 547.5 269 c 128,-1,40
 588.5 245 588.5 245 647.5 245 c 1,41,42
 635.5 268 635.5 268 615.5 305 c 2,43,-1
 577.5 383 l 2,44,45
 558.5 423 558.5 423 540.5 458.5 c 128,-1,46
 522.5 494 522.5 494 512.5 512 c 1,47,-1
 744.5 615 l 1,48,-1
 898.5 307 l 1,49,-1
 898.5 512 l 1,50,51
 908.5 561 908.5 561 918.5 623.5 c 128,-1,52
 928.5 686 928.5 686 928.5 769 c 0,53,54
 928.5 832 928.5 832 923.5 897 c 128,-1,55
 918.5 962 918.5 962 906.5 1021.5 c 128,-1,56
 894.5 1081 894.5 1081 874.5 1134 c 128,-1,57
 854.5 1187 854.5 1187 825 1226 c 128,-1,58
 795.5 1265 795.5 1265 754.5 1287.5 c 128,-1,59
 713.5 1310 713.5 1310 659.5 1310 c 0,60,61
 609.5 1310 609.5 1310 570.5 1288 c 128,-1,62
 531.5 1266 531.5 1266 503 1228 c 128,-1,63
 474.5 1190 474.5 1190 455.5 1139.5 c 128,-1,64
 436.5 1089 436.5 1089 425 1032.5 c 128,-1,65
 413.5 976 413.5 976 408 916.5 c 128,-1,66
 402.5 857 402.5 857 402.5 802 c 0,34,35
EndSplineSet
EndChar

StartChar: R
Encoding: 82 82 54
Width: 1331
GlyphClass: 1
Flags: W
LayerCount: 2
Fore
SplineSet
467 614 m 1,0,-1
 467 0 l 1,1,-1
 134 0 l 1,2,-1
 134 1292 l 1,3,-1
 95 1524 l 1,4,5
 187 1534 187 1534 289 1543.5 c 128,-1,6
 391 1553 391 1553 483 1553 c 0,7,8
 622 1553 622 1553 740.5 1524 c 128,-1,9
 859 1495 859 1495 945.5 1438 c 128,-1,10
 1032 1381 1032 1381 1080.5 1297.5 c 128,-1,11
 1129 1214 1129 1214 1129 1107 c 0,12,13
 1129 1016 1129 1016 1100 940.5 c 128,-1,14
 1071 865 1071 865 1018 805.5 c 128,-1,15
 965 746 965 746 890.5 704.5 c 128,-1,16
 816 663 816 663 724 639 c 1,17,-1
 818 614 l 1,18,-1
 1236 0 l 1,19,-1
 862 0 l 1,20,-1
 467 614 l 1,0,-1
467 1148 m 1,21,-1
 467 819 l 1,22,-1
 504 819 l 2,23,24
 574 819 574 819 627.5 841 c 128,-1,25
 681 863 681 863 718 900.5 c 128,-1,26
 755 938 755 938 773.5 987.5 c 128,-1,27
 792 1037 792 1037 792 1092 c 0,28,29
 792 1164 792 1164 765.5 1209.5 c 128,-1,30
 739 1255 739 1255 697.5 1281.5 c 128,-1,31
 656 1308 656 1308 605.5 1317.5 c 128,-1,32
 555 1327 555 1327 508 1327 c 0,33,34
 492 1327 492 1327 477.5 1326.5 c 128,-1,35
 463 1326 463 1326 450 1325 c 1,36,-1
 467 1148 l 1,21,-1
EndSplineSet
EndChar

StartChar: S
Encoding: 83 83 55
Width: 1331
GlyphClass: 1
Flags: W
LayerCount: 2
Fore
SplineSet
986.5 1206 m 1,0,1
 939.5 1234 939.5 1234 901 1253 c 128,-1,2
 862.5 1272 862.5 1272 830 1283 c 128,-1,3
 797.5 1294 797.5 1294 768.5 1299.5 c 128,-1,4
 739.5 1305 739.5 1305 710.5 1305 c 0,5,6
 672.5 1305 672.5 1305 635 1297.5 c 128,-1,7
 597.5 1290 597.5 1290 568 1272.5 c 128,-1,8
 538.5 1255 538.5 1255 520 1225.5 c 128,-1,9
 501.5 1196 501.5 1196 501.5 1152 c 0,10,11
 501.5 1110 501.5 1110 522.5 1080 c 128,-1,12
 543.5 1050 543.5 1050 578 1026 c 128,-1,13
 612.5 1002 612.5 1002 656 983 c 128,-1,14
 699.5 964 699.5 964 744.5 943 c 0,15,16
 821.5 907 821.5 907 900 865.5 c 128,-1,17
 978.5 824 978.5 824 1042 768 c 128,-1,18
 1105.5 712 1105.5 712 1146 636.5 c 128,-1,19
 1186.5 561 1186.5 561 1186.5 459 c 0,20,21
 1186.5 340 1186.5 340 1137.5 251 c 128,-1,22
 1088.5 162 1088.5 162 1007 102.5 c 128,-1,23
 925.5 43 925.5 43 819.5 13 c 128,-1,24
 713.5 -17 713.5 -17 600.5 -17 c 0,25,26
 471.5 -17 471.5 -17 362.5 19 c 128,-1,27
 253.5 55 253.5 55 144.5 124 c 1,28,-1
 285.5 356 l 1,29,30
 313.5 338 313.5 338 351 317.5 c 128,-1,31
 388.5 297 388.5 297 431 280 c 128,-1,32
 473.5 263 473.5 263 516.5 252.5 c 128,-1,33
 559.5 242 559.5 242 598.5 242 c 0,34,35
 643.5 242 643.5 242 687.5 251.5 c 128,-1,36
 731.5 261 731.5 261 766 284 c 128,-1,37
 800.5 307 800.5 307 821.5 345 c 128,-1,38
 842.5 383 842.5 383 842.5 440 c 0,39,40
 842.5 495 842.5 495 817.5 535 c 128,-1,41
 792.5 575 792.5 575 752 605.5 c 128,-1,42
 711.5 636 711.5 636 660 660.5 c 128,-1,43
 608.5 685 608.5 685 556.5 710 c 0,44,45
 482.5 745 482.5 745 413 783.5 c 128,-1,46
 343.5 822 343.5 822 289 871.5 c 128,-1,47
 234.5 921 234.5 921 201 982 c 128,-1,48
 167.5 1043 167.5 1043 167.5 1123 c 0,49,50
 167.5 1226 167.5 1226 211.5 1307 c 128,-1,51
 255.5 1388 255.5 1388 328.5 1442.5 c 128,-1,52
 401.5 1497 401.5 1497 494.5 1525 c 128,-1,53
 587.5 1553 587.5 1553 685.5 1553 c 0,54,55
 806.5 1553 806.5 1553 916 1516 c 128,-1,56
 1025.5 1479 1025.5 1479 1140.5 1402 c 1,57,-1
 986.5 1206 l 1,0,1
EndSplineSet
EndChar

StartChar: T
Encoding: 84 84 56
Width: 1331
GlyphClass: 1
Flags: W
LayerCount: 2
Fore
SplineSet
497 0 m 1,0,-1
 497 1303 l 1,1,-1
 85 1303 l 1,2,-1
 85 1536 l 1,3,-1
 1246 1536 l 1,4,-1
 1246 1303 l 1,5,-1
 838 1303 l 1,6,-1
 838 0 l 1,7,-1
 497 0 l 1,0,-1
EndSplineSet
EndChar

StartChar: U
Encoding: 85 85 57
Width: 1331
GlyphClass: 1
Flags: W
LayerCount: 2
Fore
SplineSet
1212.5 1536 m 1,0,-1
 1212.5 547 l 2,1,2
 1212.5 405 1212.5 405 1174.5 299 c 128,-1,3
 1136.5 193 1136.5 193 1065 122.5 c 128,-1,4
 993.5 52 993.5 52 890.5 17.5 c 128,-1,5
 787.5 -17 787.5 -17 658.5 -17 c 0,6,7
 519.5 -17 519.5 -17 423 27 c 128,-1,8
 326.5 71 326.5 71 266.5 151.5 c 128,-1,9
 206.5 232 206.5 232 180 345.5 c 128,-1,10
 153.5 459 153.5 459 153.5 596 c 2,11,-1
 153.5 1293 l 1,12,-1
 118.5 1536 l 1,13,-1
 493.5 1556 l 1,14,-1
 493.5 578 l 2,15,16
 493.5 495 493.5 495 500 429.5 c 128,-1,17
 506.5 364 506.5 364 527.5 318.5 c 128,-1,18
 548.5 273 548.5 273 587 249.5 c 128,-1,19
 625.5 226 625.5 226 690.5 226 c 0,20,21
 741.5 226 741.5 226 776 245 c 128,-1,22
 810.5 264 810.5 264 832 302 c 128,-1,23
 853.5 340 853.5 340 863 396.5 c 128,-1,24
 872.5 453 872.5 453 872.5 528 c 2,25,-1
 872.5 1536 l 1,26,-1
 1212.5 1536 l 1,0,-1
EndSplineSet
EndChar

StartChar: V
Encoding: 86 86 58
Width: 1331
GlyphClass: 1
Flags: W
LayerCount: 2
Fore
SplineSet
1314 1536 m 1,0,-1
 891 205 l 1,1,-1
 862 -17 l 1,2,-1
 502 0 l 1,3,-1
 17 1536 l 1,4,-1
 347 1556 l 1,5,-1
 606 717 l 1,6,-1
 660 266 l 1,7,-1
 732 717 l 1,8,-1
 986 1536 l 1,9,-1
 1314 1536 l 1,0,-1
EndSplineSet
EndChar

StartChar: W
Encoding: 87 87 59
Width: 1331
GlyphClass: 1
Flags: W
LayerCount: 2
Fore
SplineSet
318.5 1556 m 1,0,-1
 434.5 982 l 1,1,-1
 442.5 410 l 1,2,-1
 452.5 410 l 1,3,-1
 496.5 718 l 1,4,-1
 549.5 1024 l 1,5,-1
 780.5 1024 l 1,6,-1
 839.5 718 l 1,7,-1
 892.5 410 l 1,8,-1
 902.5 410 l 1,9,-1
 900.5 980 l 1,10,-1
 1004.5 1536 l 1,11,-1
 1302.5 1536 l 1,12,-1
 1028.5 0 l 1,13,-1
 769.5 0 l 1,14,-1
 706.5 307 l 1,15,-1
 665.5 666 l 1,16,-1
 623.5 307 l 1,17,-1
 560.5 0 l 1,18,-1
 304.5 0 l 1,19,20
 267.5 243 267.5 243 231.5 454 c 128,-1,21
 195.5 665 195.5 665 161 852.5 c 128,-1,22
 126.5 1040 126.5 1040 93 1209 c 128,-1,23
 59.5 1378 59.5 1378 28.5 1536 c 1,24,-1
 318.5 1556 l 1,0,-1
EndSplineSet
EndChar

StartChar: X
Encoding: 88 88 60
Width: 1331
GlyphClass: 1
Flags: W
LayerCount: 2
Fore
SplineSet
942.5 0 m 1,0,-1
 623.5 597 l 1,1,-1
 601.5 410 l 1,2,-1
 368.5 0 l 1,3,-1
 16.5 0 l 1,4,-1
 488.5 816 l 1,5,6
 440.5 899 440.5 899 77.5 1536 c 1,7,-1
 433.5 1556 l 1,8,-1
 734.5 1019 l 1,9,-1
 766.5 1228 l 1,10,-1
 931.5 1536 l 1,11,-1
 1284.5 1536 l 1,12,-1
 874.5 819 l 1,13,-1
 1314.5 0 l 1,14,-1
 942.5 0 l 1,0,-1
EndSplineSet
EndChar

StartChar: Y
Encoding: 89 89 61
Width: 1331
GlyphClass: 1
Flags: W
LayerCount: 2
Fore
SplineSet
588.5 1170 m 1,0,-1
 697.5 792 l 1,1,-1
 757.5 1170 l 1,2,-1
 943.5 1536 l 1,3,-1
 1286.5 1536 l 1,4,-1
 843.5 666 l 1,5,-1
 843.5 0 l 1,6,-1
 483.5 0 l 1,7,-1
 483.5 666 l 1,8,-1
 44.5 1536 l 1,9,-1
 391.5 1556 l 1,10,-1
 588.5 1170 l 1,0,-1
EndSplineSet
EndChar

StartChar: Z
Encoding: 90 90 62
Width: 1331
GlyphClass: 1
Flags: W
LayerCount: 2
Fore
SplineSet
1187.5 233 m 1,0,-1
 1214.5 0 l 1,1,-1
 150.5 0 l 1,2,-1
 116.5 88 l 1,3,-1
 670.5 1215 l 1,4,-1
 811.5 1331 l 1,5,-1
 677.5 1303 l 1,6,-1
 208.5 1303 l 1,7,-1
 180.5 1536 l 1,8,-1
 1116.5 1536 l 1,9,-1
 1158.5 1477 l 1,10,-1
 598.5 322 l 1,11,-1
 461.5 205 l 1,12,-1
 597.5 233 l 1,13,-1
 1187.5 233 l 1,0,-1
EndSplineSet
EndChar

StartChar: bracketleft
Encoding: 91 91 63
Width: 1331
GlyphClass: 1
Flags: W
LayerCount: 2
Fore
SplineSet
334 1319 m 1,0,-1
 307 1556 l 1,1,-1
 1156 1556 l 5,2,-1
 1156 1333 l 5,3,-1
 666 1333 l 1,4,-1
 681 1182 l 1,5,-1
 681 -32 l 1,6,-1
 666 -183 l 1,7,-1
 1156 -183 l 5,8,-1
 1156 -408 l 5,9,-1
 307 -408 l 1,10,-1
 334 -170 l 1,11,-1
 334 1319 l 1,0,-1
EndSplineSet
EndChar

StartChar: backslash
Encoding: 92 92 64
Width: 1331
GlyphClass: 1
Flags: W
LayerCount: 2
Fore
SplineSet
129 1638 m 1,0,-1
 479 1638 l 1,1,-1
 1202 -102 l 1,2,-1
 841 -102 l 1,3,-1
 129 1638 l 1,0,-1
EndSplineSet
EndChar

StartChar: bracketright
Encoding: 93 93 65
Width: 1331
GlyphClass: 1
Flags: W
LayerCount: 2
Fore
SplineSet
997 -170 m 1,0,-1
 1024 -408 l 1,1,-1
 175 -408 l 5,2,-1
 175 -183 l 5,3,-1
 664 -183 l 1,4,-1
 649 -32 l 1,5,-1
 649 1182 l 1,6,-1
 664 1333 l 1,7,-1
 175 1333 l 5,8,-1
 175 1556 l 5,9,-1
 1024 1556 l 1,10,-1
 997 1319 l 1,11,-1
 997 -170 l 1,0,-1
EndSplineSet
EndChar

StartChar: asciicircum
Encoding: 94 94 66
Width: 1331
GlyphClass: 1
Flags: W
LayerCount: 2
Fore
SplineSet
1280 887 m 1,0,-1
 973 887 l 1,1,-1
 666 1229 l 1,2,-1
 358 889 l 1,3,-1
 51 889 l 1,4,-1
 547 1536 l 1,5,-1
 761 1556 l 1,6,-1
 1280 887 l 1,0,-1
EndSplineSet
EndChar

StartChar: underscore
Encoding: 95 95 67
Width: 1331
GlyphClass: 1
Flags: W
LayerCount: 2
Fore
SplineSet
102 -205 m 1,0,-1
 1229 -205 l 1,1,-1
 1229 -466 l 1,2,-1
 102 -466 l 1,3,-1
 102 -205 l 1,0,-1
EndSplineSet
EndChar

StartChar: grave
Encoding: 96 96 68
Width: 1331
GlyphClass: 1
Flags: W
LayerCount: 2
Fore
SplineSet
987.5 1163 m 5,0,-1
 766.5 1163 l 5,1,-1
 409.5 1556 l 1,2,-1
 754.5 1536 l 1,3,-1
 987.5 1163 l 5,0,-1
EndSplineSet
EndChar

StartChar: a
Encoding: 97 97 69
Width: 1331
GlyphClass: 1
Flags: W
LayerCount: 2
Fore
SplineSet
1192 0 m 1,0,-1
 844 0 l 1,1,-1
 844 102 l 1,2,-1
 758 5 l 1,3,4
 722 -6 722 -6 687 -11.5 c 128,-1,5
 652 -17 652 -17 621 -17 c 0,6,7
 536 -17 536 -17 450 8 c 128,-1,8
 364 33 364 33 295 81.5 c 128,-1,9
 226 130 226 130 182.5 201.5 c 128,-1,10
 139 273 139 273 139 367 c 0,11,12
 139 465 139 465 183 536.5 c 128,-1,13
 227 608 227 608 299 654.5 c 128,-1,14
 371 701 371 701 462 723.5 c 128,-1,15
 553 746 553 746 648 746 c 0,16,17
 706 746 706 746 754.5 742.5 c 128,-1,18
 803 739 803 739 844 732 c 1,19,20
 840 819 840 819 800 870.5 c 128,-1,21
 760 922 760 922 677 922 c 0,22,23
 632 922 632 922 586.5 916.5 c 128,-1,24
 541 911 541 911 499 902 c 128,-1,25
 457 893 457 893 420.5 881.5 c 128,-1,26
 384 870 384 870 357 858 c 1,27,-1
 260 1048 l 1,28,29
 307 1070 307 1070 351 1087.5 c 128,-1,30
 395 1105 395 1105 443.5 1117.5 c 128,-1,31
 492 1130 492 1130 550.5 1137 c 128,-1,32
 609 1144 609 1144 687 1144 c 0,33,34
 818 1144 818 1144 910 1111.5 c 128,-1,35
 1002 1079 1002 1079 1059 1020.5 c 128,-1,36
 1116 962 1116 962 1142.5 879.5 c 128,-1,37
 1169 797 1169 797 1169 697 c 2,38,-1
 1169 205 l 1,39,-1
 1192 0 l 1,0,-1
844 512 m 1,40,41
 829 513 829 513 808.5 514 c 128,-1,42
 788 515 788 515 766.5 515.5 c 128,-1,43
 745 516 745 516 724 516.5 c 128,-1,44
 703 517 703 517 687 517 c 0,45,46
 648 517 648 517 610 510 c 128,-1,47
 572 503 572 503 542 485.5 c 128,-1,48
 512 468 512 468 493.5 439.5 c 128,-1,49
 475 411 475 411 475 368 c 0,50,51
 475 333 475 333 488 304.5 c 128,-1,52
 501 276 501 276 522.5 256 c 128,-1,53
 544 236 544 236 571.5 224.5 c 128,-1,54
 599 213 599 213 629 213 c 0,55,56
 687 213 687 213 740.5 238.5 c 128,-1,57
 794 264 794 264 844 307 c 1,58,-1
 844 512 l 1,40,41
EndSplineSet
EndChar

StartChar: b
Encoding: 98 98 70
Width: 1331
GlyphClass: 1
Flags: W
LayerCount: 2
Fore
SplineSet
505 217 m 1,0,1
 535 212 535 212 568.5 208.5 c 128,-1,2
 602 205 602 205 633 205 c 0,3,4
 698 205 698 205 739 243.5 c 128,-1,5
 780 282 780 282 804.5 341.5 c 128,-1,6
 829 401 829 401 838.5 473.5 c 128,-1,7
 848 546 848 546 848 612 c 0,8,9
 848 696 848 696 835.5 755 c 128,-1,10
 823 814 823 814 803.5 851 c 128,-1,11
 784 888 784 888 756.5 905 c 128,-1,12
 729 922 729 922 701 922 c 0,13,14
 639 922 639 922 591.5 900.5 c 128,-1,15
 544 879 544 879 505 846 c 1,16,-1
 505 217 l 1,0,1
170 1432 m 1,17,-1
 148 1639 l 1,18,-1
 505 1671 l 1,19,-1
 505 997 l 1,20,-1
 604 1122 l 1,21,22
 634 1130 634 1130 667.5 1137 c 128,-1,23
 701 1144 701 1144 729 1144 c 0,24,25
 822 1144 822 1144 905 1108.5 c 128,-1,26
 988 1073 988 1073 1049.5 1005 c 128,-1,27
 1111 937 1111 937 1147 836.5 c 128,-1,28
 1183 736 1183 736 1183 607 c 0,29,30
 1183 467 1183 467 1141 352 c 128,-1,31
 1099 237 1099 237 1024.5 155 c 128,-1,32
 950 73 950 73 847.5 28.5 c 128,-1,33
 745 -16 745 -16 624 -16 c 0,34,35
 559 -16 559 -16 491.5 -9.5 c 128,-1,36
 424 -3 424 -3 363 7 c 128,-1,37
 302 17 302 17 251.5 30 c 128,-1,38
 201 43 201 43 170 55 c 1,39,-1
 170 1432 l 1,17,-1
EndSplineSet
EndChar

StartChar: c
Encoding: 99 99 71
Width: 1331
GlyphClass: 1
Flags: W
LayerCount: 2
Fore
SplineSet
1023.5 791 m 1,0,1
 974.5 849 974.5 849 914.5 875.5 c 128,-1,2
 854.5 902 854.5 902 776.5 902 c 0,3,4
 714.5 902 714.5 902 660 875 c 128,-1,5
 605.5 848 605.5 848 565.5 802 c 128,-1,6
 525.5 756 525.5 756 502 695 c 128,-1,7
 478.5 634 478.5 634 478.5 566 c 0,8,9
 478.5 495 478.5 495 503 435.5 c 128,-1,10
 527.5 376 527.5 376 568.5 333 c 128,-1,11
 609.5 290 609.5 290 663 266 c 128,-1,12
 716.5 242 716.5 242 776.5 242 c 0,13,14
 829.5 242 829.5 242 873.5 251.5 c 128,-1,15
 917.5 261 917.5 261 951.5 278 c 128,-1,16
 985.5 295 985.5 295 1012 316.5 c 128,-1,17
 1038.5 338 1038.5 338 1056.5 361 c 1,18,-1
 1183.5 140 l 1,19,20
 1165.5 124 1165.5 124 1129 97.5 c 128,-1,21
 1092.5 71 1092.5 71 1038 45 c 128,-1,22
 983.5 19 983.5 19 910 1 c 128,-1,23
 836.5 -17 836.5 -17 743.5 -17 c 0,24,25
 607.5 -17 607.5 -17 496 32 c 128,-1,26
 384.5 81 384.5 81 306 163 c 128,-1,27
 227.5 245 227.5 245 184.5 353 c 128,-1,28
 141.5 461 141.5 461 141.5 579 c 0,29,30
 141.5 685 141.5 685 182.5 787 c 128,-1,31
 223.5 889 223.5 889 302 968.5 c 128,-1,32
 380.5 1048 380.5 1048 493 1096 c 128,-1,33
 605.5 1144 605.5 1144 747.5 1144 c 0,34,35
 885.5 1144 885.5 1144 997.5 1105.5 c 128,-1,36
 1109.5 1067 1109.5 1067 1189.5 980 c 1,37,-1
 1023.5 791 l 1,0,1
EndSplineSet
EndChar

StartChar: d
Encoding: 100 100 72
Width: 1331
GlyphClass: 1
Flags: W
LayerCount: 2
Fore
SplineSet
820.5 922 m 1,0,-1
 750.5 922 l 2,1,2
 682.5 922 682.5 922 632.5 890 c 128,-1,3
 582.5 858 582.5 858 550 804 c 128,-1,4
 517.5 750 517.5 750 501.5 678 c 128,-1,5
 485.5 606 485.5 606 485.5 527 c 0,6,7
 485.5 451 485.5 451 498 392 c 128,-1,8
 510.5 333 510.5 333 532 291 c 128,-1,9
 553.5 249 553.5 249 583.5 227 c 128,-1,10
 613.5 205 613.5 205 649.5 205 c 0,11,12
 686.5 205 686.5 205 714 215.5 c 128,-1,13
 741.5 226 741.5 226 762 243 c 128,-1,14
 782.5 260 782.5 260 797 281.5 c 128,-1,15
 811.5 303 811.5 303 820.5 324 c 1,16,-1
 820.5 922 l 1,0,-1
820.5 0 m 1,17,-1
 820.5 166 l 1,18,-1
 692.5 -10 l 1,19,20
 684.5 -12 684.5 -12 677.5 -13.5 c 128,-1,21
 670.5 -15 670.5 -15 660.5 -15.5 c 128,-1,22
 650.5 -16 650.5 -16 637 -16.5 c 128,-1,23
 623.5 -17 623.5 -17 601.5 -17 c 0,24,25
 507.5 -17 507.5 -17 425.5 24.5 c 128,-1,26
 343.5 66 343.5 66 283 140.5 c 128,-1,27
 222.5 215 222.5 215 188 317 c 128,-1,28
 153.5 419 153.5 419 153.5 541 c 256,29,30
 153.5 663 153.5 663 195.5 770 c 128,-1,31
 237.5 877 237.5 877 315 956 c 128,-1,32
 392.5 1035 392.5 1035 502.5 1080.5 c 128,-1,33
 612.5 1126 612.5 1126 749.5 1126 c 2,34,-1
 820.5 1126 l 1,35,-1
 820.5 1671 l 1,36,-1
 1154.5 1638 l 1,37,-1
 1154.5 214 l 1,38,-1
 1177.5 0 l 1,39,-1
 820.5 0 l 1,17,-1
EndSplineSet
EndChar

StartChar: e
Encoding: 101 101 73
Width: 1331
GlyphClass: 1
Flags: W
LayerCount: 2
Fore
SplineSet
1197 162 m 1,0,1
 1156 124 1156 124 1108.5 91.5 c 128,-1,2
 1061 59 1061 59 1004 35 c 128,-1,3
 947 11 947 11 877 -2.5 c 128,-1,4
 807 -16 807 -16 723 -16 c 0,5,6
 576 -16 576 -16 464 32 c 128,-1,7
 352 80 352 80 276 160.5 c 128,-1,8
 200 241 200 241 161.5 345.5 c 128,-1,9
 123 450 123 450 123 563 c 0,10,11
 123 636 123 636 140.5 707 c 128,-1,12
 158 778 158 778 192 842 c 128,-1,13
 226 906 226 906 274.5 961.5 c 128,-1,14
 323 1017 323 1017 386 1057 c 128,-1,15
 449 1097 449 1097 525.5 1120 c 128,-1,16
 602 1143 602 1143 690 1143 c 0,17,18
 813 1143 813 1143 909 1106.5 c 128,-1,19
 1005 1070 1005 1070 1071.5 1005 c 128,-1,20
 1138 940 1138 940 1173 849 c 128,-1,21
 1208 758 1208 758 1208 647 c 0,22,23
 1208 619 1208 619 1204.5 574 c 128,-1,24
 1201 529 1201 529 1196 477 c 1,25,-1
 431 477 l 1,26,27
 433 422 433 422 461.5 372.5 c 128,-1,28
 490 323 490 323 534.5 286 c 128,-1,29
 579 249 579 249 634 227 c 128,-1,30
 689 205 689 205 744 205 c 0,31,32
 796 205 796 205 844.5 216 c 128,-1,33
 893 227 893 227 932.5 243.5 c 128,-1,34
 972 260 972 260 1001.5 277.5 c 128,-1,35
 1031 295 1031 295 1045 307 c 1,36,-1
 1197 162 l 1,0,1
907 688 m 1,37,38
 907 735 907 735 893 777 c 128,-1,39
 879 819 879 819 852.5 851.5 c 128,-1,40
 826 884 826 884 786 903 c 128,-1,41
 746 922 746 922 694 922 c 256,42,43
 642 922 642 922 603 906.5 c 128,-1,44
 564 891 564 891 536 868 c 128,-1,45
 508 845 508 845 491 819.5 c 128,-1,46
 474 794 474 794 465 774 c 1,47,-1
 372 669 l 1,48,-1
 549 687 l 1,49,-1
 907 688 l 1,37,38
EndSplineSet
EndChar

StartChar: f
Encoding: 102 102 74
Width: 1331
GlyphClass: 1
Flags: W
LayerCount: 2
Fore
SplineSet
117.5 1126 m 1,0,-1
 343.5 1126 l 1,1,-1
 343.5 1236 l 2,2,3
 343.5 1326 343.5 1326 381.5 1400 c 128,-1,4
 419.5 1474 419.5 1474 486 1527 c 128,-1,5
 552.5 1580 552.5 1580 640.5 1609 c 128,-1,6
 728.5 1638 728.5 1638 828.5 1638 c 0,7,8
 894.5 1638 894.5 1638 951 1627.5 c 128,-1,9
 1007.5 1617 1007.5 1617 1056 1600 c 128,-1,10
 1104.5 1583 1104.5 1583 1143.5 1562.5 c 128,-1,11
 1182.5 1542 1182.5 1542 1213.5 1522 c 1,12,-1
 1077.5 1331 l 1,13,14
 1062.5 1341 1062.5 1341 1039 1354.5 c 128,-1,15
 1015.5 1368 1015.5 1368 987 1380.5 c 128,-1,16
 958.5 1393 958.5 1393 926.5 1401 c 128,-1,17
 894.5 1409 894.5 1409 859.5 1409 c 0,18,19
 829.5 1409 829.5 1409 797 1397 c 128,-1,20
 764.5 1385 764.5 1385 736.5 1362 c 128,-1,21
 708.5 1339 708.5 1339 690.5 1305 c 128,-1,22
 672.5 1271 672.5 1271 672.5 1227 c 2,23,-1
 672.5 1126 l 1,24,-1
 1104.5 1126 l 1,25,-1
 1076.5 897 l 1,26,-1
 678.5 897 l 1,27,-1
 678.5 0 l 1,28,-1
 343.5 0 l 1,29,-1
 343.5 897 l 1,30,-1
 117.5 897 l 1,31,-1
 117.5 1126 l 1,0,-1
EndSplineSet
EndChar

StartChar: g
Encoding: 103 103 75
Width: 1331
GlyphClass: 1
Flags: W
LayerCount: 2
Fore
SplineSet
859 16 m 1,0,1
 826 2 826 2 776.5 -7.5 c 128,-1,2
 727 -17 727 -17 667 -17 c 0,3,4
 598 -17 598 -17 532.5 3.5 c 128,-1,5
 467 24 467 24 408 61.5 c 128,-1,6
 349 99 349 99 300 152 c 128,-1,7
 251 205 251 205 215 269 c 128,-1,8
 179 333 179 333 159 406 c 128,-1,9
 139 479 139 479 139 558 c 0,10,11
 139 678 139 678 179 784.5 c 128,-1,12
 219 891 219 891 293.5 971 c 128,-1,13
 368 1051 368 1051 473.5 1097.5 c 128,-1,14
 579 1144 579 1144 711 1144 c 0,15,16
 729 1144 729 1144 741.5 1143.5 c 128,-1,17
 754 1143 754 1143 765 1141 c 1,18,-1
 858 981 l 1,19,-1
 858 1147 l 1,20,-1
 1192 1126 l 1,21,-1
 1192 -42 l 2,22,23
 1192 -143 1192 -143 1153 -232 c 128,-1,24
 1114 -321 1114 -321 1042 -387 c 128,-1,25
 970 -453 970 -453 868.5 -491 c 128,-1,26
 767 -529 767 -529 640 -529 c 0,27,28
 573 -529 573 -529 517.5 -518.5 c 128,-1,29
 462 -508 462 -508 413.5 -487.5 c 128,-1,30
 365 -467 365 -467 323 -437 c 128,-1,31
 281 -407 281 -407 241 -368 c 1,32,-1
 389 -197 l 1,33,34
 405 -211 405 -211 431.5 -229 c 128,-1,35
 458 -247 458 -247 490.5 -263 c 128,-1,36
 523 -279 523 -279 559.5 -289.5 c 128,-1,37
 596 -300 596 -300 631 -300 c 0,38,39
 674 -300 674 -300 715 -279 c 128,-1,40
 756 -258 756 -258 788 -221 c 128,-1,41
 820 -184 820 -184 839.5 -134.5 c 128,-1,42
 859 -85 859 -85 859 -28 c 2,43,-1
 859 16 l 1,0,1
858 840 m 1,44,45
 829 873 829 873 790.5 897.5 c 128,-1,46
 752 922 752 922 706 922 c 0,47,48
 645 922 645 922 601 885 c 128,-1,49
 557 848 557 848 528.5 792 c 128,-1,50
 500 736 500 736 487 670.5 c 128,-1,51
 474 605 474 605 474 547 c 0,52,53
 474 474 474 474 492.5 411.5 c 128,-1,54
 511 349 511 349 540.5 303 c 128,-1,55
 570 257 570 257 607.5 231 c 128,-1,56
 645 205 645 205 683 205 c 0,57,58
 743 205 743 205 784 230.5 c 128,-1,59
 825 256 825 256 858 294 c 1,60,-1
 858 840 l 1,44,45
EndSplineSet
EndChar

StartChar: h
Encoding: 104 104 76
Width: 1331
GlyphClass: 1
Flags: W
LayerCount: 2
Fore
SplineSet
505.5 0 m 1,0,-1
 180.5 0 l 1,1,-1
 180.5 1371 l 1,2,-1
 158.5 1606 l 1,3,-1
 505.5 1638 l 1,4,-1
 505.5 1024 l 1,5,-1
 584.5 1126 l 1,6,7
 630.5 1136 630.5 1136 682.5 1139.5 c 128,-1,8
 734.5 1143 734.5 1143 800.5 1143 c 0,9,10
 982.5 1143 982.5 1143 1077.5 1038.5 c 128,-1,11
 1172.5 934 1172.5 934 1172.5 735 c 2,12,-1
 1172.5 0 l 1,13,-1
 838.5 0 l 1,14,-1
 838.5 715 l 2,15,16
 838.5 768 838.5 768 826 806 c 128,-1,17
 813.5 844 813.5 844 794.5 868 c 128,-1,18
 775.5 892 775.5 892 751.5 902.5 c 128,-1,19
 727.5 913 727.5 913 705.5 913 c 0,20,21
 662.5 913 662.5 913 631.5 905.5 c 128,-1,22
 600.5 898 600.5 898 578 885.5 c 128,-1,23
 555.5 873 555.5 873 538.5 858 c 128,-1,24
 521.5 843 521.5 843 505.5 827 c 1,25,-1
 505.5 0 l 1,0,-1
EndSplineSet
EndChar

StartChar: i
Encoding: 105 105 77
Width: 1331
GlyphClass: 1
Flags: W
LayerCount: 2
Fore
SplineSet
432.5 1537 m 1,0,-1
 777.5 1537 l 1,1,-1
 777.5 1270 l 1,2,-1
 432.5 1270 l 1,3,-1
 432.5 1537 l 1,0,-1
513.5 938 m 1,4,-1
 339.5 897 l 1,5,-1
 160.5 897 l 1,6,-1
 131.5 1126 l 1,7,-1
 776.5 1126 l 1,8,-1
 776.5 433 l 2,9,10
 776.5 391 776.5 391 786.5 356 c 128,-1,11
 796.5 321 796.5 321 815 295.5 c 128,-1,12
 833.5 270 833.5 270 859.5 256 c 128,-1,13
 885.5 242 885.5 242 915.5 242 c 0,14,15
 983.5 242 983.5 242 1034.5 264.5 c 128,-1,16
 1085.5 287 1085.5 287 1138.5 338 c 1,17,-1
 1199.5 100 l 1,18,19
 1185.5 89 1185.5 89 1164 69.5 c 128,-1,20
 1142.5 50 1142.5 50 1107 30.5 c 128,-1,21
 1071.5 11 1071.5 11 1020 -3 c 128,-1,22
 968.5 -17 968.5 -17 896.5 -17 c 0,23,24
 778.5 -17 778.5 -17 693 19.5 c 128,-1,25
 607.5 56 607.5 56 551.5 119 c 128,-1,26
 495.5 182 495.5 182 468.5 265.5 c 128,-1,27
 441.5 349 441.5 349 441.5 442 c 2,28,-1
 441.5 846 l 1,29,-1
 513.5 938 l 1,4,-1
EndSplineSet
EndChar

StartChar: j
Encoding: 106 106 78
Width: 1331
GlyphClass: 1
Flags: W
LayerCount: 2
Fore
SplineSet
702 1537 m 1,0,-1
 1047 1537 l 1,1,-1
 1047 1270 l 1,2,-1
 702 1270 l 1,3,-1
 702 1537 l 1,0,-1
779 938 m 1,4,-1
 605 897 l 1,5,-1
 426 897 l 1,6,-1
 397 1126 l 1,7,-1
 1042 1126 l 1,8,-1
 1042 -70 l 2,9,10
 1042 -163 1042 -163 1015 -246.5 c 128,-1,11
 988 -330 988 -330 932 -393 c 128,-1,12
 876 -456 876 -456 790.5 -492.5 c 128,-1,13
 705 -529 705 -529 588 -529 c 0,14,15
 515 -529 515 -529 463.5 -515 c 128,-1,16
 412 -501 412 -501 377 -482 c 128,-1,17
 342 -463 342 -463 320 -443 c 128,-1,18
 298 -423 298 -423 284 -412 c 1,19,-1
 345 -174 l 1,20,21
 398 -225 398 -225 449.5 -247.5 c 128,-1,22
 501 -270 501 -270 568 -270 c 0,23,24
 599 -270 599 -270 624.5 -256 c 128,-1,25
 650 -242 650 -242 668.5 -216.5 c 128,-1,26
 687 -191 687 -191 697 -156 c 128,-1,27
 707 -121 707 -121 707 -79 c 2,28,-1
 707 846 l 1,29,-1
 779 938 l 1,4,-1
EndSplineSet
EndChar

StartChar: k
Encoding: 107 107 79
Width: 1331
GlyphClass: 1
Flags: W
LayerCount: 2
Fore
SplineSet
157.5 0 m 1,0,-1
 157.5 1431 l 1,1,-1
 135.5 1638 l 1,2,-1
 471.5 1670 l 1,3,-1
 471.5 787 l 1,4,-1
 742.5 1126 l 1,5,-1
 1091.5 1126 l 1,6,-1
 721.5 717 l 1,7,-1
 512.5 642 l 1,8,-1
 705.5 578 l 1,9,-1
 1195.5 0 l 1,10,-1
 838.5 0 l 1,11,-1
 471.5 469 l 1,12,-1
 471.5 0 l 1,13,-1
 157.5 0 l 1,0,-1
EndSplineSet
EndChar

StartChar: l
Encoding: 108 108 80
Width: 1331
GlyphClass: 1
Flags: W
LayerCount: 2
Fore
SplineSet
533 1415 m 1,0,-1
 359 1374 l 1,1,-1
 179 1374 l 1,2,-1
 151 1604 l 1,3,-1
 786 1604 l 1,4,-1
 786 397 l 2,5,6
 786 345 786 345 796 309.5 c 128,-1,7
 806 274 806 274 823 252.5 c 128,-1,8
 840 231 840 231 861.5 222 c 128,-1,9
 883 213 883 213 905 213 c 0,10,11
 934 213 934 213 957.5 221.5 c 128,-1,12
 981 230 981 230 1001.5 243.5 c 128,-1,13
 1022 257 1022 257 1039 274 c 128,-1,14
 1056 291 1056 291 1069 307 c 1,15,-1
 1180 110 l 1,16,17
 1169 101 1169 101 1148.5 79.5 c 128,-1,18
 1128 58 1128 58 1093.5 36.5 c 128,-1,19
 1059 15 1059 15 1008.5 -1 c 128,-1,20
 958 -17 958 -17 886 -17 c 0,21,22
 775 -17 775 -17 695.5 17.5 c 128,-1,23
 616 52 616 52 563.5 111.5 c 128,-1,24
 511 171 511 171 486 251 c 128,-1,25
 461 331 461 331 461 420 c 2,26,-1
 461 1323 l 1,27,-1
 533 1415 l 1,0,-1
EndSplineSet
EndChar

StartChar: m
Encoding: 109 109 81
Width: 1331
GlyphClass: 1
Flags: W
LayerCount: 2
Fore
SplineSet
370 0 m 1,0,-1
 47 0 l 1,1,-1
 47 1126 l 1,2,-1
 370 1147 l 1,3,-1
 370 1024 l 1,4,-1
 449 1126 l 1,5,6
 459 1132 459 1132 485 1138 c 128,-1,7
 511 1144 511 1144 531 1144 c 0,8,9
 581 1144 581 1144 616 1140.5 c 128,-1,10
 651 1137 651 1137 678 1127.5 c 128,-1,11
 705 1118 705 1118 725 1102.5 c 128,-1,12
 745 1087 745 1087 764 1064 c 1,13,14
 783 1077 783 1077 810.5 1091 c 128,-1,15
 838 1105 838 1105 868 1116.5 c 128,-1,16
 898 1128 898 1128 930.5 1136 c 128,-1,17
 963 1144 963 1144 994 1144 c 0,18,19
 1093 1144 1093 1144 1150.5 1116.5 c 128,-1,20
 1208 1089 1208 1089 1238 1038 c 128,-1,21
 1268 987 1268 987 1276 915 c 128,-1,22
 1284 843 1284 843 1284 754 c 2,23,-1
 1284 0 l 1,24,-1
 962 0 l 1,25,-1
 962 744 l 2,26,27
 962 785 962 785 961 816 c 128,-1,28
 960 847 960 847 955 867 c 128,-1,29
 950 887 950 887 940.5 896.5 c 128,-1,30
 931 906 931 906 912 906 c 0,31,32
 895 906 895 906 879 899 c 128,-1,33
 863 892 863 892 850.5 879.5 c 128,-1,34
 838 867 838 867 829 851.5 c 128,-1,35
 820 836 820 836 818 817 c 2,36,-1
 818 797 l 2,37,38
 818 785 818 785 818.5 772 c 128,-1,39
 819 759 819 759 819 748 c 2,40,-1
 819 0 l 1,41,-1
 508 0 l 1,42,-1
 508 725 l 2,43,44
 508 812 508 812 499.5 859 c 128,-1,45
 491 906 491 906 459 906 c 0,46,47
 429 906 429 906 404 886.5 c 128,-1,48
 379 867 379 867 370 823 c 1,49,-1
 370 0 l 1,0,-1
EndSplineSet
EndChar

StartChar: n
Encoding: 110 110 82
Width: 1331
GlyphClass: 1
Flags: W
LayerCount: 2
Fore
SplineSet
494 0 m 1,0,-1
 169 0 l 1,1,-1
 169 1126 l 1,2,-1
 494 1147 l 1,3,-1
 494 1024 l 1,4,-1
 573 1126 l 1,5,6
 612 1136 612 1136 656.5 1140 c 128,-1,7
 701 1144 701 1144 760 1144 c 0,8,9
 853 1144 853 1144 928 1116.5 c 128,-1,10
 1003 1089 1003 1089 1054.5 1038 c 128,-1,11
 1106 987 1106 987 1134 915 c 128,-1,12
 1162 843 1162 843 1162 754 c 2,13,-1
 1162 0 l 1,14,-1
 837 0 l 1,15,-1
 837 754 l 2,16,17
 837 796 837 796 824.5 826 c 128,-1,18
 812 856 812 856 791.5 875.5 c 128,-1,19
 771 895 771 895 744 904 c 128,-1,20
 717 913 717 913 689 913 c 0,21,22
 624 913 624 913 579.5 892 c 128,-1,23
 535 871 535 871 494 827 c 1,24,-1
 494 0 l 1,0,-1
EndSplineSet
EndChar

StartChar: o
Encoding: 111 111 83
Width: 1331
GlyphClass: 1
Flags: W
LayerCount: 2
Fore
SplineSet
670 -17 m 0,0,1
 547 -17 547 -17 444.5 27.5 c 128,-1,2
 342 72 342 72 268 150 c 128,-1,3
 194 228 194 228 152.5 334.5 c 128,-1,4
 111 441 111 441 111 566 c 0,5,6
 111 690 111 690 151 796.5 c 128,-1,7
 191 903 191 903 264 981 c 128,-1,8
 337 1059 337 1059 440.5 1103.5 c 128,-1,9
 544 1148 544 1148 670 1144 c 1,10,11
 793 1148 793 1148 894.5 1103.5 c 128,-1,12
 996 1059 996 1059 1068 981 c 128,-1,13
 1140 903 1140 903 1180 796.5 c 128,-1,14
 1220 690 1220 690 1220 566 c 0,15,16
 1220 441 1220 441 1181.5 334.5 c 128,-1,17
 1143 228 1143 228 1071.5 150 c 128,-1,18
 1000 72 1000 72 898.5 27.5 c 128,-1,19
 797 -17 797 -17 670 -17 c 0,0,1
886 541 m 0,20,21
 886 611 886 611 874.5 678 c 128,-1,22
 863 745 863 745 836 799 c 128,-1,23
 809 853 809 853 767 886 c 128,-1,24
 725 919 725 919 666 919 c 0,25,26
 609 919 609 919 567.5 890.5 c 128,-1,27
 526 862 526 862 499 815 c 128,-1,28
 472 768 472 768 459 708 c 128,-1,29
 446 648 446 648 446 585 c 0,30,31
 446 514 446 514 459 446.5 c 128,-1,32
 472 379 472 379 500 326 c 128,-1,33
 528 273 528 273 571 240.5 c 128,-1,34
 614 208 614 208 674 208 c 0,35,36
 729 208 729 208 769.5 236 c 128,-1,37
 810 264 810 264 836 311 c 128,-1,38
 862 358 862 358 874 418 c 128,-1,39
 886 478 886 478 886 541 c 0,20,21
EndSplineSet
EndChar

StartChar: p
Encoding: 112 112 84
Width: 1331
GlyphClass: 1
Flags: W
LayerCount: 2
Fore
SplineSet
472.5 205 m 1,0,-1
 552.5 205 l 2,1,2
 621.5 205 621.5 205 682.5 235 c 128,-1,3
 743.5 265 743.5 265 788.5 317.5 c 128,-1,4
 833.5 370 833.5 370 860 440 c 128,-1,5
 886.5 510 886.5 510 886.5 590 c 0,6,7
 886.5 673 886.5 673 869 735.5 c 128,-1,8
 851.5 798 851.5 798 822 839.5 c 128,-1,9
 792.5 881 792.5 881 751.5 901.5 c 128,-1,10
 710.5 922 710.5 922 664.5 922 c 0,11,12
 636.5 922 636.5 922 609.5 913.5 c 128,-1,13
 582.5 905 582.5 905 558 892.5 c 128,-1,14
 533.5 880 533.5 880 512 863.5 c 128,-1,15
 490.5 847 490.5 847 472.5 830 c 1,16,-1
 472.5 205 l 1,0,-1
139.5 -512 m 1,17,-1
 139.5 1126 l 1,18,-1
 472.5 1147 l 1,19,-1
 472.5 967 l 1,20,-1
 599.5 1137 l 1,21,22
 621.5 1140 621.5 1140 644.5 1142 c 128,-1,23
 667.5 1144 667.5 1144 692.5 1144 c 0,24,25
 787.5 1144 787.5 1144 877 1104 c 128,-1,26
 966.5 1064 966.5 1064 1036.5 989.5 c 128,-1,27
 1106.5 915 1106.5 915 1149 811 c 128,-1,28
 1191.5 707 1191.5 707 1191.5 578 c 0,29,30
 1191.5 452 1191.5 452 1142 346 c 128,-1,31
 1092.5 240 1092.5 240 1004.5 163 c 128,-1,32
 916.5 86 916.5 86 796 43 c 128,-1,33
 675.5 0 675.5 0 535.5 0 c 2,34,-1
 472.5 0 l 1,35,-1
 472.5 -512 l 1,36,-1
 139.5 -512 l 1,17,-1
EndSplineSet
EndChar

StartChar: q
Encoding: 113 113 85
Width: 1331
GlyphClass: 1
Flags: W
LayerCount: 2
Fore
SplineSet
858.5 912 m 1,0,1
 827.5 916 827.5 916 798.5 919 c 128,-1,2
 769.5 922 769.5 922 730.5 922 c 0,3,4
 665.5 922 665.5 922 617 886.5 c 128,-1,5
 568.5 851 568.5 851 535 795.5 c 128,-1,6
 501.5 740 501.5 740 485 672 c 128,-1,7
 468.5 604 468.5 604 468.5 539 c 0,8,9
 468.5 453 468.5 453 486.5 390.5 c 128,-1,10
 504.5 328 504.5 328 535 286.5 c 128,-1,11
 565.5 245 565.5 245 604.5 225 c 128,-1,12
 643.5 205 643.5 205 683.5 205 c 0,13,14
 720.5 205 720.5 205 747 210.5 c 128,-1,15
 773.5 216 773.5 216 793.5 227 c 128,-1,16
 813.5 238 813.5 238 828 252 c 128,-1,17
 842.5 266 842.5 266 858.5 285 c 1,18,-1
 858.5 912 l 1,0,1
858.5 139 m 1,19,-1
 738.5 -8 l 1,20,21
 689.5 -17 689.5 -17 644.5 -17 c 0,22,23
 550.5 -17 550.5 -17 459.5 21 c 128,-1,24
 368.5 59 368.5 59 297.5 131 c 128,-1,25
 226.5 203 226.5 203 183 306.5 c 128,-1,26
 139.5 410 139.5 410 139.5 539 c 0,27,28
 139.5 679 139.5 679 186.5 791 c 128,-1,29
 233.5 903 233.5 903 315 981.5 c 128,-1,30
 396.5 1060 396.5 1060 504.5 1102 c 128,-1,31
 612.5 1144 612.5 1144 734.5 1144 c 0,32,33
 800.5 1144 800.5 1144 870 1134.5 c 128,-1,34
 939.5 1125 939.5 1125 1002.5 1112.5 c 128,-1,35
 1065.5 1100 1065.5 1100 1115.5 1086 c 128,-1,36
 1165.5 1072 1165.5 1072 1191.5 1063 c 1,37,-1
 1191.5 -512 l 1,38,-1
 858.5 -512 l 1,39,-1
 858.5 139 l 1,19,-1
EndSplineSet
EndChar

StartChar: r
Encoding: 114 114 86
Width: 1331
GlyphClass: 1
Flags: W
LayerCount: 2
Fore
SplineSet
474.5 1024 m 1,0,-1
 553.5 1126 l 1,1,2
 608.5 1141 608.5 1141 660 1142.5 c 128,-1,3
 711.5 1144 711.5 1144 760.5 1144 c 0,4,5
 843.5 1144 843.5 1144 905 1134.5 c 128,-1,6
 966.5 1125 966.5 1125 1011 1111.5 c 128,-1,7
 1055.5 1098 1055.5 1098 1084 1083 c 128,-1,8
 1112.5 1068 1112.5 1068 1129.5 1057 c 1,9,-1
 1181.5 753 l 1,10,-1
 894.5 717 l 1,11,-1
 844.5 897 l 1,12,-1
 803.5 903 l 2,13,14
 783.5 906 783.5 906 762.5 906 c 0,15,16
 663.5 906 663.5 906 592.5 870 c 128,-1,17
 521.5 834 521.5 834 474.5 768 c 1,18,-1
 474.5 0 l 1,19,-1
 149.5 0 l 1,20,-1
 149.5 1126 l 1,21,-1
 474.5 1147 l 1,22,-1
 474.5 1024 l 1,0,-1
EndSplineSet
EndChar

StartChar: s
Encoding: 115 115 87
Width: 1331
GlyphClass: 1
Flags: W
LayerCount: 2
Fore
SplineSet
1027.5 821 m 1,0,1
 998.5 839 998.5 839 966.5 856.5 c 128,-1,2
 934.5 874 934.5 874 898 888 c 128,-1,3
 861.5 902 861.5 902 819.5 911 c 128,-1,4
 777.5 920 777.5 920 729.5 920 c 0,5,6
 685.5 920 685.5 920 638.5 915.5 c 128,-1,7
 591.5 911 591.5 911 554 900.5 c 128,-1,8
 516.5 890 516.5 890 492 871 c 128,-1,9
 467.5 852 467.5 852 467.5 823 c 0,10,11
 467.5 796 467.5 796 495 777.5 c 128,-1,12
 522.5 759 522.5 759 564.5 744.5 c 128,-1,13
 606.5 730 606.5 730 656 720 c 128,-1,14
 705.5 710 705.5 710 750.5 700 c 0,15,16
 802.5 689 802.5 689 852 678 c 128,-1,17
 901.5 667 901.5 667 931.5 655 c 0,18,19
 982.5 635 982.5 635 1028.5 605 c 128,-1,20
 1074.5 575 1074.5 575 1108.5 538 c 128,-1,21
 1142.5 501 1142.5 501 1162.5 457 c 128,-1,22
 1182.5 413 1182.5 413 1182.5 364 c 0,23,24
 1182.5 295 1182.5 295 1155.5 240 c 128,-1,25
 1128.5 185 1128.5 185 1082 143 c 128,-1,26
 1035.5 101 1035.5 101 974.5 70.5 c 128,-1,27
 913.5 40 913.5 40 845.5 20.5 c 128,-1,28
 777.5 1 777.5 1 706.5 -8 c 128,-1,29
 635.5 -17 635.5 -17 571.5 -17 c 0,30,31
 510.5 -17 510.5 -17 450 -8.5 c 128,-1,32
 389.5 0 389.5 0 334 15.5 c 128,-1,33
 278.5 31 278.5 31 231 52 c 128,-1,34
 183.5 73 183.5 73 148.5 97 c 1,35,-1
 248.5 312 l 1,36,37
 319.5 269 319.5 269 399 241 c 128,-1,38
 478.5 213 478.5 213 573.5 213 c 0,39,40
 597.5 213 597.5 213 628.5 215.5 c 128,-1,41
 659.5 218 659.5 218 693 224.5 c 128,-1,42
 726.5 231 726.5 231 759 242 c 128,-1,43
 791.5 253 791.5 253 817 269.5 c 128,-1,44
 842.5 286 842.5 286 858.5 309 c 128,-1,45
 874.5 332 874.5 332 874.5 362 c 0,46,47
 874.5 390 874.5 390 850 410 c 128,-1,48
 825.5 430 825.5 430 787.5 444.5 c 128,-1,49
 749.5 459 749.5 459 704.5 468.5 c 128,-1,50
 659.5 478 659.5 478 618.5 486 c 0,51,52
 588.5 492 588.5 492 558.5 499 c 128,-1,53
 528.5 506 528.5 506 501 513 c 128,-1,54
 473.5 520 473.5 520 450 528 c 128,-1,55
 426.5 536 426.5 536 409.5 544 c 1,56,-1
 410.5 544 l 1,57,58
 342.5 576 342.5 576 298.5 611 c 128,-1,59
 254.5 646 254.5 646 228 683.5 c 128,-1,60
 201.5 721 201.5 721 191 761 c 128,-1,61
 180.5 801 180.5 801 180.5 842 c 0,62,63
 180.5 920 180.5 920 225.5 976.5 c 128,-1,64
 270.5 1033 270.5 1033 345.5 1070.5 c 128,-1,65
 420.5 1108 420.5 1108 518.5 1126 c 128,-1,66
 616.5 1144 616.5 1144 723.5 1144 c 0,67,68
 780.5 1144 780.5 1144 838.5 1135 c 128,-1,69
 896.5 1126 896.5 1126 948.5 1112.5 c 128,-1,70
 1000.5 1099 1000.5 1099 1043.5 1081.5 c 128,-1,71
 1086.5 1064 1086.5 1064 1114.5 1047 c 1,72,-1
 1027.5 821 l 1,0,1
EndSplineSet
EndChar

StartChar: t
Encoding: 116 116 88
Width: 1331
GlyphClass: 1
Flags: W
LayerCount: 2
Fore
SplineSet
718.5 397 m 2,0,1
 718.5 345 718.5 345 721 309.5 c 128,-1,2
 723.5 274 723.5 274 731.5 252.5 c 128,-1,3
 739.5 231 739.5 231 754 222 c 128,-1,4
 768.5 213 768.5 213 793.5 213 c 0,5,6
 841.5 213 841.5 213 883.5 225 c 128,-1,7
 925.5 237 925.5 237 960.5 253.5 c 128,-1,8
 995.5 270 995.5 270 1024.5 290 c 2,9,-1
 1075.5 324 l 1,10,-1
 1182.5 138 l 1,11,12
 1169.5 127 1169.5 127 1136 101.5 c 128,-1,13
 1102.5 76 1102.5 76 1047 49.5 c 128,-1,14
 991.5 23 991.5 23 913.5 3 c 128,-1,15
 835.5 -17 835.5 -17 732.5 -17 c 0,16,17
 621.5 -17 621.5 -17 554.5 17.5 c 128,-1,18
 487.5 52 487.5 52 452.5 111.5 c 128,-1,19
 417.5 171 417.5 171 406 251 c 128,-1,20
 394.5 331 394.5 331 394.5 420 c 2,21,-1
 394.5 897 l 1,22,-1
 146.5 897 l 1,23,-1
 146.5 1126 l 1,24,-1
 394.5 1126 l 1,25,-1
 394.5 1341 l 1,26,-1
 714.5 1454 l 1,27,-1
 714.5 1126 l 1,28,-1
 1184.5 1126 l 1,29,-1
 1156.5 897 l 1,30,-1
 718.5 897 l 1,31,-1
 718.5 397 l 2,0,1
EndSplineSet
EndChar

StartChar: u
Encoding: 117 117 89
Width: 1331
GlyphClass: 1
Flags: W
LayerCount: 2
Fore
SplineSet
847.5 1126 m 1,0,-1
 1171.5 1147 l 1,1,-1
 1171.5 0 l 1,2,-1
 847.5 0 l 1,3,-1
 847.5 102 l 1,4,-1
 764.5 0 l 1,5,6
 707.5 -17 707.5 -17 640.5 -17 c 0,7,8
 503.5 -17 503.5 -17 411 21.5 c 128,-1,9
 318.5 60 318.5 60 263 125 c 128,-1,10
 207.5 190 207.5 190 183.5 274 c 128,-1,11
 159.5 358 159.5 358 159.5 449 c 2,12,-1
 159.5 1126 l 1,13,-1
 483.5 1147 l 1,14,-1
 483.5 449 l 2,15,16
 483.5 396 483.5 396 492 353 c 128,-1,17
 500.5 310 500.5 310 522 280 c 128,-1,18
 543.5 250 543.5 250 579 234 c 128,-1,19
 614.5 218 614.5 218 666.5 218 c 0,20,21
 700.5 218 700.5 218 729 228.5 c 128,-1,22
 757.5 239 757.5 239 781 255 c 128,-1,23
 804.5 271 804.5 271 820.5 289.5 c 128,-1,24
 836.5 308 836.5 308 847.5 326 c 1,25,-1
 847.5 1126 l 1,0,-1
EndSplineSet
EndChar

StartChar: v
Encoding: 118 118 90
Width: 1331
GlyphClass: 1
Flags: W
LayerCount: 2
Fore
SplineSet
594 717 m 1,0,-1
 670 307 l 1,1,-1
 743 717 l 1,2,-1
 878 1126 l 1,3,-1
 1198 1147 l 1,4,-1
 816 -17 l 1,5,-1
 493 0 l 1,6,-1
 133 1126 l 1,7,-1
 455 1147 l 1,8,-1
 594 717 l 1,0,-1
EndSplineSet
EndChar

StartChar: w
Encoding: 119 119 91
Width: 1331
GlyphClass: 1
Flags: W
LayerCount: 2
Fore
SplineSet
849 614 m 1,0,-1
 902 307 l 1,1,-1
 912 307 l 1,2,-1
 901 717 l 1,3,-1
 975 1126 l 1,4,-1
 1275 1147 l 1,5,-1
 1051 0 l 1,6,-1
 779 0 l 1,7,-1
 677 410 l 1,8,-1
 661 614 l 1,9,-1
 645 410 l 1,10,-1
 546 0 l 1,11,-1
 275 0 l 1,12,-1
 56 1126 l 1,13,-1
 351 1147 l 1,14,-1
 424 717 l 1,15,-1
 420 307 l 1,16,-1
 431 307 l 1,17,-1
 475 614 l 1,18,-1
 541 922 l 1,19,-1
 782 922 l 1,20,-1
 849 614 l 1,0,-1
EndSplineSet
EndChar

StartChar: x
Encoding: 120 120 92
Width: 1331
GlyphClass: 1
Flags: W
LayerCount: 2
Fore
SplineSet
716.5 279 m 1,0,-1
 648.5 485 l 1,1,-1
 579.5 279 l 1,2,-1
 407.5 0 l 1,3,-1
 59.5 0 l 1,4,-1
 480.5 599 l 1,5,-1
 116.5 1126 l 1,6,-1
 466.5 1147 l 1,7,-1
 610.5 922 l 1,8,-1
 674.5 717 l 1,9,-1
 735.5 922 l 1,10,-1
 878.5 1126 l 1,11,-1
 1242.5 1147 l 1,12,-1
 853.5 595 l 1,13,-1
 1271.5 0 l 1,14,-1
 901.5 0 l 1,15,-1
 716.5 279 l 1,0,-1
EndSplineSet
EndChar

StartChar: y
Encoding: 121 121 93
Width: 1331
GlyphClass: 1
Flags: W
LayerCount: 2
Fore
SplineSet
589 686 m 1,0,-1
 668 205 l 1,1,-1
 748 686 l 1,2,-1
 915 1126 l 1,3,-1
 1243 1147 l 1,4,-1
 825 8 l 2,5,6
 805 -48 805 -48 781 -107.5 c 128,-1,7
 757 -167 757 -167 728 -222.5 c 128,-1,8
 699 -278 699 -278 665.5 -327 c 128,-1,9
 632 -376 632 -376 591 -412.5 c 128,-1,10
 550 -449 550 -449 502 -470.5 c 128,-1,11
 454 -492 454 -492 396 -492 c 0,12,13
 327 -492 327 -492 260 -463.5 c 128,-1,14
 193 -435 193 -435 134 -383 c 1,15,-1
 260 -199 l 1,16,17
 284 -214 284 -214 310.5 -227 c 128,-1,18
 337 -240 337 -240 364 -240 c 0,19,20
 408 -240 408 -240 443.5 -189 c 128,-1,21
 479 -138 479 -138 517 -48 c 1,22,-1
 88 1126 l 1,23,-1
 422 1147 l 1,24,-1
 589 686 l 1,0,-1
EndSplineSet
EndChar

StartChar: z
Encoding: 122 122 94
Width: 1331
GlyphClass: 1
Flags: W
LayerCount: 2
Fore
SplineSet
735 205 m 1,0,-1
 1117 205 l 1,1,-1
 1145 0 l 1,2,-1
 220 0 l 1,3,-1
 186 87 l 1,4,-1
 596 775 l 1,5,-1
 812 947 l 1,6,-1
 555 922 l 1,7,-1
 274 922 l 1,8,-1
 247 1126 l 1,9,-1
 1062 1126 l 1,10,-1
 1095 1041 l 1,11,-1
 690 347 l 1,12,-1
 478 179 l 1,13,-1
 735 205 l 1,0,-1
EndSplineSet
EndChar

StartChar: braceleft
Encoding: 123 123 95
Width: 1331
GlyphClass: 1
Flags: W
LayerCount: 2
Fore
SplineSet
1027.5 1290 m 1,0,1
 992.5 1310 992.5 1310 948 1323 c 128,-1,2
 903.5 1336 903.5 1336 867.5 1336 c 0,3,4
 836.5 1334 836.5 1334 818.5 1319.5 c 128,-1,5
 800.5 1305 800.5 1305 791 1278 c 128,-1,6
 781.5 1251 781.5 1251 778.5 1213 c 128,-1,7
 775.5 1175 775.5 1175 775.5 1125 c 2,8,-1
 775.5 885 l 2,9,10
 775.5 828 775.5 828 759.5 777.5 c 128,-1,11
 743.5 727 743.5 727 719 686.5 c 128,-1,12
 694.5 646 694.5 646 665 615 c 128,-1,13
 635.5 584 635.5 584 607.5 563 c 1,14,15
 635.5 543 635.5 543 665 511.5 c 128,-1,16
 694.5 480 694.5 480 719 439.5 c 128,-1,17
 743.5 399 743.5 399 759.5 349.5 c 128,-1,18
 775.5 300 775.5 300 775.5 244 c 2,19,-1
 775.5 -2 l 2,20,21
 775.5 -51 775.5 -51 778.5 -90 c 128,-1,22
 781.5 -129 781.5 -129 791 -156.5 c 128,-1,23
 800.5 -184 800.5 -184 819 -198.5 c 128,-1,24
 837.5 -213 837.5 -213 867.5 -213 c 0,25,26
 903.5 -213 903.5 -213 948 -200 c 128,-1,27
 992.5 -187 992.5 -187 1027.5 -167 c 1,28,-1
 1125.5 -356 l 1,29,30
 1091.5 -371 1091.5 -371 1060.5 -384.5 c 128,-1,31
 1029.5 -398 1029.5 -398 994.5 -408.5 c 128,-1,32
 959.5 -419 959.5 -419 918.5 -424.5 c 128,-1,33
 877.5 -430 877.5 -430 823.5 -430 c 0,34,35
 707.5 -430 707.5 -430 631 -397.5 c 128,-1,36
 554.5 -365 554.5 -365 509 -307.5 c 128,-1,37
 463.5 -250 463.5 -250 444.5 -171.5 c 128,-1,38
 425.5 -93 425.5 -93 425.5 -2 c 2,39,-1
 425.5 244 l 2,40,41
 425.5 336 425.5 336 409.5 389 c 128,-1,42
 393.5 442 393.5 442 346.5 453 c 2,43,-1
 205.5 473 l 1,44,-1
 205.5 655 l 1,45,-1
 346.5 676 l 1,46,47
 393.5 687 393.5 687 409.5 741 c 128,-1,48
 425.5 795 425.5 795 425.5 885 c 2,49,-1
 425.5 1125 l 2,50,51
 425.5 1216 425.5 1216 444.5 1294.5 c 128,-1,52
 463.5 1373 463.5 1373 509.5 1430.5 c 128,-1,53
 555.5 1488 555.5 1488 632.5 1520.5 c 128,-1,54
 709.5 1553 709.5 1553 824.5 1553 c 0,55,56
 877.5 1553 877.5 1553 919.5 1547.5 c 128,-1,57
 961.5 1542 961.5 1542 995.5 1532.5 c 128,-1,58
 1029.5 1523 1029.5 1523 1061 1509.5 c 128,-1,59
 1092.5 1496 1092.5 1496 1125.5 1480 c 1,60,-1
 1027.5 1290 l 1,0,1
EndSplineSet
EndChar

StartChar: bar
Encoding: 124 124 96
Width: 1331
GlyphClass: 1
Flags: W
LayerCount: 2
Fore
SplineSet
835.5 1556 m 1,0,-1
 835.5 -389 l 1,1,-1
 495.5 -389 l 1,2,-1
 495.5 1536 l 1,3,-1
 835.5 1556 l 1,0,-1
EndSplineSet
EndChar

StartChar: braceright
Encoding: 125 125 97
Width: 1331
GlyphClass: 1
Flags: W
LayerCount: 2
Fore
SplineSet
205.5 1480 m 1,0,1
 239.5 1496 239.5 1496 270.5 1509.5 c 128,-1,2
 301.5 1523 301.5 1523 336.5 1532.5 c 128,-1,3
 371.5 1542 371.5 1542 413 1547.5 c 128,-1,4
 454.5 1553 454.5 1553 507.5 1553 c 0,5,6
 623.5 1553 623.5 1553 700 1520.5 c 128,-1,7
 776.5 1488 776.5 1488 822 1430.5 c 128,-1,8
 867.5 1373 867.5 1373 886.5 1295 c 128,-1,9
 905.5 1217 905.5 1217 905.5 1125 c 2,10,-1
 905.5 885 l 2,11,12
 905.5 795 905.5 795 921.5 741 c 128,-1,13
 937.5 687 937.5 687 984.5 676 c 1,14,-1
 1125.5 655 l 1,15,-1
 1125.5 473 l 1,16,-1
 984.5 453 l 2,17,18
 937.5 443 937.5 443 921.5 389 c 128,-1,19
 905.5 335 905.5 335 905.5 244 c 2,20,-1
 905.5 -2 l 2,21,22
 905.5 -93 905.5 -93 886.5 -171.5 c 128,-1,23
 867.5 -250 867.5 -250 822 -307.5 c 128,-1,24
 776.5 -365 776.5 -365 700 -397.5 c 128,-1,25
 623.5 -430 623.5 -430 507.5 -430 c 0,26,27
 454.5 -430 454.5 -430 413 -424.5 c 128,-1,28
 371.5 -419 371.5 -419 336.5 -409 c 128,-1,29
 301.5 -399 301.5 -399 270.5 -385.5 c 128,-1,30
 239.5 -372 239.5 -372 205.5 -356 c 1,31,-1
 303.5 -167 l 1,32,33
 338.5 -187 338.5 -187 383 -200 c 128,-1,34
 427.5 -213 427.5 -213 463.5 -213 c 0,35,36
 494.5 -213 494.5 -213 512.5 -198.5 c 128,-1,37
 530.5 -184 530.5 -184 540 -156.5 c 128,-1,38
 549.5 -129 549.5 -129 552.5 -90 c 128,-1,39
 555.5 -51 555.5 -51 555.5 -2 c 2,40,-1
 555.5 244 l 2,41,42
 555.5 300 555.5 300 571.5 349.5 c 128,-1,43
 587.5 399 587.5 399 612 440 c 128,-1,44
 636.5 481 636.5 481 666 512 c 128,-1,45
 695.5 543 695.5 543 723.5 563 c 1,46,47
 695.5 583 695.5 583 666 614.5 c 128,-1,48
 636.5 646 636.5 646 612 686.5 c 128,-1,49
 587.5 727 587.5 727 571.5 777 c 128,-1,50
 555.5 827 555.5 827 555.5 885 c 2,51,-1
 555.5 1125 l 2,52,53
 555.5 1174 555.5 1174 552.5 1212.5 c 128,-1,54
 549.5 1251 549.5 1251 540 1278 c 128,-1,55
 530.5 1305 530.5 1305 512.5 1319.5 c 128,-1,56
 494.5 1334 494.5 1334 463.5 1336 c 0,57,58
 427.5 1336 427.5 1336 383 1323.5 c 128,-1,59
 338.5 1311 338.5 1311 303.5 1290 c 1,60,-1
 205.5 1480 l 1,0,1
EndSplineSet
EndChar

StartChar: asciitilde
Encoding: 126 126 98
Width: 1331
GlyphClass: 1
Flags: W
LayerCount: 2
Fore
SplineSet
33.5 452 m 1,0,1
 39.5 521 39.5 521 66.5 592.5 c 128,-1,2
 93.5 664 93.5 664 144.5 722 c 128,-1,3
 195.5 780 195.5 780 272.5 817.5 c 128,-1,4
 349.5 855 349.5 855 456.5 855 c 0,5,6
 511.5 855 511.5 855 552.5 845 c 128,-1,7
 593.5 835 593.5 835 625.5 820 c 128,-1,8
 657.5 805 657.5 805 683.5 787.5 c 128,-1,9
 709.5 770 709.5 770 734.5 755 c 128,-1,10
 759.5 740 759.5 740 786.5 730 c 128,-1,11
 813.5 720 813.5 720 848.5 720 c 0,12,13
 919.5 720 919.5 720 963 759 c 128,-1,14
 1006.5 798 1006.5 798 1016.5 858 c 1,15,-1
 1297.5 821 l 1,16,17
 1292.5 746 1292.5 746 1269.5 672.5 c 128,-1,18
 1246.5 599 1246.5 599 1198.5 540.5 c 128,-1,19
 1150.5 482 1150.5 482 1073.5 446 c 128,-1,20
 996.5 410 996.5 410 884.5 410 c 0,21,22
 833.5 410 833.5 410 795.5 420 c 128,-1,23
 757.5 430 757.5 430 727 445 c 128,-1,24
 696.5 460 696.5 460 671.5 477.5 c 128,-1,25
 646.5 495 646.5 495 620 509.5 c 128,-1,26
 593.5 524 593.5 524 563.5 534.5 c 128,-1,27
 533.5 545 533.5 545 494.5 545 c 0,28,29
 464.5 545 464.5 545 439.5 534.5 c 128,-1,30
 414.5 524 414.5 524 394.5 507 c 128,-1,31
 374.5 490 374.5 490 360.5 467.5 c 128,-1,32
 346.5 445 346.5 445 340.5 420 c 1,33,-1
 33.5 452 l 1,0,1
EndSplineSet
EndChar

StartChar: exclamdown
Encoding: 161 161 100
Width: 1331
GlyphClass: 1
Flags: W
LayerCount: 2
Fore
SplineSet
512.5 -410 m 1,0,-1
 512.5 708 l 1,1,-1
 820.5 672 l 1,2,-1
 820.5 -410 l 1,3,-1
 512.5 -410 l 1,0,-1
498.5 974 m 0,4,5
 498.5 1008 498.5 1008 512 1039 c 128,-1,6
 525.5 1070 525.5 1070 548 1093 c 128,-1,7
 570.5 1116 570.5 1116 601 1130 c 128,-1,8
 631.5 1144 631.5 1144 666.5 1144 c 256,9,10
 701.5 1144 701.5 1144 731.5 1130 c 128,-1,11
 761.5 1116 761.5 1116 784 1093 c 128,-1,12
 806.5 1070 806.5 1070 819.5 1039 c 128,-1,13
 832.5 1008 832.5 1008 832.5 974 c 0,14,15
 832.5 939 832.5 939 819 909 c 128,-1,16
 805.5 879 805.5 879 783 856 c 128,-1,17
 760.5 833 760.5 833 730.5 819.5 c 128,-1,18
 700.5 806 700.5 806 665.5 806 c 256,19,20
 630.5 806 630.5 806 600.5 819.5 c 128,-1,21
 570.5 833 570.5 833 548 856 c 128,-1,22
 525.5 879 525.5 879 512 909 c 128,-1,23
 498.5 939 498.5 939 498.5 974 c 0,4,5
EndSplineSet
EndChar

StartChar: cent
Encoding: 162 162 101
Width: 1331
GlyphClass: 1
Flags: W
LayerCount: 2
Fore
SplineSet
973.5 834 m 1,0,1
 948.5 858 948.5 858 926 873 c 128,-1,2
 903.5 888 903.5 888 883.5 898 c 1,3,-1
 883.5 228 l 1,4,5
 951.5 255 951.5 255 1008.5 295 c 1,6,-1
 1122.5 95 l 1,7,8
 1070.5 59 1070.5 59 1010.5 33 c 128,-1,9
 950.5 7 950.5 7 883.5 -5 c 1,10,-1
 883.5 -195 l 1,11,-1
 586.5 -195 l 1,12,-1
 586.5 6 l 1,13,14
 491.5 35 491.5 35 419.5 93 c 128,-1,15
 347.5 151 347.5 151 299.5 228 c 128,-1,16
 251.5 305 251.5 305 227.5 397.5 c 128,-1,17
 203.5 490 203.5 490 203.5 589 c 0,18,19
 203.5 678 203.5 678 226.5 762.5 c 128,-1,20
 249.5 847 249.5 847 297 918 c 128,-1,21
 344.5 989 344.5 989 416 1042 c 128,-1,22
 487.5 1095 487.5 1095 586.5 1121 c 1,23,-1
 586.5 1333 l 1,24,-1
 883.5 1372 l 1,25,-1
 883.5 1132 l 1,26,27
 952.5 1117 952.5 1117 1012 1081.5 c 128,-1,28
 1071.5 1046 1071.5 1046 1127.5 984 c 1,29,-1
 973.5 834 l 1,0,1
494.5 577 m 0,30,31
 494.5 447 494.5 447 530.5 362.5 c 128,-1,32
 566.5 278 566.5 278 635.5 238 c 1,33,-1
 635.5 894 l 1,34,35
 568.5 860 568.5 860 531.5 783 c 128,-1,36
 494.5 706 494.5 706 494.5 577 c 0,30,31
EndSplineSet
EndChar

StartChar: sterling
Encoding: 163 163 102
Width: 1331
GlyphClass: 1
Flags: W
LayerCount: 2
Fore
SplineSet
788.5 221 m 1,0,-1
 1116.5 221 l 1,1,-1
 1116.5 0 l 1,2,-1
 145.5 0 l 1,3,-1
 174.5 221 l 1,4,-1
 311.5 221 l 2,5,6
 313.5 223 313.5 223 316.5 230 c 128,-1,7
 319.5 237 319.5 237 324.5 255 c 0,8,9
 332.5 284 332.5 284 354 387 c 128,-1,10
 375.5 490 375.5 490 403.5 681 c 1,11,-1
 272.5 681 l 1,12,-1
 272.5 904 l 1,13,-1
 434.5 904 l 1,14,-1
 473.5 1178 l 2,15,16
 485.5 1259 485.5 1259 511.5 1328 c 128,-1,17
 537.5 1397 537.5 1397 582.5 1447 c 128,-1,18
 627.5 1497 627.5 1497 695 1525 c 128,-1,19
 762.5 1553 762.5 1553 857.5 1553 c 0,20,21
 912.5 1553 912.5 1553 956.5 1546.5 c 128,-1,22
 1000.5 1540 1000.5 1540 1038 1525 c 128,-1,23
 1075.5 1510 1075.5 1510 1111 1486 c 128,-1,24
 1146.5 1462 1146.5 1462 1185.5 1428 c 1,25,-1
 1052.5 1257 l 1,26,27
 1001.5 1303 1001.5 1303 967.5 1318.5 c 128,-1,28
 933.5 1334 933.5 1334 902.5 1334 c 0,29,30
 878.5 1334 878.5 1334 862 1320.5 c 128,-1,31
 845.5 1307 845.5 1307 833.5 1281.5 c 128,-1,32
 821.5 1256 821.5 1256 814 1221 c 128,-1,33
 806.5 1186 806.5 1186 800.5 1143 c 2,34,-1
 766.5 904 l 1,35,-1
 966.5 904 l 1,36,-1
 938.5 681 l 1,37,-1
 735.5 681 l 1,38,39
 727.5 615 727.5 615 722 569 c 128,-1,40
 716.5 523 716.5 523 710.5 486 c 128,-1,41
 704.5 449 704.5 449 697 414.5 c 128,-1,42
 689.5 380 689.5 380 679.5 339 c 1,43,-1
 534.5 161 l 1,44,-1
 788.5 221 l 1,0,-1
EndSplineSet
EndChar

StartChar: currency
Encoding: 164 164 103
Width: 1331
GlyphClass: 1
Flags: W
LayerCount: 2
Fore
SplineSet
1195.5 238 m 1,0,-1
 1015.5 56 l 1,1,-1
 845.5 226 l 1,2,3
 763.5 192 763.5 192 665.5 193 c 0,4,5
 616.5 193 616.5 193 571 201 c 128,-1,6
 525.5 209 525.5 209 485.5 226 c 1,7,-1
 316.5 56 l 1,8,-1
 135.5 238 l 1,9,-1
 291.5 392 l 1,10,11
 233.5 490 233.5 490 232.5 587 c 0,12,13
 232.5 633 232.5 633 247 682 c 128,-1,14
 261.5 731 261.5 731 291.5 780 c 1,15,-1
 135.5 935 l 1,16,-1
 315.5 1118 l 1,17,-1
 485.5 947 l 1,18,19
 526.5 964 526.5 964 571.5 972 c 128,-1,20
 616.5 980 616.5 980 665.5 980 c 0,21,22
 713.5 980 713.5 980 759 972.5 c 128,-1,23
 804.5 965 804.5 965 845.5 947 c 1,24,-1
 1016.5 1118 l 1,25,-1
 1195.5 935 l 1,26,-1
 1040.5 780 l 1,27,28
 1097.5 681 1097.5 681 1098.5 587 c 0,29,30
 1098.5 540 1098.5 540 1084 490 c 128,-1,31
 1069.5 440 1069.5 440 1040.5 392 c 1,32,-1
 1195.5 238 l 1,0,-1
496.5 587 m 256,33,34
 496.5 538 496.5 538 512.5 503.5 c 128,-1,35
 528.5 469 528.5 469 553 448.5 c 128,-1,36
 577.5 428 577.5 428 608 419 c 128,-1,37
 638.5 410 638.5 410 665.5 410 c 256,38,39
 693.5 410 693.5 410 723 419 c 128,-1,40
 752.5 428 752.5 428 777.5 448.5 c 128,-1,41
 802.5 469 802.5 469 818 503.5 c 128,-1,42
 833.5 538 833.5 538 833.5 587 c 256,43,44
 833.5 636 833.5 636 818 669.5 c 128,-1,45
 802.5 703 802.5 703 777.5 723.5 c 128,-1,46
 752.5 744 752.5 744 723 753 c 128,-1,47
 693.5 762 693.5 762 665.5 762 c 256,48,49
 637.5 762 637.5 762 607.5 753 c 128,-1,50
 577.5 744 577.5 744 553 723.5 c 128,-1,51
 528.5 703 528.5 703 512.5 669.5 c 128,-1,52
 496.5 636 496.5 636 496.5 587 c 256,33,34
EndSplineSet
EndChar

StartChar: yen
Encoding: 165 165 104
Width: 1331
GlyphClass: 1
Flags: W
LayerCount: 2
Fore
SplineSet
167.5 603 m 1,0,-1
 483.5 603 l 1,1,-1
 483.5 666 l 1,2,-1
 457.5 717 l 1,3,-1
 167.5 717 l 1,4,-1
 167.5 910 l 1,5,-1
 358.5 910 l 1,6,-1
 44.5 1536 l 1,7,-1
 391.5 1556 l 1,8,-1
 588.5 1170 l 1,9,-1
 697.5 792 l 1,10,-1
 757.5 1170 l 1,11,-1
 943.5 1536 l 1,12,-1
 1286.5 1536 l 1,13,-1
 968.5 910 l 1,14,-1
 1191.5 910 l 1,15,-1
 1191.5 717 l 1,16,-1
 868.5 717 l 1,17,-1
 843.5 666 l 1,18,-1
 843.5 603 l 1,19,-1
 1191.5 603 l 1,20,-1
 1191.5 410 l 1,21,-1
 843.5 410 l 1,22,-1
 843.5 0 l 1,23,-1
 483.5 0 l 1,24,-1
 483.5 410 l 1,25,-1
 167.5 410 l 1,26,-1
 167.5 603 l 1,0,-1
EndSplineSet
EndChar

StartChar: brokenbar
Encoding: 166 166 105
Width: 1331
GlyphClass: 1
Flags: W
LayerCount: 2
Fore
SplineSet
840.5 1556 m 1,0,-1
 840.5 717 l 1,1,-1
 490.5 717 l 1,2,-1
 490.5 1536 l 1,3,-1
 840.5 1556 l 1,0,-1
840.5 371 m 1,4,-1
 840.5 -410 l 1,5,-1
 490.5 -410 l 1,6,-1
 490.5 371 l 1,7,-1
 840.5 371 l 1,4,-1
EndSplineSet
EndChar

StartChar: section
Encoding: 167 167 106
Width: 1331
GlyphClass: 1
Flags: W
LayerCount: 2
Fore
SplineSet
964.5 1279 m 1,0,1
 921.5 1303 921.5 1303 888 1316.5 c 128,-1,2
 854.5 1330 854.5 1330 825.5 1338 c 128,-1,3
 796.5 1346 796.5 1346 773 1348 c 128,-1,4
 749.5 1350 749.5 1350 728.5 1350 c 0,5,6
 696.5 1350 696.5 1350 668 1342 c 128,-1,7
 639.5 1334 639.5 1334 617.5 1316.5 c 128,-1,8
 595.5 1299 595.5 1299 582.5 1271 c 128,-1,9
 569.5 1243 569.5 1243 569.5 1202 c 0,10,11
 569.5 1162 569.5 1162 585.5 1131.5 c 128,-1,12
 601.5 1101 601.5 1101 627.5 1075.5 c 128,-1,13
 653.5 1050 653.5 1050 688 1027 c 128,-1,14
 722.5 1004 722.5 1004 758.5 981 c 0,15,16
 819.5 943 819.5 943 881.5 901 c 128,-1,17
 943.5 859 943.5 859 993 807 c 128,-1,18
 1042.5 755 1042.5 755 1074 690 c 128,-1,19
 1105.5 625 1105.5 625 1105.5 540 c 0,20,21
 1105.5 491 1105.5 491 1090.5 444 c 128,-1,22
 1075.5 397 1075.5 397 1049 358 c 128,-1,23
 1022.5 319 1022.5 319 986.5 288.5 c 128,-1,24
 950.5 258 950.5 258 908.5 240 c 1,25,26
 946.5 210 946.5 210 978.5 177 c 128,-1,27
 1010.5 144 1010.5 144 1034 108.5 c 128,-1,28
 1057.5 73 1057.5 73 1071.5 34 c 128,-1,29
 1085.5 -5 1085.5 -5 1085.5 -47 c 0,30,31
 1085.5 -131 1085.5 -131 1054.5 -198 c 128,-1,32
 1023.5 -265 1023.5 -265 963.5 -312 c 128,-1,33
 903.5 -359 903.5 -359 817 -384.5 c 128,-1,34
 730.5 -410 730.5 -410 619.5 -410 c 0,35,36
 571.5 -410 571.5 -410 526.5 -404.5 c 128,-1,37
 481.5 -399 481.5 -399 437 -387 c 128,-1,38
 392.5 -375 392.5 -375 348.5 -355.5 c 128,-1,39
 304.5 -336 304.5 -336 257.5 -306 c 1,40,-1
 365.5 -132 l 1,41,42
 408.5 -156 408.5 -156 442.5 -170 c 128,-1,43
 476.5 -184 476.5 -184 505 -192 c 128,-1,44
 533.5 -200 533.5 -200 557 -202.5 c 128,-1,45
 580.5 -205 580.5 -205 602.5 -205 c 0,46,47
 634.5 -205 634.5 -205 663 -196.5 c 128,-1,48
 691.5 -188 691.5 -188 713 -170.5 c 128,-1,49
 734.5 -153 734.5 -153 747.5 -124 c 128,-1,50
 760.5 -95 760.5 -95 760.5 -55 c 256,51,52
 760.5 -15 760.5 -15 745 15.5 c 128,-1,53
 729.5 46 729.5 46 703.5 72 c 128,-1,54
 677.5 98 677.5 98 643 120.5 c 128,-1,55
 608.5 143 608.5 143 571.5 167 c 0,56,57
 510.5 205 510.5 205 449 246.5 c 128,-1,58
 387.5 288 387.5 288 337.5 340 c 128,-1,59
 287.5 392 287.5 392 256.5 457 c 128,-1,60
 225.5 522 225.5 522 225.5 607 c 0,61,62
 225.5 660 225.5 660 241 705.5 c 128,-1,63
 256.5 751 256.5 751 283 787.5 c 128,-1,64
 309.5 824 309.5 824 345 853.5 c 128,-1,65
 380.5 883 380.5 883 421.5 906 c 1,66,67
 383.5 937 383.5 937 351 969.5 c 128,-1,68
 318.5 1002 318.5 1002 295 1038 c 128,-1,69
 271.5 1074 271.5 1074 258 1113 c 128,-1,70
 244.5 1152 244.5 1152 244.5 1194 c 0,71,72
 244.5 1278 244.5 1278 276 1344.5 c 128,-1,73
 307.5 1411 307.5 1411 367.5 1457.5 c 128,-1,74
 427.5 1504 427.5 1504 514 1528.5 c 128,-1,75
 600.5 1553 600.5 1553 710.5 1553 c 0,76,77
 757.5 1553 757.5 1553 803 1548.5 c 128,-1,78
 848.5 1544 848.5 1544 892.5 1532.5 c 128,-1,79
 936.5 1521 936.5 1521 981 1501.5 c 128,-1,80
 1025.5 1482 1025.5 1482 1072.5 1453 c 1,81,-1
 964.5 1279 l 1,0,1
616.5 765 m 1,82,-1
 604.5 755 l 2,83,84
 593.5 746 593.5 746 581 732 c 128,-1,85
 568.5 718 568.5 718 559 700 c 128,-1,86
 549.5 682 549.5 682 542.5 659.5 c 128,-1,87
 535.5 637 535.5 637 535.5 609 c 0,88,89
 535.5 574 535.5 574 549.5 544.5 c 128,-1,90
 563.5 515 563.5 515 585.5 489 c 128,-1,91
 607.5 463 607.5 463 635 440 c 128,-1,92
 662.5 417 662.5 417 691.5 396 c 2,93,-1
 713.5 381 l 1,94,-1
 726.5 392 l 2,95,96
 737.5 401 737.5 401 750 415 c 128,-1,97
 762.5 429 762.5 429 772 447.5 c 128,-1,98
 781.5 466 781.5 466 788 488.5 c 128,-1,99
 794.5 511 794.5 511 794.5 538 c 0,100,101
 794.5 572 794.5 572 781 601.5 c 128,-1,102
 767.5 631 767.5 631 745.5 657 c 128,-1,103
 723.5 683 723.5 683 695.5 705.5 c 128,-1,104
 667.5 728 667.5 728 640.5 749 c 2,105,-1
 616.5 765 l 1,82,-1
EndSplineSet
EndChar

StartChar: dieresis
Encoding: 168 168 107
Width: 1331
GlyphClass: 1
Flags: W
LayerCount: 2
Fore
SplineSet
319 1604 m 1,0,-1
 602 1604 l 1,1,-1
 602 1331 l 1,2,-1
 319 1331 l 1,3,-1
 319 1604 l 1,0,-1
729 1604 m 1,4,-1
 1012 1604 l 1,5,-1
 1012 1331 l 1,6,-1
 729 1331 l 1,7,-1
 729 1604 l 1,4,-1
EndSplineSet
EndChar

StartChar: copyright
Encoding: 169 169 108
Width: 1331
GlyphClass: 1
Flags: W
LayerCount: 2
Fore
SplineSet
666 1553 m 256,0,1
 765 1553 765 1553 852.5 1515.5 c 128,-1,2
 940 1478 940 1478 1005.5 1412.5 c 128,-1,3
 1071 1347 1071 1347 1109 1259 c 128,-1,4
 1147 1171 1147 1171 1147 1072 c 0,5,6
 1147 972 1147 972 1109 884.5 c 128,-1,7
 1071 797 1071 797 1005.5 732 c 128,-1,8
 940 667 940 667 852.5 629 c 128,-1,9
 765 591 765 591 666 591 c 256,10,11
 567 591 567 591 479 629 c 128,-1,12
 391 667 391 667 325.5 732 c 128,-1,13
 260 797 260 797 222 884.5 c 128,-1,14
 184 972 184 972 184 1072 c 0,15,16
 184 1171 184 1171 222 1259 c 128,-1,17
 260 1347 260 1347 325.5 1412.5 c 128,-1,18
 391 1478 391 1478 479 1515.5 c 128,-1,19
 567 1553 567 1553 666 1553 c 256,0,1
666 718 m 0,20,21
 738 718 738 718 801.5 746 c 128,-1,22
 865 774 865 774 914 822 c 128,-1,23
 963 870 963 870 991.5 934.5 c 128,-1,24
 1020 999 1020 999 1020 1072 c 0,25,26
 1020 1146 1020 1146 992.5 1210.5 c 128,-1,27
 965 1275 965 1275 916.5 1323 c 128,-1,28
 868 1371 868 1371 803.5 1398.5 c 128,-1,29
 739 1426 739 1426 666 1426 c 256,30,31
 592 1426 592 1426 527.5 1398.5 c 128,-1,32
 463 1371 463 1371 415 1323 c 128,-1,33
 367 1275 367 1275 339 1210.5 c 128,-1,34
 311 1146 311 1146 311 1072 c 0,35,36
 311 1000 311 1000 339.5 936 c 128,-1,37
 368 872 368 872 416 823.5 c 128,-1,38
 464 775 464 775 528.5 746.5 c 128,-1,39
 593 718 593 718 666 718 c 0,20,21
804 1193 m 1,40,41
 772 1220 772 1220 747 1226.5 c 128,-1,42
 722 1233 722 1233 697 1233 c 0,43,44
 667 1233 667 1233 646.5 1220 c 128,-1,45
 626 1207 626 1207 612.5 1185.5 c 128,-1,46
 599 1164 599 1164 593.5 1136 c 128,-1,47
 588 1108 588 1108 588 1077 c 0,48,49
 588 1045 588 1045 593.5 1015 c 128,-1,50
 599 985 599 985 612.5 962 c 128,-1,51
 626 939 626 939 648 924.5 c 128,-1,52
 670 910 670 910 702 910 c 0,53,54
 729 910 729 910 762 922 c 128,-1,55
 795 934 795 934 821 951 c 1,56,-1
 879 861 l 1,57,58
 841 837 841 837 796 823.5 c 128,-1,59
 751 810 751 810 695 810 c 0,60,61
 626 810 626 810 574.5 833 c 128,-1,62
 523 856 523 856 488.5 894 c 128,-1,63
 454 932 454 932 436.5 981 c 128,-1,64
 419 1030 419 1030 419 1083 c 0,65,66
 419 1131 419 1131 436 1176.5 c 128,-1,67
 453 1222 453 1222 487 1256.5 c 128,-1,68
 521 1291 521 1291 574 1312 c 128,-1,69
 627 1333 627 1333 698 1333 c 0,70,71
 753 1333 753 1333 797.5 1316 c 128,-1,72
 842 1299 842 1299 881 1261 c 1,73,-1
 804 1193 l 1,40,41
EndSplineSet
EndChar

StartChar: ordfeminine
Encoding: 170 170 109
Width: 1331
GlyphClass: 1
Flags: W
LayerCount: 2
Fore
SplineSet
929 982 m 1,0,-1
 755 982 l 1,1,-1
 755 1033 l 1,2,-1
 712 984 l 1,3,4
 695 979 695 979 676.5 976 c 128,-1,5
 658 973 658 973 643 973 c 0,6,7
 601 973 601 973 558 985.5 c 128,-1,8
 515 998 515 998 480 1022.5 c 128,-1,9
 445 1047 445 1047 423.5 1082.5 c 128,-1,10
 402 1118 402 1118 402 1165 c 0,11,12
 402 1214 402 1214 424 1250 c 128,-1,13
 446 1286 446 1286 482 1309 c 128,-1,14
 518 1332 518 1332 563.5 1343.5 c 128,-1,15
 609 1355 609 1355 657 1355 c 0,16,17
 686 1355 686 1355 710 1353.5 c 128,-1,18
 734 1352 734 1352 755 1348 c 1,19,20
 753 1392 753 1392 733 1417.5 c 128,-1,21
 713 1443 713 1443 672 1443 c 0,22,23
 649 1443 649 1443 626 1440.5 c 128,-1,24
 603 1438 603 1438 582 1433 c 128,-1,25
 561 1428 561 1428 543 1422.5 c 128,-1,26
 525 1417 525 1417 511 1411 c 1,27,-1
 463 1505 l 1,28,29
 487 1516 487 1516 508.5 1525 c 128,-1,30
 530 1534 530 1534 554 1540.5 c 128,-1,31
 578 1547 578 1547 607.5 1550 c 128,-1,32
 637 1553 637 1553 677 1553 c 0,33,34
 743 1553 743 1553 788 1537.5 c 128,-1,35
 833 1522 833 1522 862 1492 c 128,-1,36
 891 1462 891 1462 904 1421 c 128,-1,37
 917 1380 917 1380 917 1330 c 2,38,-1
 917 1084 l 1,39,-1
 929 982 l 1,0,-1
465 829 m 1,40,-1
 917 829 l 1,41,-1
 917 707 l 1,42,-1
 465 707 l 1,43,-1
 465 829 l 1,40,-1
755 1238 m 1,44,45
 748 1238 748 1238 737.5 1238.5 c 128,-1,46
 727 1239 727 1239 716 1239.5 c 128,-1,47
 705 1240 705 1240 694 1240 c 2,48,-1
 677 1240 l 2,49,50
 658 1240 658 1240 638 1236.5 c 128,-1,51
 618 1233 618 1233 603.5 1224 c 128,-1,52
 589 1215 589 1215 579.5 1201 c 128,-1,53
 570 1187 570 1187 570 1165 c 0,54,55
 570 1148 570 1148 577 1134 c 128,-1,56
 584 1120 584 1120 594.5 1110 c 128,-1,57
 605 1100 605 1100 619 1094.5 c 128,-1,58
 633 1089 633 1089 647 1089 c 0,59,60
 677 1089 677 1089 703.5 1101.5 c 128,-1,61
 730 1114 730 1114 755 1136 c 1,62,-1
 755 1238 l 1,44,45
EndSplineSet
EndChar

StartChar: guillemotleft
Encoding: 171 171 110
Width: 1331
GlyphClass: 1
Flags: W
LayerCount: 2
Fore
SplineSet
648.5 1133 m 1,0,-1
 739.5 901 l 1,1,-1
 400.5 597 l 1,2,-1
 322.5 563 l 1,3,-1
 399.5 529 l 1,4,-1
 741.5 229 l 1,5,-1
 645.5 -13 l 1,6,-1
 77.5 487 l 1,7,-1
 77.5 635 l 1,8,-1
 648.5 1133 l 1,0,-1
1160.5 1133 m 1,9,-1
 1251.5 901 l 1,10,-1
 912.5 597 l 1,11,-1
 834.5 563 l 1,12,-1
 911.5 529 l 1,13,-1
 1253.5 229 l 1,14,-1
 1157.5 -13 l 1,15,-1
 589.5 487 l 1,16,-1
 589.5 635 l 1,17,-1
 1160.5 1133 l 1,9,-1
EndSplineSet
EndChar

StartChar: logicalnot
Encoding: 172 172 111
Width: 1331
GlyphClass: 1
Flags: W
LayerCount: 2
Fore
SplineSet
1279.5 847 m 1,0,-1
 1260.5 600 l 1,1,-1
 1260.5 264 l 1,2,-1
 910.5 264 l 1,3,-1
 910.5 470 l 1,4,-1
 922.5 614 l 1,5,-1
 51.5 614 l 1,6,-1
 51.5 847 l 1,7,-1
 1279.5 847 l 1,0,-1
EndSplineSet
EndChar

StartChar: registered
Encoding: 174 174 113
Width: 1331
GlyphClass: 1
Flags: W
LayerCount: 2
Fore
SplineSet
666 1553 m 256,0,1
 765 1553 765 1553 852.5 1515.5 c 128,-1,2
 940 1478 940 1478 1005.5 1412.5 c 128,-1,3
 1071 1347 1071 1347 1109 1259 c 128,-1,4
 1147 1171 1147 1171 1147 1072 c 0,5,6
 1147 972 1147 972 1109 884.5 c 128,-1,7
 1071 797 1071 797 1005.5 732 c 128,-1,8
 940 667 940 667 852.5 629 c 128,-1,9
 765 591 765 591 666 591 c 256,10,11
 567 591 567 591 479 629 c 128,-1,12
 391 667 391 667 325.5 732 c 128,-1,13
 260 797 260 797 222 884.5 c 128,-1,14
 184 972 184 972 184 1072 c 0,15,16
 184 1171 184 1171 222 1259 c 128,-1,17
 260 1347 260 1347 325.5 1412.5 c 128,-1,18
 391 1478 391 1478 479 1515.5 c 128,-1,19
 567 1553 567 1553 666 1553 c 256,0,1
666 718 m 0,20,21
 738 718 738 718 801.5 746 c 128,-1,22
 865 774 865 774 914 822 c 128,-1,23
 963 870 963 870 991.5 934.5 c 128,-1,24
 1020 999 1020 999 1020 1072 c 0,25,26
 1020 1146 1020 1146 992.5 1210.5 c 128,-1,27
 965 1275 965 1275 916.5 1323 c 128,-1,28
 868 1371 868 1371 803.5 1398.5 c 128,-1,29
 739 1426 739 1426 666 1426 c 256,30,31
 592 1426 592 1426 527.5 1398.5 c 128,-1,32
 463 1371 463 1371 415 1323 c 128,-1,33
 367 1275 367 1275 339 1210.5 c 128,-1,34
 311 1146 311 1146 311 1072 c 0,35,36
 311 1000 311 1000 339.5 936 c 128,-1,37
 368 872 368 872 416 823.5 c 128,-1,38
 464 775 464 775 528.5 746.5 c 128,-1,39
 593 718 593 718 666 718 c 0,20,21
637 1011 m 2,40,41
 633 1015 633 1015 628.5 1016 c 128,-1,42
 624 1017 624 1017 622 1017 c 1,43,-1
 622 819 l 1,44,-1
 506 819 l 1,45,-1
 506 1247 l 1,46,-1
 494 1322 l 1,47,48
 508 1323 508 1323 527 1325 c 128,-1,49
 546 1327 546 1327 565.5 1328 c 128,-1,50
 585 1329 585 1329 603.5 1330 c 128,-1,51
 622 1331 622 1331 636 1331 c 0,52,53
 726 1331 726 1331 781.5 1294 c 128,-1,54
 837 1257 837 1257 837 1186 c 0,55,56
 837 1149 837 1149 825.5 1123 c 128,-1,57
 814 1097 814 1097 795.5 1078.5 c 128,-1,58
 777 1060 777 1060 752.5 1047.5 c 128,-1,59
 728 1035 728 1035 701 1028 c 1,60,-1
 748 1017 l 1,61,-1
 890 819 l 1,62,-1
 770 819 l 1,63,-1
 637 1011 l 2,40,41
622 1202 m 1,64,-1
 622 1091 l 1,65,-1
 642 1091 l 2,66,67
 686 1091 686 1091 707 1118 c 128,-1,68
 728 1145 728 1145 728 1181 c 0,69,70
 728 1205 728 1205 720.5 1220.5 c 128,-1,71
 713 1236 713 1236 700.5 1245 c 128,-1,72
 688 1254 688 1254 673 1258 c 128,-1,73
 658 1262 658 1262 643 1262 c 2,74,-1
 626 1262 l 2,75,76
 622 1262 622 1262 615 1261 c 1,77,-1
 622 1202 l 1,64,-1
EndSplineSet
EndChar

StartChar: macron
Encoding: 175 175 114
Width: 1331
GlyphClass: 1
Flags: W
LayerCount: 2
Fore
SplineSet
307 1536 m 1,0,-1
 1024 1536 l 1,1,-1
 1024 1313 l 1,2,-1
 307 1313 l 1,3,-1
 307 1536 l 1,0,-1
EndSplineSet
EndChar

StartChar: degree
Encoding: 176 176 115
Width: 1331
GlyphClass: 1
Flags: W
LayerCount: 2
Fore
SplineSet
665.5 1553 m 0,0,1
 727.5 1553 727.5 1553 783 1531.5 c 128,-1,2
 838.5 1510 838.5 1510 880 1472.5 c 128,-1,3
 921.5 1435 921.5 1435 945 1384.5 c 128,-1,4
 968.5 1334 968.5 1334 968.5 1277 c 256,5,6
 968.5 1220 968.5 1220 945 1169.5 c 128,-1,7
 921.5 1119 921.5 1119 880 1081.5 c 128,-1,8
 838.5 1044 838.5 1044 783 1022 c 128,-1,9
 727.5 1000 727.5 1000 665.5 1000 c 0,10,11
 602.5 1000 602.5 1000 547.5 1022 c 128,-1,12
 492.5 1044 492.5 1044 451 1081.5 c 128,-1,13
 409.5 1119 409.5 1119 386 1169.5 c 128,-1,14
 362.5 1220 362.5 1220 362.5 1277 c 256,15,16
 362.5 1334 362.5 1334 386 1384.5 c 128,-1,17
 409.5 1435 409.5 1435 451 1472.5 c 128,-1,18
 492.5 1510 492.5 1510 547.5 1531.5 c 128,-1,19
 602.5 1553 602.5 1553 665.5 1553 c 0,0,1
665.5 1172 m 256,20,21
 689.5 1172 689.5 1172 710.5 1180.5 c 128,-1,22
 731.5 1189 731.5 1189 746.5 1203.5 c 128,-1,23
 761.5 1218 761.5 1218 771 1236.5 c 128,-1,24
 780.5 1255 780.5 1255 780.5 1277 c 256,25,26
 780.5 1299 780.5 1299 771 1317.5 c 128,-1,27
 761.5 1336 761.5 1336 746.5 1350.5 c 128,-1,28
 731.5 1365 731.5 1365 710.5 1373 c 128,-1,29
 689.5 1381 689.5 1381 665.5 1381 c 256,30,31
 641.5 1381 641.5 1381 620.5 1373 c 128,-1,32
 599.5 1365 599.5 1365 584.5 1350.5 c 128,-1,33
 569.5 1336 569.5 1336 560 1317 c 128,-1,34
 550.5 1298 550.5 1298 550.5 1277 c 256,35,36
 550.5 1255 550.5 1255 560 1236.5 c 128,-1,37
 569.5 1218 569.5 1218 584.5 1203.5 c 128,-1,38
 599.5 1189 599.5 1189 620.5 1180.5 c 128,-1,39
 641.5 1172 641.5 1172 665.5 1172 c 256,20,21
EndSplineSet
EndChar

StartChar: plusminus
Encoding: 177 177 116
Width: 1331
GlyphClass: 1
Flags: W
LayerCount: 2
Fore
SplineSet
184 883 m 1,0,-1
 553 883 l 1,1,-1
 553 1225 l 1,2,-1
 778 1225 l 1,3,-1
 778 883 l 1,4,-1
 1147 883 l 1,5,-1
 1147 719 l 1,6,-1
 778 719 l 1,7,-1
 778 391 l 1,8,-1
 553 391 l 1,9,-1
 553 719 l 1,10,-1
 184 719 l 1,11,-1
 184 883 l 1,0,-1
206 297 m 1,12,-1
 1127 297 l 1,13,-1
 1127 90 l 1,14,-1
 206 90 l 1,15,-1
 206 297 l 1,12,-1
EndSplineSet
EndChar

StartChar: twosuperior
Encoding: 178 178 117
Width: 1331
GlyphClass: 1
Flags: W
LayerCount: 2
Fore
SplineSet
407 737 m 1,0,-1
 407 835 l 1,1,2
 431 873 431 873 462.5 914 c 128,-1,3
 494 955 494 955 526.5 995 c 128,-1,4
 559 1035 559 1035 591 1071 c 128,-1,5
 623 1107 623 1107 647 1134 c 0,6,7
 675 1164 675 1164 694.5 1184 c 128,-1,8
 714 1204 714 1204 726 1221.5 c 128,-1,9
 738 1239 738 1239 743.5 1256.5 c 128,-1,10
 749 1274 749 1274 749 1298 c 0,11,12
 749 1317 749 1317 742 1336 c 128,-1,13
 735 1355 735 1355 723.5 1369.5 c 128,-1,14
 712 1384 712 1384 695 1393.5 c 128,-1,15
 678 1403 678 1403 658 1403 c 0,16,17
 616 1403 616 1403 584 1375 c 128,-1,18
 552 1347 552 1347 528 1298 c 1,19,-1
 409 1342 l 1,20,21
 439 1421 439 1421 502.5 1467 c 128,-1,22
 566 1513 566 1513 666 1513 c 0,23,24
 724 1513 724 1513 769.5 1494.5 c 128,-1,25
 815 1476 815 1476 846.5 1444.5 c 128,-1,26
 878 1413 878 1413 894.5 1373.5 c 128,-1,27
 911 1334 911 1334 911 1293 c 0,28,29
 911 1257 911 1257 899.5 1227 c 128,-1,30
 888 1197 888 1197 869 1169 c 128,-1,31
 850 1141 850 1141 826 1113 c 128,-1,32
 802 1085 802 1085 776 1055 c 256,33,34
 750 1024 750 1024 722.5 992.5 c 128,-1,35
 695 961 695 961 670.5 932 c 128,-1,36
 646 903 646 903 626 879 c 128,-1,37
 606 855 606 855 595 840 c 1,38,-1
 924 840 l 1,39,-1
 924 737 l 1,40,-1
 407 737 l 1,0,-1
EndSplineSet
EndChar

StartChar: threesuperior
Encoding: 179 179 118
Width: 1331
GlyphClass: 1
Flags: W
LayerCount: 2
Fore
SplineSet
476 1218 m 1,0,1
 499 1234 499 1234 533.5 1259.5 c 128,-1,2
 568 1285 568 1285 605 1316 c 128,-1,3
 642 1347 642 1347 674.5 1379 c 128,-1,4
 707 1411 707 1411 726 1441 c 1,5,-1
 592 1403 l 1,6,-1
 424 1403 l 1,7,-1
 434 1505 l 1,8,-1
 865 1505 l 1,9,-1
 865 1416 l 1,10,11
 850 1376 850 1376 820 1342.5 c 128,-1,12
 790 1309 790 1309 753 1276 c 1,13,-1
 673 1233 l 1,14,15
 727 1233 727 1233 771.5 1219 c 128,-1,16
 816 1205 816 1205 847.5 1179 c 128,-1,17
 879 1153 879 1153 896 1115 c 128,-1,18
 913 1077 913 1077 913 1030 c 0,19,20
 913 979 913 979 892 938 c 128,-1,21
 871 897 871 897 835 864 c 128,-1,22
 799 831 799 831 750.5 807 c 128,-1,23
 702 783 702 783 647 768 c 128,-1,24
 592 753 592 753 533.5 745 c 128,-1,25
 475 737 475 737 418 737 c 1,26,-1
 418 840 l 1,27,28
 478 842 478 842 536 855.5 c 128,-1,29
 594 869 594 869 639 892.5 c 128,-1,30
 684 916 684 916 711 949.5 c 128,-1,31
 738 983 738 983 738 1025 c 0,32,33
 738 1055 738 1055 725.5 1075.5 c 128,-1,34
 713 1096 713 1096 691.5 1108 c 128,-1,35
 670 1120 670 1120 641.5 1126 c 128,-1,36
 613 1132 613 1132 581 1132 c 0,37,38
 573 1132 573 1132 558.5 1131 c 128,-1,39
 544 1130 544 1130 528 1129 c 128,-1,40
 512 1128 512 1128 497.5 1127 c 128,-1,41
 483 1126 483 1126 476 1126 c 1,42,-1
 476 1218 l 1,0,1
EndSplineSet
EndChar

StartChar: acute
Encoding: 180 180 119
Width: 1331
GlyphClass: 1
Flags: W
LayerCount: 2
Fore
SplineSet
576.5 1536 m 1,0,-1
 921.5 1556 l 1,1,-1
 563.5 1163 l 5,2,-1
 343.5 1163 l 5,3,-1
 576.5 1536 l 1,0,-1
EndSplineSet
EndChar

StartChar: mu
Encoding: 181 181 120
Width: 1331
GlyphClass: 1
Flags: W
LayerCount: 2
Fore
SplineSet
1264 52 m 1,0,1
 1249 38 1249 38 1231.5 25.5 c 128,-1,2
 1214 13 1214 13 1188.5 3.5 c 128,-1,3
 1163 -6 1163 -6 1128.5 -11.5 c 128,-1,4
 1094 -17 1094 -17 1045 -17 c 0,5,6
 1010 -17 1010 -17 976.5 -5 c 128,-1,7
 943 7 943 7 913.5 32.5 c 128,-1,8
 884 58 884 58 858.5 98 c 128,-1,9
 833 138 833 138 817 195 c 1,10,-1
 769 74 l 1,11,12
 751 58 751 58 726.5 41.5 c 128,-1,13
 702 25 702 25 671.5 12 c 128,-1,14
 641 -1 641 -1 604 -9 c 128,-1,15
 567 -17 567 -17 523 -17 c 0,16,17
 503 -17 503 -17 473 -12 c 128,-1,18
 443 -7 443 -7 413 1.5 c 128,-1,19
 383 10 383 10 357.5 20.5 c 128,-1,20
 332 31 332 31 319 41 c 1,21,-1
 386 -170 l 1,22,-1
 386 -512 l 1,23,-1
 67 -512 l 1,24,-1
 67 1119 l 1,25,-1
 386 1152 l 1,26,-1
 386 371 l 2,27,28
 386 332 386 332 398.5 300.5 c 128,-1,29
 411 269 411 269 432 247.5 c 128,-1,30
 453 226 453 226 479.5 215 c 128,-1,31
 506 204 506 204 533 204 c 0,32,33
 577 204 577 204 614.5 225 c 128,-1,34
 652 246 652 246 682 274 c 1,35,-1
 682 1119 l 1,36,-1
 1000 1152 l 1,37,-1
 1000 374 l 2,38,39
 1000 280 1000 280 1019.5 242 c 128,-1,40
 1039 204 1039 204 1075 204 c 0,41,42
 1103 204 1103 204 1120 209.5 c 128,-1,43
 1137 215 1137 215 1163 228 c 1,44,-1
 1264 52 l 1,0,1
EndSplineSet
EndChar

StartChar: paragraph
Encoding: 182 182 121
Width: 1331
GlyphClass: 1
Flags: W
LayerCount: 2
Fore
SplineSet
947 1329 m 1,0,-1
 810 1329 l 1,1,-1
 810 -410 l 1,2,-1
 535 -410 l 1,3,-1
 535 618 l 1,4,5
 456 628 456 628 379.5 658 c 128,-1,6
 303 688 303 688 243 742 c 128,-1,7
 183 796 183 796 146.5 877.5 c 128,-1,8
 110 959 110 959 110 1075 c 0,9,10
 110 1164 110 1164 132.5 1233.5 c 128,-1,11
 155 1303 155 1303 194 1354 c 128,-1,12
 233 1405 233 1405 285 1440 c 128,-1,13
 337 1475 337 1475 395.5 1496.5 c 128,-1,14
 454 1518 454 1518 516 1527 c 128,-1,15
 578 1536 578 1536 637 1536 c 2,16,-1
 1221 1536 l 1,17,-1
 1221 -410 l 1,18,-1
 947 -410 l 1,19,-1
 947 1329 l 1,0,-1
EndSplineSet
EndChar

StartChar: periodcentered
Encoding: 183 183 122
Width: 1331
GlyphClass: 1
Flags: W
LayerCount: 2
Fore
SplineSet
463 699 m 256,0,1
 463 741 463 741 479 778 c 128,-1,2
 495 815 495 815 523 842.5 c 128,-1,3
 551 870 551 870 587 886 c 128,-1,4
 623 902 623 902 665 902 c 256,5,6
 707 902 707 902 744 886 c 128,-1,7
 781 870 781 870 808.5 842.5 c 128,-1,8
 836 815 836 815 852 778 c 128,-1,9
 868 741 868 741 868 699 c 256,10,11
 868 657 868 657 852 620 c 128,-1,12
 836 583 836 583 809 555 c 128,-1,13
 782 527 782 527 745 511 c 128,-1,14
 708 495 708 495 667 495 c 0,15,16
 625 495 625 495 588 511 c 128,-1,17
 551 527 551 527 523 555 c 128,-1,18
 495 583 495 583 479 620 c 128,-1,19
 463 657 463 657 463 699 c 256,0,1
EndSplineSet
EndChar

StartChar: cedilla
Encoding: 184 184 123
Width: 1331
GlyphClass: 1
Flags: W
LayerCount: 2
Fore
SplineSet
879.5 0 m 1,0,1
 907.5 -20 907.5 -20 929.5 -47 c 0,2,3
 948.5 -71 948.5 -71 965 -103 c 128,-1,4
 981.5 -135 981.5 -135 981.5 -175 c 0,5,6
 981.5 -226 981.5 -226 957 -270 c 128,-1,7
 932.5 -314 932.5 -314 892 -346.5 c 128,-1,8
 851.5 -379 851.5 -379 798 -398 c 128,-1,9
 744.5 -417 744.5 -417 686.5 -417 c 0,10,11
 625.5 -417 625.5 -417 566 -398.5 c 128,-1,12
 506.5 -380 506.5 -380 457.5 -357 c 0,13,14
 401.5 -330 401.5 -330 349.5 -297 c 1,15,-1
 467.5 -134 l 1,16,17
 500.5 -154 500.5 -154 532.5 -170 c 0,18,19
 559.5 -183 559.5 -183 589.5 -194 c 128,-1,20
 619.5 -205 619.5 -205 642.5 -205 c 0,21,22
 666.5 -205 666.5 -205 687 -192 c 128,-1,23
 707.5 -179 707.5 -179 707.5 -151 c 0,24,25
 707.5 -129 707.5 -129 695.5 -105 c 128,-1,26
 683.5 -81 683.5 -81 667 -59.5 c 128,-1,27
 650.5 -38 650.5 -38 634.5 -22 c 128,-1,28
 618.5 -6 618.5 -6 611.5 0 c 1,29,-1
 879.5 0 l 1,0,1
EndSplineSet
EndChar

StartChar: onesuperior
Encoding: 185 185 124
Width: 1331
GlyphClass: 1
Flags: W
LayerCount: 2
Fore
SplineSet
618.5 1188 m 1,0,-1
 656.5 1373 l 1,1,-1
 540.5 1235 l 1,2,-1
 497.5 1197 l 1,3,-1
 418.5 1291 l 1,4,-1
 663.5 1516 l 1,5,-1
 788.5 1505 l 1,6,-1
 788.5 840 l 1,7,-1
 912.5 840 l 1,8,-1
 912.5 737 l 1,9,-1
 494.5 737 l 1,10,-1
 494.5 840 l 1,11,-1
 618.5 840 l 1,12,-1
 618.5 1188 l 1,0,-1
EndSplineSet
EndChar

StartChar: ordmasculine
Encoding: 186 186 125
Width: 1331
GlyphClass: 1
Flags: W
LayerCount: 2
Fore
SplineSet
439 829 m 1,0,-1
 892 829 l 1,1,-1
 892 707 l 1,2,-1
 439 707 l 1,3,-1
 439 829 l 1,0,-1
668 973 m 0,4,5
 607 973 607 973 555.5 995.5 c 128,-1,6
 504 1018 504 1018 467 1057 c 128,-1,7
 430 1096 430 1096 409 1149 c 128,-1,8
 388 1202 388 1202 388 1265 c 256,9,10
 388 1327 388 1327 408 1380.5 c 128,-1,11
 428 1434 428 1434 465 1472.5 c 128,-1,12
 502 1511 502 1511 553.5 1533 c 128,-1,13
 605 1555 605 1555 668 1553 c 0,14,15
 729 1555 729 1555 779.5 1533 c 128,-1,16
 830 1511 830 1511 866.5 1472.5 c 128,-1,17
 903 1434 903 1434 923 1380.5 c 128,-1,18
 943 1327 943 1327 943 1265 c 256,19,20
 943 1203 943 1203 923.5 1149.5 c 128,-1,21
 904 1096 904 1096 868.5 1057 c 128,-1,22
 833 1018 833 1018 782 995.5 c 128,-1,23
 731 973 731 973 668 973 c 0,4,5
776 1252 m 0,24,25
 776 1287 776 1287 770 1321 c 128,-1,26
 764 1355 764 1355 750.5 1381.5 c 128,-1,27
 737 1408 737 1408 716 1424.5 c 128,-1,28
 695 1441 695 1441 666 1441 c 0,29,30
 637 1441 637 1441 616.5 1427 c 128,-1,31
 596 1413 596 1413 582.5 1389.5 c 128,-1,32
 569 1366 569 1366 562.5 1336 c 128,-1,33
 556 1306 556 1306 556 1274 c 0,34,35
 556 1239 556 1239 562.5 1205 c 128,-1,36
 569 1171 569 1171 583 1144.5 c 128,-1,37
 597 1118 597 1118 618.5 1101.5 c 128,-1,38
 640 1085 640 1085 670 1085 c 0,39,40
 698 1085 698 1085 718 1099.5 c 128,-1,41
 738 1114 738 1114 751 1137.5 c 128,-1,42
 764 1161 764 1161 770 1190.5 c 128,-1,43
 776 1220 776 1220 776 1252 c 0,24,25
EndSplineSet
EndChar

StartChar: guillemotright
Encoding: 187 187 126
Width: 1331
GlyphClass: 1
Flags: W
LayerCount: 2
Fore
SplineSet
742.5 634 m 1,0,-1
 742.5 487 l 1,1,-1
 172.5 -13 l 1,2,-1
 76.5 229 l 1,3,-1
 418.5 529 l 1,4,-1
 494.5 563 l 1,5,-1
 417.5 596 l 1,6,-1
 78.5 901 l 1,7,-1
 169.5 1133 l 1,8,-1
 742.5 634 l 1,0,-1
1254.5 634 m 1,9,-1
 1254.5 487 l 1,10,-1
 684.5 -13 l 1,11,-1
 588.5 229 l 1,12,-1
 930.5 529 l 1,13,-1
 1006.5 563 l 1,14,-1
 929.5 596 l 1,15,-1
 590.5 901 l 1,16,-1
 681.5 1133 l 1,17,-1
 1254.5 634 l 1,9,-1
EndSplineSet
EndChar

StartChar: onequarter
Encoding: 188 188 127
Width: 1331
GlyphClass: 1
Flags: W
LayerCount: 2
Fore
SplineSet
433 0 m 1,0,-1
 243 0 l 1,1,-1
 1037 1536 l 1,2,-1
 1217 1536 l 1,3,-1
 433 0 l 1,0,-1
1261 154 m 1,4,-1
 1170 154 l 1,5,-1
 1170 0 l 1,6,-1
 1006 0 l 1,7,-1
 1006 154 l 1,8,-1
 720 154 l 1,9,-1
 720 256 l 1,10,-1
 972 778 l 1,11,-1
 1116 768 l 1,12,-1
 946 390 l 1,13,-1
 857 256 l 1,14,-1
 1006 256 l 1,15,-1
 1006 399 l 1,16,-1
 1170 410 l 1,17,-1
 1170 256 l 1,18,-1
 1273 256 l 1,19,-1
 1261 154 l 1,4,-1
259 1188 m 1,20,-1
 297 1373 l 1,21,-1
 181 1235 l 1,22,-1
 138 1197 l 1,23,-1
 58 1291 l 1,24,-1
 304 1516 l 1,25,-1
 429 1505 l 1,26,-1
 429 840 l 1,27,-1
 553 840 l 1,28,-1
 553 737 l 1,29,-1
 135 737 l 1,30,-1
 135 840 l 1,31,-1
 259 840 l 1,32,-1
 259 1188 l 1,20,-1
EndSplineSet
EndChar

StartChar: onehalf
Encoding: 189 189 128
Width: 1331
GlyphClass: 1
Flags: W
LayerCount: 2
Fore
SplineSet
397.5 0 m 1,0,-1
 208.5 0 l 1,1,-1
 1001.5 1536 l 1,2,-1
 1182.5 1536 l 1,3,-1
 397.5 0 l 1,0,-1
760.5 0 m 1,4,-1
 760.5 97 l 1,5,6
 784.5 135 784.5 135 816 176.5 c 128,-1,7
 847.5 218 847.5 218 880 258 c 128,-1,8
 912.5 298 912.5 298 944.5 334 c 128,-1,9
 976.5 370 976.5 370 1000.5 396 c 0,10,11
 1028.5 426 1028.5 426 1048 446.5 c 128,-1,12
 1067.5 467 1067.5 467 1079.5 484.5 c 128,-1,13
 1091.5 502 1091.5 502 1097 519.5 c 128,-1,14
 1102.5 537 1102.5 537 1102.5 561 c 0,15,16
 1102.5 580 1102.5 580 1095.5 598.5 c 128,-1,17
 1088.5 617 1088.5 617 1077 632 c 128,-1,18
 1065.5 647 1065.5 647 1048.5 656.5 c 128,-1,19
 1031.5 666 1031.5 666 1011.5 666 c 0,20,21
 969.5 666 969.5 666 937.5 637.5 c 128,-1,22
 905.5 609 905.5 609 881.5 561 c 1,23,-1
 762.5 605 l 1,24,25
 792.5 684 792.5 684 856 730 c 128,-1,26
 919.5 776 919.5 776 1019.5 776 c 0,27,28
 1077.5 776 1077.5 776 1123 757 c 128,-1,29
 1168.5 738 1168.5 738 1200 707 c 128,-1,30
 1231.5 676 1231.5 676 1247.5 636.5 c 128,-1,31
 1263.5 597 1263.5 597 1263.5 556 c 0,32,33
 1263.5 520 1263.5 520 1252.5 490 c 128,-1,34
 1241.5 460 1241.5 460 1222.5 431.5 c 128,-1,35
 1203.5 403 1203.5 403 1179.5 375.5 c 128,-1,36
 1155.5 348 1155.5 348 1129.5 317 c 256,37,38
 1103.5 286 1103.5 286 1076 254.5 c 128,-1,39
 1048.5 223 1048.5 223 1024 194.5 c 128,-1,40
 999.5 166 999.5 166 979.5 142 c 128,-1,41
 959.5 118 959.5 118 948.5 102 c 1,42,-1
 1277.5 102 l 1,43,-1
 1277.5 0 l 1,44,-1
 760.5 0 l 1,4,-1
254.5 1188 m 1,45,-1
 292.5 1373 l 1,46,-1
 176.5 1235 l 1,47,-1
 133.5 1197 l 1,48,-1
 53.5 1291 l 1,49,-1
 299.5 1516 l 1,50,-1
 424.5 1505 l 1,51,-1
 424.5 840 l 1,52,-1
 548.5 840 l 1,53,-1
 548.5 737 l 1,54,-1
 130.5 737 l 1,55,-1
 130.5 840 l 1,56,-1
 254.5 840 l 1,57,-1
 254.5 1188 l 1,45,-1
EndSplineSet
EndChar

StartChar: threequarters
Encoding: 190 190 129
Width: 1331
GlyphClass: 1
Flags: W
LayerCount: 2
Fore
SplineSet
395.5 0 m 1,0,-1
 205.5 0 l 1,1,-1
 999.5 1536 l 1,2,-1
 1179.5 1536 l 1,3,-1
 395.5 0 l 1,0,-1
1201.5 154 m 1,4,-1
 1110.5 154 l 1,5,-1
 1110.5 0 l 1,6,-1
 946.5 0 l 1,7,-1
 946.5 154 l 1,8,-1
 659.5 154 l 1,9,-1
 659.5 256 l 1,10,-1
 911.5 778 l 1,11,-1
 1055.5 768 l 1,12,-1
 885.5 390 l 1,13,-1
 796.5 256 l 1,14,-1
 946.5 256 l 1,15,-1
 946.5 399 l 1,16,-1
 1110.5 410 l 1,17,-1
 1110.5 256 l 1,18,-1
 1212.5 256 l 1,19,-1
 1201.5 154 l 1,4,-1
176.5 1218 m 1,20,21
 199.5 1234 199.5 1234 234 1259.5 c 128,-1,22
 268.5 1285 268.5 1285 305.5 1316 c 128,-1,23
 342.5 1347 342.5 1347 375 1379 c 128,-1,24
 407.5 1411 407.5 1411 426.5 1441 c 1,25,-1
 292.5 1403 l 1,26,-1
 124.5 1403 l 1,27,-1
 134.5 1505 l 1,28,-1
 565.5 1505 l 1,29,-1
 565.5 1416 l 1,30,31
 550.5 1376 550.5 1376 520.5 1342.5 c 128,-1,32
 490.5 1309 490.5 1309 453.5 1276 c 1,33,-1
 373.5 1233 l 1,34,35
 427.5 1233 427.5 1233 472 1219 c 128,-1,36
 516.5 1205 516.5 1205 548 1179 c 128,-1,37
 579.5 1153 579.5 1153 596.5 1115 c 128,-1,38
 613.5 1077 613.5 1077 613.5 1030 c 0,39,40
 613.5 979 613.5 979 592.5 938 c 128,-1,41
 571.5 897 571.5 897 535.5 864 c 128,-1,42
 499.5 831 499.5 831 451 807 c 128,-1,43
 402.5 783 402.5 783 347.5 768 c 128,-1,44
 292.5 753 292.5 753 234 745 c 128,-1,45
 175.5 737 175.5 737 118.5 737 c 1,46,-1
 118.5 840 l 1,47,48
 178.5 842 178.5 842 236.5 855.5 c 128,-1,49
 294.5 869 294.5 869 339.5 892.5 c 128,-1,50
 384.5 916 384.5 916 411.5 949.5 c 128,-1,51
 438.5 983 438.5 983 438.5 1025 c 0,52,53
 438.5 1055 438.5 1055 426 1075.5 c 128,-1,54
 413.5 1096 413.5 1096 392 1108 c 128,-1,55
 370.5 1120 370.5 1120 342 1126 c 128,-1,56
 313.5 1132 313.5 1132 281.5 1132 c 0,57,58
 273.5 1132 273.5 1132 259 1131 c 128,-1,59
 244.5 1130 244.5 1130 228.5 1129 c 128,-1,60
 212.5 1128 212.5 1128 198 1127 c 128,-1,61
 183.5 1126 183.5 1126 176.5 1126 c 1,62,-1
 176.5 1218 l 1,20,21
EndSplineSet
EndChar

StartChar: questiondown
Encoding: 191 191 130
Width: 1331
GlyphClass: 1
Flags: W
LayerCount: 2
Fore
SplineSet
151.5 -25 m 0,0,1
 151.5 36 151.5 36 172 87 c 128,-1,2
 192.5 138 192.5 138 226 181.5 c 128,-1,3
 259.5 225 259.5 225 302 264.5 c 128,-1,4
 344.5 304 344.5 304 388.5 343 c 0,5,6
 418.5 369 418.5 369 448.5 401 c 128,-1,7
 478.5 433 478.5 433 502.5 474 c 128,-1,8
 526.5 515 526.5 515 541.5 566 c 128,-1,9
 556.5 617 556.5 617 556.5 682 c 1,10,-1
 874.5 718 l 1,11,12
 873.5 629 873.5 629 861 551 c 128,-1,13
 848.5 473 848.5 473 818.5 405 c 128,-1,14
 788.5 337 788.5 337 740.5 276.5 c 128,-1,15
 692.5 216 692.5 216 619.5 162 c 0,16,17
 596.5 143 596.5 143 575.5 122 c 128,-1,18
 554.5 101 554.5 101 538 78 c 128,-1,19
 521.5 55 521.5 55 511 28 c 128,-1,20
 500.5 1 500.5 1 500.5 -33 c 0,21,22
 500.5 -74 500.5 -74 515.5 -103 c 128,-1,23
 530.5 -132 530.5 -132 555.5 -151 c 128,-1,24
 580.5 -170 580.5 -170 613.5 -178.5 c 128,-1,25
 646.5 -187 646.5 -187 681.5 -187 c 0,26,27
 708.5 -187 708.5 -187 747 -178.5 c 128,-1,28
 785.5 -170 785.5 -170 828.5 -150 c 128,-1,29
 871.5 -130 871.5 -130 915 -97.5 c 128,-1,30
 958.5 -65 958.5 -65 993.5 -17 c 1,31,-1
 1179.5 -172 l 1,32,33
 1121.5 -250 1121.5 -250 1055.5 -299.5 c 128,-1,34
 989.5 -349 989.5 -349 921 -377.5 c 128,-1,35
 852.5 -406 852.5 -406 785 -416.5 c 128,-1,36
 717.5 -427 717.5 -427 656.5 -427 c 0,37,38
 559.5 -427 559.5 -427 468.5 -403 c 128,-1,39
 377.5 -379 377.5 -379 307 -329.5 c 128,-1,40
 236.5 -280 236.5 -280 194 -204 c 128,-1,41
 151.5 -128 151.5 -128 151.5 -25 c 0,0,1
870.5 974 m 0,42,43
 870.5 939 870.5 939 857.5 909 c 128,-1,44
 844.5 879 844.5 879 821.5 856 c 128,-1,45
 798.5 833 798.5 833 768.5 819.5 c 128,-1,46
 738.5 806 738.5 806 703.5 806 c 256,47,48
 668.5 806 668.5 806 638.5 819.5 c 128,-1,49
 608.5 833 608.5 833 586 856 c 128,-1,50
 563.5 879 563.5 879 550 909 c 128,-1,51
 536.5 939 536.5 939 536.5 974 c 0,52,53
 536.5 1008 536.5 1008 549.5 1039 c 128,-1,54
 562.5 1070 562.5 1070 585 1093 c 128,-1,55
 607.5 1116 607.5 1116 637.5 1130 c 128,-1,56
 667.5 1144 667.5 1144 702.5 1144 c 256,57,58
 737.5 1144 737.5 1144 768 1130 c 128,-1,59
 798.5 1116 798.5 1116 821.5 1093 c 128,-1,60
 844.5 1070 844.5 1070 857.5 1039 c 128,-1,61
 870.5 1008 870.5 1008 870.5 974 c 0,42,43
EndSplineSet
EndChar

StartChar: Agrave
Encoding: 192 192 131
Width: 1331
GlyphClass: 1
Flags: W
LayerCount: 2
Fore
SplineSet
51 0 m 1,0,-1
 415 1315 l 1,1,-1
 452 1536 l 1,2,-1
 839 1556 l 1,3,-1
 1280 0 l 1,4,-1
 938 0 l 1,5,-1
 831 437 l 1,6,-1
 481 437 l 1,7,-1
 378 0 l 1,8,-1
 51 0 l 1,0,-1
658 1363 m 1,9,-1
 618 1014 l 1,10,-1
 542 662 l 1,11,-1
 771 662 l 1,12,-1
 697 1014 l 1,13,-1
 658 1363 l 1,9,-1
819 1638 m 1,14,-1
 599 1638 l 1,15,-1
 307 1966 l 1,16,-1
 652 1946 l 1,17,-1
 819 1638 l 1,14,-1
EndSplineSet
EndChar

StartChar: Aacute
Encoding: 193 193 132
Width: 1331
GlyphClass: 1
Flags: W
LayerCount: 2
Fore
SplineSet
51 0 m 1,0,-1
 415 1315 l 1,1,-1
 452 1536 l 1,2,-1
 839 1556 l 1,3,-1
 1280 0 l 1,4,-1
 938 0 l 1,5,-1
 831 437 l 1,6,-1
 481 437 l 1,7,-1
 378 0 l 1,8,-1
 51 0 l 1,0,-1
658 1363 m 1,9,-1
 618 1014 l 1,10,-1
 542 662 l 1,11,-1
 771 662 l 1,12,-1
 697 1014 l 1,13,-1
 658 1363 l 1,9,-1
679 1946 m 1,14,-1
 1024 1966 l 1,15,-1
 732 1638 l 1,16,-1
 512 1638 l 1,17,-1
 679 1946 l 1,14,-1
EndSplineSet
EndChar

StartChar: Acircumflex
Encoding: 194 194 133
Width: 1331
GlyphClass: 1
Flags: W
LayerCount: 2
Fore
SplineSet
51 0 m 1,0,-1
 415 1315 l 1,1,-1
 452 1536 l 1,2,-1
 839 1556 l 1,3,-1
 1280 0 l 1,4,-1
 938 0 l 1,5,-1
 831 437 l 1,6,-1
 481 437 l 1,7,-1
 378 0 l 1,8,-1
 51 0 l 1,0,-1
658 1363 m 1,9,-1
 618 1014 l 1,10,-1
 542 662 l 1,11,-1
 771 662 l 1,12,-1
 697 1014 l 1,13,-1
 658 1363 l 1,9,-1
981 1659 m 1,14,-1
 756 1659 l 1,15,-1
 684 1764 l 1,16,-1
 653 1894 l 1,17,-1
 623 1764 l 1,18,-1
 540 1659 l 1,19,-1
 295 1659 l 1,20,-1
 495 1946 l 1,21,-1
 792 1966 l 1,22,-1
 981 1659 l 1,14,-1
EndSplineSet
EndChar

StartChar: Atilde
Encoding: 195 195 134
Width: 1331
GlyphClass: 1
Flags: W
LayerCount: 2
Fore
SplineSet
51 0 m 1,0,-1
 415 1315 l 1,1,-1
 452 1536 l 1,2,-1
 839 1556 l 1,3,-1
 1280 0 l 1,4,-1
 938 0 l 1,5,-1
 831 437 l 1,6,-1
 481 437 l 1,7,-1
 378 0 l 1,8,-1
 51 0 l 1,0,-1
658 1363 m 1,9,-1
 618 1014 l 1,10,-1
 542 662 l 1,11,-1
 771 662 l 1,12,-1
 697 1014 l 1,13,-1
 658 1363 l 1,9,-1
261 1666 m 1,14,15
 265 1707 265 1707 281.5 1753.5 c 128,-1,16
 298 1800 298 1800 328.5 1839 c 128,-1,17
 359 1878 359 1878 406.5 1903.5 c 128,-1,18
 454 1929 454 1929 518 1929 c 0,19,20
 568 1929 568 1929 602.5 1916.5 c 128,-1,21
 637 1904 637 1904 664.5 1888.5 c 128,-1,22
 692 1873 692 1873 717 1860 c 128,-1,23
 742 1847 742 1847 774 1847 c 0,24,25
 796 1847 796 1847 810 1854.5 c 128,-1,26
 824 1862 824 1862 834 1874 c 128,-1,27
 844 1886 844 1886 849 1902.5 c 128,-1,28
 854 1919 854 1919 857 1937 c 1,29,-1
 1028 1927 l 1,30,31
 1025 1882 1025 1882 1010.5 1834.5 c 128,-1,32
 996 1787 996 1787 967 1748 c 128,-1,33
 938 1709 938 1709 892 1684 c 128,-1,34
 846 1659 846 1659 777 1659 c 0,35,36
 730 1659 730 1659 698 1671.5 c 128,-1,37
 666 1684 666 1684 639 1699.5 c 128,-1,38
 612 1715 612 1715 585 1728 c 128,-1,39
 558 1741 558 1741 522 1741 c 0,40,41
 504 1741 504 1741 491.5 1733.5 c 128,-1,42
 479 1726 479 1726 470.5 1715 c 128,-1,43
 462 1704 462 1704 457 1689 c 128,-1,44
 452 1674 452 1674 447 1659 c 1,45,-1
 261 1666 l 1,14,15
EndSplineSet
EndChar

StartChar: Adieresis
Encoding: 196 196 135
Width: 1331
GlyphClass: 1
Flags: W
LayerCount: 2
Fore
SplineSet
51 0 m 1,0,-1
 415 1315 l 1,1,-1
 452 1536 l 1,2,-1
 839 1556 l 1,3,-1
 1280 0 l 1,4,-1
 938 0 l 1,5,-1
 831 437 l 1,6,-1
 481 437 l 1,7,-1
 378 0 l 1,8,-1
 51 0 l 1,0,-1
658 1363 m 1,9,-1
 618 1014 l 1,10,-1
 542 662 l 1,11,-1
 771 662 l 1,12,-1
 697 1014 l 1,13,-1
 658 1363 l 1,9,-1
311 1911 m 1,14,-1
 594 1911 l 1,15,-1
 594 1638 l 1,16,-1
 311 1638 l 1,17,-1
 311 1911 l 1,14,-1
721 1911 m 1,18,-1
 1004 1911 l 1,19,-1
 1004 1638 l 1,20,-1
 721 1638 l 1,21,-1
 721 1911 l 1,18,-1
EndSplineSet
EndChar

StartChar: Aring
Encoding: 197 197 136
Width: 1331
GlyphClass: 1
Flags: W
LayerCount: 2
Fore
SplineSet
659 1973 m 256,0,1
 719 1973 719 1973 772 1950 c 128,-1,2
 825 1927 825 1927 864.5 1887.5 c 128,-1,3
 904 1848 904 1848 927 1795 c 128,-1,4
 950 1742 950 1742 950 1681 c 256,5,6
 950 1621 950 1621 927.5 1567 c 128,-1,7
 905 1513 905 1513 866 1473 c 2,8,-1
 863 1469 l 1,9,-1
 1280 0 l 1,10,-1
 938 0 l 1,11,-1
 831 437 l 1,12,-1
 481 437 l 1,13,-1
 378 0 l 1,14,-1
 51 0 l 1,15,-1
 415 1315 l 1,16,-1
 442 1484 l 1,17,18
 410 1521 410 1521 390 1567 c 0,19,20
 366 1621 366 1621 367 1681 c 256,21,22
 367 1741 367 1741 390 1794.5 c 128,-1,23
 413 1848 413 1848 453 1887.5 c 128,-1,24
 493 1927 493 1927 546 1950 c 128,-1,25
 599 1973 599 1973 659 1973 c 256,0,1
658 1363 m 1,26,-1
 618 1014 l 1,27,-1
 542 662 l 1,28,-1
 771 662 l 1,29,-1
 697 1014 l 1,30,-1
 658 1363 l 1,26,-1
660 1579 m 256,31,32
 680 1579 680 1579 698.5 1587 c 128,-1,33
 717 1595 717 1595 730 1609 c 128,-1,34
 743 1623 743 1623 751 1641.5 c 128,-1,35
 759 1660 759 1660 759 1680 c 256,36,37
 759 1700 759 1700 751 1718.5 c 128,-1,38
 743 1737 743 1737 730 1750.5 c 128,-1,39
 717 1764 717 1764 698.5 1772 c 128,-1,40
 680 1780 680 1780 659 1780 c 256,41,42
 639 1780 639 1780 620.5 1772 c 128,-1,43
 602 1764 602 1764 588.5 1750.5 c 128,-1,44
 575 1737 575 1737 567.5 1719 c 128,-1,45
 560 1701 560 1701 560 1680 c 256,46,47
 560 1660 560 1660 567.5 1641.5 c 128,-1,48
 575 1623 575 1623 589 1609 c 128,-1,49
 603 1595 603 1595 621.5 1587 c 128,-1,50
 640 1579 640 1579 660 1579 c 256,31,32
EndSplineSet
EndChar

StartChar: AE
Encoding: 198 198 137
Width: 1331
GlyphClass: 1
Flags: W
LayerCount: 2
Fore
SplineSet
1331 233 m 1,0,-1
 1304 0 l 1,1,-1
 597 0 l 1,2,-1
 615 237 l 1,3,-1
 615 437 l 1,4,-1
 440 437 l 1,5,6
 404 332 404 332 365.5 218 c 128,-1,7
 327 104 327 104 291 0 c 1,8,-1
 0 0 l 1,9,-1
 456 1315 l 1,10,-1
 503 1536 l 1,11,-1
 1293 1536 l 1,12,-1
 1293 1303 l 1,13,-1
 892 1303 l 1,14,15
 897 1267 897 1267 901 1231 c 128,-1,16
 905 1195 905 1195 908 1160 c 2,17,-1
 908 938 l 1,18,-1
 1225 938 l 1,19,-1
 1225 720 l 1,20,-1
 908 720 l 1,21,-1
 908 369 l 1,22,-1
 901 233 l 1,23,-1
 1331 233 l 1,0,-1
615 1229 m 1,24,-1
 556 871 l 1,25,-1
 489 613 l 1,26,-1
 615 613 l 1,27,-1
 615 1229 l 1,24,-1
EndSplineSet
EndChar

StartChar: Ccedilla
Encoding: 199 199 138
Width: 1331
GlyphClass: 1
Flags: W
LayerCount: 2
Fore
SplineSet
1239 136 m 1,0,1
 1135 53 1135 53 1020 17 c 0,2,3
 967 1 967 1 909 -7 c 1,4,5
 931 -24 931 -24 949 -47 c 0,6,7
 968 -71 968 -71 984 -103 c 128,-1,8
 1000 -135 1000 -135 1000 -175 c 0,9,10
 1000 -226 1000 -226 976 -270 c 128,-1,11
 952 -314 952 -314 911 -346.5 c 128,-1,12
 870 -379 870 -379 817 -398 c 128,-1,13
 764 -417 764 -417 706 -417 c 0,14,15
 645 -417 645 -417 585.5 -398.5 c 128,-1,16
 526 -380 526 -380 477 -357 c 0,17,18
 421 -330 421 -330 369 -297 c 1,19,-1
 486 -134 l 1,20,21
 519 -154 519 -154 552 -170 c 0,22,23
 579 -183 579 -183 609 -194 c 128,-1,24
 639 -205 639 -205 662 -205 c 0,25,26
 686 -205 686 -205 706.5 -192 c 128,-1,27
 727 -179 727 -179 727 -151 c 0,28,29
 727 -129 727 -129 714.5 -105 c 128,-1,30
 702 -81 702 -81 686 -59.5 c 128,-1,31
 670 -38 670 -38 653 -22 c 0,32,33
 642 -11 642 -11 636 -4 c 1,34,35
 556 11 556 11 487 46 c 0,36,37
 361 111 361 111 273 220.5 c 128,-1,38
 185 330 185 330 138.5 476.5 c 128,-1,39
 92 623 92 623 92 787 c 0,40,41
 92 890 92 890 109.5 987 c 128,-1,42
 127 1084 127 1084 163 1169.5 c 128,-1,43
 199 1255 199 1255 254 1325.5 c 128,-1,44
 309 1396 309 1396 385.5 1446.5 c 128,-1,45
 462 1497 462 1497 559 1525 c 128,-1,46
 656 1553 656 1553 776 1553 c 0,47,48
 909 1553 909 1553 1029 1508 c 128,-1,49
 1149 1463 1149 1463 1239 1376 c 1,50,-1
 1087 1188 l 1,51,52
 1053 1211 1053 1211 1016 1231 c 128,-1,53
 979 1251 979 1251 941 1266.5 c 128,-1,54
 903 1282 903 1282 865 1291 c 128,-1,55
 827 1300 827 1300 793 1300 c 0,56,57
 696 1300 696 1300 630 1260.5 c 128,-1,58
 564 1221 564 1221 524 1151.5 c 128,-1,59
 484 1082 484 1082 467.5 989 c 128,-1,60
 451 896 451 896 451 791 c 0,61,62
 451 729 451 729 459.5 663.5 c 128,-1,63
 468 598 468 598 486 536.5 c 128,-1,64
 504 475 504 475 532 421 c 128,-1,65
 560 367 560 367 598.5 326.5 c 128,-1,66
 637 286 637 286 686 262.5 c 128,-1,67
 735 239 735 239 797 239 c 0,68,69
 832 239 832 239 865.5 244.5 c 128,-1,70
 899 250 899 250 936.5 262.5 c 128,-1,71
 974 275 974 275 1018 296 c 128,-1,72
 1062 317 1062 317 1117 348 c 1,73,-1
 1239 136 l 1,0,1
EndSplineSet
EndChar

StartChar: Egrave
Encoding: 200 200 139
Width: 1331
GlyphClass: 1
Flags: W
LayerCount: 2
Fore
SplineSet
1180 233 m 1,0,-1
 1153 0 l 1,1,-1
 170 0 l 1,2,-1
 187 237 l 1,3,-1
 187 1293 l 1,4,-1
 151 1536 l 1,5,-1
 1142 1536 l 1,6,-1
 1142 1303 l 1,7,-1
 531 1303 l 1,8,-1
 546 1161 l 1,9,-1
 546 938 l 1,10,-1
 1075 938 l 1,11,-1
 1075 720 l 1,12,-1
 546 720 l 1,13,-1
 546 369 l 1,14,-1
 538 233 l 1,15,-1
 1180 233 l 1,0,-1
835 1638 m 1,16,-1
 615 1638 l 1,17,-1
 323 1966 l 1,18,-1
 668 1946 l 1,19,-1
 835 1638 l 1,16,-1
EndSplineSet
EndChar

StartChar: Eacute
Encoding: 201 201 140
Width: 1331
GlyphClass: 1
Flags: W
LayerCount: 2
Fore
SplineSet
1180 233 m 1,0,-1
 1153 0 l 1,1,-1
 170 0 l 1,2,-1
 187 237 l 1,3,-1
 187 1293 l 1,4,-1
 151 1536 l 1,5,-1
 1142 1536 l 1,6,-1
 1142 1303 l 1,7,-1
 531 1303 l 1,8,-1
 546 1161 l 1,9,-1
 546 938 l 1,10,-1
 1075 938 l 1,11,-1
 1075 720 l 1,12,-1
 546 720 l 1,13,-1
 546 369 l 1,14,-1
 538 233 l 1,15,-1
 1180 233 l 1,0,-1
680 1946 m 1,16,-1
 1025 1966 l 1,17,-1
 733 1638 l 1,18,-1
 513 1638 l 1,19,-1
 680 1946 l 1,16,-1
EndSplineSet
EndChar

StartChar: Ecircumflex
Encoding: 202 202 141
Width: 1331
GlyphClass: 1
Flags: W
LayerCount: 2
Fore
SplineSet
1180 233 m 1,0,-1
 1153 0 l 1,1,-1
 170 0 l 1,2,-1
 187 237 l 1,3,-1
 187 1293 l 1,4,-1
 151 1536 l 1,5,-1
 1142 1536 l 1,6,-1
 1142 1303 l 1,7,-1
 531 1303 l 1,8,-1
 546 1161 l 1,9,-1
 546 938 l 1,10,-1
 1075 938 l 1,11,-1
 1075 720 l 1,12,-1
 546 720 l 1,13,-1
 546 369 l 1,14,-1
 538 233 l 1,15,-1
 1180 233 l 1,0,-1
1009 1659 m 1,16,-1
 784 1659 l 1,17,-1
 712 1764 l 1,18,-1
 682 1894 l 1,19,-1
 651 1764 l 1,20,-1
 568 1659 l 1,21,-1
 323 1659 l 1,22,-1
 523 1946 l 1,23,-1
 820 1966 l 1,24,-1
 1009 1659 l 1,16,-1
EndSplineSet
EndChar

StartChar: Edieresis
Encoding: 203 203 142
Width: 1331
GlyphClass: 1
Flags: W
LayerCount: 2
Fore
SplineSet
1180 233 m 1,0,-1
 1153 0 l 1,1,-1
 170 0 l 1,2,-1
 187 237 l 1,3,-1
 187 1293 l 1,4,-1
 151 1536 l 1,5,-1
 1142 1536 l 1,6,-1
 1142 1303 l 1,7,-1
 531 1303 l 1,8,-1
 546 1161 l 1,9,-1
 546 938 l 1,10,-1
 1075 938 l 1,11,-1
 1075 720 l 1,12,-1
 546 720 l 1,13,-1
 546 369 l 1,14,-1
 538 233 l 1,15,-1
 1180 233 l 1,0,-1
335 1911 m 1,16,-1
 618 1911 l 1,17,-1
 618 1638 l 1,18,-1
 335 1638 l 1,19,-1
 335 1911 l 1,16,-1
745 1911 m 1,20,-1
 1028 1911 l 1,21,-1
 1028 1638 l 1,22,-1
 745 1638 l 1,23,-1
 745 1911 l 1,20,-1
EndSplineSet
EndChar

StartChar: Igrave
Encoding: 204 204 143
Width: 1331
GlyphClass: 1
Flags: W
LayerCount: 2
Fore
SplineSet
220 1536 m 1,0,-1
 1119 1536 l 1,1,-1
 1119 1303 l 1,2,-1
 839 1303 l 1,3,-1
 839 233 l 1,4,-1
 1147 233 l 1,5,-1
 1111 0 l 1,6,-1
 212 0 l 1,7,-1
 212 233 l 1,8,-1
 497 233 l 1,9,-1
 497 1303 l 1,10,-1
 184 1303 l 1,11,-1
 220 1536 l 1,0,-1
840 1638 m 1,12,-1
 620 1638 l 1,13,-1
 328 1966 l 1,14,-1
 673 1946 l 1,15,-1
 840 1638 l 1,12,-1
EndSplineSet
EndChar

StartChar: Iacute
Encoding: 205 205 144
Width: 1331
GlyphClass: 1
Flags: W
LayerCount: 2
Fore
SplineSet
220 1536 m 1,0,-1
 1119 1536 l 1,1,-1
 1119 1303 l 1,2,-1
 839 1303 l 1,3,-1
 839 233 l 1,4,-1
 1147 233 l 1,5,-1
 1111 0 l 1,6,-1
 212 0 l 1,7,-1
 212 233 l 1,8,-1
 497 233 l 1,9,-1
 497 1303 l 1,10,-1
 184 1303 l 1,11,-1
 220 1536 l 1,0,-1
667 1946 m 1,12,-1
 1012 1966 l 1,13,-1
 720 1638 l 1,14,-1
 500 1638 l 1,15,-1
 667 1946 l 1,12,-1
EndSplineSet
EndChar

StartChar: Icircumflex
Encoding: 206 206 145
Width: 1331
GlyphClass: 1
Flags: W
LayerCount: 2
Fore
SplineSet
220 1536 m 1,0,-1
 1119 1536 l 1,1,-1
 1119 1303 l 1,2,-1
 839 1303 l 1,3,-1
 839 233 l 1,4,-1
 1147 233 l 1,5,-1
 1111 0 l 1,6,-1
 212 0 l 1,7,-1
 212 233 l 1,8,-1
 497 233 l 1,9,-1
 497 1303 l 1,10,-1
 184 1303 l 1,11,-1
 220 1536 l 1,0,-1
1004 1663 m 1,12,-1
 779 1663 l 1,13,-1
 707 1768 l 1,14,-1
 676 1898 l 1,15,-1
 646 1768 l 1,16,-1
 563 1663 l 1,17,-1
 318 1663 l 1,18,-1
 518 1950 l 1,19,-1
 814 1970 l 1,20,-1
 1004 1663 l 1,12,-1
EndSplineSet
EndChar

StartChar: Idieresis
Encoding: 207 207 146
Width: 1331
GlyphClass: 1
Flags: W
LayerCount: 2
Fore
SplineSet
220 1536 m 1,0,-1
 1119 1536 l 1,1,-1
 1119 1303 l 1,2,-1
 839 1303 l 1,3,-1
 839 233 l 1,4,-1
 1147 233 l 1,5,-1
 1111 0 l 1,6,-1
 212 0 l 1,7,-1
 212 233 l 1,8,-1
 497 233 l 1,9,-1
 497 1303 l 1,10,-1
 184 1303 l 1,11,-1
 220 1536 l 1,0,-1
324 2013 m 1,12,-1
 607 2013 l 1,13,-1
 607 1741 l 1,14,-1
 324 1741 l 1,15,-1
 324 2013 l 1,12,-1
734 2013 m 1,16,-1
 1016 2013 l 1,17,-1
 1016 1741 l 1,18,-1
 734 1741 l 1,19,-1
 734 2013 l 1,16,-1
EndSplineSet
EndChar

StartChar: Eth
Encoding: 208 208 147
Width: 1331
GlyphClass: 1
Flags: W
LayerCount: 2
Fore
SplineSet
0.5 909 m 1,0,-1
 164.5 909 l 1,1,-1
 164.5 1293 l 1,2,-1
 129.5 1536 l 1,3,4
 179.5 1541 179.5 1541 236 1544 c 128,-1,5
 292.5 1547 292.5 1547 347 1549 c 128,-1,6
 401.5 1551 401.5 1551 450.5 1552 c 128,-1,7
 499.5 1553 499.5 1553 532.5 1553 c 0,8,9
 704.5 1553 704.5 1553 850.5 1511.5 c 128,-1,10
 996.5 1470 996.5 1470 1103 1382 c 128,-1,11
 1209.5 1294 1209.5 1294 1270 1156.5 c 128,-1,12
 1330.5 1019 1330.5 1019 1330.5 826 c 0,13,14
 1330.5 678 1330.5 678 1301 558.5 c 128,-1,15
 1271.5 439 1271.5 439 1217.5 347.5 c 128,-1,16
 1163.5 256 1163.5 256 1089 190 c 128,-1,17
 1014.5 124 1014.5 124 925 82 c 128,-1,18
 835.5 40 835.5 40 734 20 c 128,-1,19
 632.5 0 632.5 0 524.5 0 c 2,20,-1
 164.5 0 l 1,21,-1
 164.5 681 l 1,22,-1
 0.5 681 l 1,23,-1
 0.5 909 l 1,0,-1
524.5 1320 m 2,24,-1
 513.5 1320 l 2,25,26
 508.5 1320 508.5 1320 502.5 1319 c 1,27,-1
 523.5 1154 l 1,28,-1
 523.5 909 l 1,29,-1
 708.5 909 l 1,30,-1
 708.5 681 l 1,31,-1
 523.5 681 l 1,32,-1
 523.5 236 l 1,33,34
 631.5 242 631.5 242 706.5 272.5 c 128,-1,35
 781.5 303 781.5 303 831.5 348.5 c 128,-1,36
 881.5 394 881.5 394 909.5 451 c 128,-1,37
 937.5 508 937.5 508 951.5 568.5 c 128,-1,38
 965.5 629 965.5 629 968.5 687.5 c 128,-1,39
 971.5 746 971.5 746 971.5 797 c 0,40,41
 971.5 912 971.5 912 953.5 1008 c 128,-1,42
 935.5 1104 935.5 1104 886.5 1173.5 c 128,-1,43
 837.5 1243 837.5 1243 750 1281.5 c 128,-1,44
 662.5 1320 662.5 1320 524.5 1320 c 2,24,-1
EndSplineSet
EndChar

StartChar: Ntilde
Encoding: 209 209 148
Width: 1331
GlyphClass: 1
Flags: W
LayerCount: 2
Fore
SplineSet
921 0 m 1,0,-1
 426 973 l 1,1,-1
 415 973 l 1,2,-1
 479 665 l 1,3,-1
 479 0 l 1,4,-1
 148 0 l 1,5,-1
 148 1293 l 1,6,-1
 114 1536 l 1,7,-1
 448 1556 l 1,8,-1
 938 614 l 1,9,-1
 948 614 l 1,10,-1
 887 872 l 1,11,-1
 887 1536 l 1,12,-1
 1217 1556 l 1,13,-1
 1217 0 l 1,14,-1
 921 0 l 1,0,-1
297 1666 m 1,15,16
 301 1707 301 1707 317 1753.5 c 128,-1,17
 333 1800 333 1800 364 1839 c 128,-1,18
 395 1878 395 1878 442 1903.5 c 128,-1,19
 489 1929 489 1929 554 1929 c 0,20,21
 604 1929 604 1929 638 1916.5 c 128,-1,22
 672 1904 672 1904 700 1888.5 c 128,-1,23
 728 1873 728 1873 753 1860 c 128,-1,24
 778 1847 778 1847 810 1847 c 0,25,26
 832 1847 832 1847 846 1854.5 c 128,-1,27
 860 1862 860 1862 869.5 1874 c 128,-1,28
 879 1886 879 1886 884 1902.5 c 128,-1,29
 889 1919 889 1919 893 1937 c 1,30,-1
 1064 1927 l 1,31,32
 1061 1882 1061 1882 1046.5 1834.5 c 128,-1,33
 1032 1787 1032 1787 1002.5 1748 c 128,-1,34
 973 1709 973 1709 927 1684 c 128,-1,35
 881 1659 881 1659 813 1659 c 0,36,37
 766 1659 766 1659 733.5 1671.5 c 128,-1,38
 701 1684 701 1684 674.5 1699.5 c 128,-1,39
 648 1715 648 1715 621 1728 c 128,-1,40
 594 1741 594 1741 558 1741 c 0,41,42
 540 1741 540 1741 527.5 1733.5 c 128,-1,43
 515 1726 515 1726 506 1715 c 128,-1,44
 497 1704 497 1704 492 1689 c 128,-1,45
 487 1674 487 1674 483 1659 c 1,46,-1
 297 1666 l 1,15,16
EndSplineSet
EndChar

StartChar: Ograve
Encoding: 210 210 149
Width: 1331
GlyphClass: 1
Flags: W
LayerCount: 2
Fore
SplineSet
666 -17 m 0,0,1
 566 -17 566 -17 481.5 11 c 128,-1,2
 397 39 397 39 328.5 90.5 c 128,-1,3
 260 142 260 142 208.5 214 c 128,-1,4
 157 286 157 286 122 373.5 c 128,-1,5
 87 461 87 461 70 560.5 c 128,-1,6
 53 660 53 660 53 768 c 0,7,8
 53 929 53 929 90.5 1072 c 128,-1,9
 128 1215 128 1215 204.5 1321.5 c 128,-1,10
 281 1428 281 1428 396 1490.5 c 128,-1,11
 511 1553 511 1553 666 1553 c 0,12,13
 817 1553 817 1553 931 1490.5 c 128,-1,14
 1045 1428 1045 1428 1122 1321.5 c 128,-1,15
 1199 1215 1199 1215 1238.5 1072 c 128,-1,16
 1278 929 1278 929 1278 768 c 0,17,18
 1278 660 1278 660 1261.5 560.5 c 128,-1,19
 1245 461 1245 461 1211 373.5 c 128,-1,20
 1177 286 1177 286 1126.5 214 c 128,-1,21
 1076 142 1076 142 1007.5 90.5 c 128,-1,22
 939 39 939 39 853.5 11 c 128,-1,23
 768 -17 768 -17 666 -17 c 0,0,1
920 738 m 0,24,25
 920 801 920 801 916.5 868 c 128,-1,26
 913 935 913 935 903 998 c 128,-1,27
 893 1061 893 1061 875 1116.5 c 128,-1,28
 857 1172 857 1172 828 1214 c 128,-1,29
 799 1256 799 1256 757.5 1280.5 c 128,-1,30
 716 1305 716 1305 660 1305 c 0,31,32
 607 1305 607 1305 568 1283 c 128,-1,33
 529 1261 529 1261 501 1223.5 c 128,-1,34
 473 1186 473 1186 455.5 1136 c 128,-1,35
 438 1086 438 1086 428 1030.5 c 128,-1,36
 418 975 418 975 414.5 916 c 128,-1,37
 411 857 411 857 411 802 c 0,38,39
 411 737 411 737 414.5 670 c 128,-1,40
 418 603 418 603 428.5 539.5 c 128,-1,41
 439 476 439 476 456.5 420.5 c 128,-1,42
 474 365 474 365 503 323 c 128,-1,43
 532 281 532 281 573.5 256 c 128,-1,44
 615 231 615 231 671 231 c 0,45,46
 724 231 724 231 763 253 c 128,-1,47
 802 275 802 275 829.5 313.5 c 128,-1,48
 857 352 857 352 874.5 402.5 c 128,-1,49
 892 453 892 453 902.5 509 c 128,-1,50
 913 565 913 565 916.5 624 c 128,-1,51
 920 683 920 683 920 738 c 0,24,25
847 1638 m 1,52,-1
 627 1638 l 1,53,-1
 335 1966 l 1,54,-1
 680 1946 l 1,55,-1
 847 1638 l 1,52,-1
EndSplineSet
EndChar

StartChar: Oacute
Encoding: 211 211 150
Width: 1331
GlyphClass: 1
Flags: W
LayerCount: 2
Fore
SplineSet
666 -17 m 0,0,1
 566 -17 566 -17 481.5 11 c 128,-1,2
 397 39 397 39 328.5 90.5 c 128,-1,3
 260 142 260 142 208.5 214 c 128,-1,4
 157 286 157 286 122 373.5 c 128,-1,5
 87 461 87 461 70 560.5 c 128,-1,6
 53 660 53 660 53 768 c 0,7,8
 53 929 53 929 90.5 1072 c 128,-1,9
 128 1215 128 1215 204.5 1321.5 c 128,-1,10
 281 1428 281 1428 396 1490.5 c 128,-1,11
 511 1553 511 1553 666 1553 c 0,12,13
 817 1553 817 1553 931 1490.5 c 128,-1,14
 1045 1428 1045 1428 1122 1321.5 c 128,-1,15
 1199 1215 1199 1215 1238.5 1072 c 128,-1,16
 1278 929 1278 929 1278 768 c 0,17,18
 1278 660 1278 660 1261.5 560.5 c 128,-1,19
 1245 461 1245 461 1211 373.5 c 128,-1,20
 1177 286 1177 286 1126.5 214 c 128,-1,21
 1076 142 1076 142 1007.5 90.5 c 128,-1,22
 939 39 939 39 853.5 11 c 128,-1,23
 768 -17 768 -17 666 -17 c 0,0,1
920 738 m 0,24,25
 920 801 920 801 916.5 868 c 128,-1,26
 913 935 913 935 903 998 c 128,-1,27
 893 1061 893 1061 875 1116.5 c 128,-1,28
 857 1172 857 1172 828 1214 c 128,-1,29
 799 1256 799 1256 757.5 1280.5 c 128,-1,30
 716 1305 716 1305 660 1305 c 0,31,32
 607 1305 607 1305 568 1283 c 128,-1,33
 529 1261 529 1261 501 1223.5 c 128,-1,34
 473 1186 473 1186 455.5 1136 c 128,-1,35
 438 1086 438 1086 428 1030.5 c 128,-1,36
 418 975 418 975 414.5 916 c 128,-1,37
 411 857 411 857 411 802 c 0,38,39
 411 737 411 737 414.5 670 c 128,-1,40
 418 603 418 603 428.5 539.5 c 128,-1,41
 439 476 439 476 456.5 420.5 c 128,-1,42
 474 365 474 365 503 323 c 128,-1,43
 532 281 532 281 573.5 256 c 128,-1,44
 615 231 615 231 671 231 c 0,45,46
 724 231 724 231 763 253 c 128,-1,47
 802 275 802 275 829.5 313.5 c 128,-1,48
 857 352 857 352 874.5 402.5 c 128,-1,49
 892 453 892 453 902.5 509 c 128,-1,50
 913 565 913 565 916.5 624 c 128,-1,51
 920 683 920 683 920 738 c 0,24,25
605 1946 m 1,52,-1
 950 1966 l 1,53,-1
 658 1638 l 1,54,-1
 438 1638 l 1,55,-1
 605 1946 l 1,52,-1
EndSplineSet
EndChar

StartChar: Ocircumflex
Encoding: 212 212 151
Width: 1331
GlyphClass: 1
Flags: W
LayerCount: 2
Fore
SplineSet
666 -17 m 0,0,1
 566 -17 566 -17 481.5 11 c 128,-1,2
 397 39 397 39 328.5 90.5 c 128,-1,3
 260 142 260 142 208.5 214 c 128,-1,4
 157 286 157 286 122 373.5 c 128,-1,5
 87 461 87 461 70 560.5 c 128,-1,6
 53 660 53 660 53 768 c 0,7,8
 53 929 53 929 90.5 1072 c 128,-1,9
 128 1215 128 1215 204.5 1321.5 c 128,-1,10
 281 1428 281 1428 396 1490.5 c 128,-1,11
 511 1553 511 1553 666 1553 c 0,12,13
 817 1553 817 1553 931 1490.5 c 128,-1,14
 1045 1428 1045 1428 1122 1321.5 c 128,-1,15
 1199 1215 1199 1215 1238.5 1072 c 128,-1,16
 1278 929 1278 929 1278 768 c 0,17,18
 1278 660 1278 660 1261 560.5 c 128,-1,19
 1244 461 1244 461 1210.5 373.5 c 128,-1,20
 1177 286 1177 286 1126.5 214 c 128,-1,21
 1076 142 1076 142 1007.5 90.5 c 128,-1,22
 939 39 939 39 853.5 11 c 128,-1,23
 768 -17 768 -17 666 -17 c 0,0,1
920 738 m 0,24,25
 920 801 920 801 916.5 868 c 128,-1,26
 913 935 913 935 903 998 c 128,-1,27
 893 1061 893 1061 875 1116.5 c 128,-1,28
 857 1172 857 1172 828 1214 c 128,-1,29
 799 1256 799 1256 757.5 1280.5 c 128,-1,30
 716 1305 716 1305 660 1305 c 0,31,32
 607 1305 607 1305 568 1283 c 128,-1,33
 529 1261 529 1261 501 1223.5 c 128,-1,34
 473 1186 473 1186 455.5 1136 c 128,-1,35
 438 1086 438 1086 428 1030.5 c 128,-1,36
 418 975 418 975 414.5 916 c 128,-1,37
 411 857 411 857 411 802 c 0,38,39
 411 737 411 737 414.5 670 c 128,-1,40
 418 603 418 603 428.5 539.5 c 128,-1,41
 439 476 439 476 456.5 420.5 c 128,-1,42
 474 365 474 365 503 323 c 128,-1,43
 532 281 532 281 573.5 256 c 128,-1,44
 615 231 615 231 671 231 c 0,45,46
 724 231 724 231 763 253 c 128,-1,47
 802 275 802 275 829.5 313.5 c 128,-1,48
 857 352 857 352 874.5 402.5 c 128,-1,49
 892 453 892 453 902.5 509 c 128,-1,50
 913 565 913 565 916.5 624 c 128,-1,51
 920 683 920 683 920 738 c 0,24,25
1004 1659 m 1,52,-1
 779 1659 l 1,53,-1
 707 1764 l 1,54,-1
 676 1894 l 1,55,-1
 645 1764 l 1,56,-1
 563 1659 l 1,57,-1
 318 1659 l 1,58,-1
 517 1946 l 1,59,-1
 814 1966 l 1,60,-1
 1004 1659 l 1,52,-1
EndSplineSet
EndChar

StartChar: Otilde
Encoding: 213 213 152
Width: 1331
GlyphClass: 1
Flags: W
LayerCount: 2
Fore
SplineSet
666 -17 m 0,0,1
 566 -17 566 -17 481.5 11 c 128,-1,2
 397 39 397 39 328.5 90.5 c 128,-1,3
 260 142 260 142 208.5 214 c 128,-1,4
 157 286 157 286 122 373.5 c 128,-1,5
 87 461 87 461 70 560.5 c 128,-1,6
 53 660 53 660 53 768 c 0,7,8
 53 929 53 929 90.5 1072 c 128,-1,9
 128 1215 128 1215 204.5 1321.5 c 128,-1,10
 281 1428 281 1428 396 1490.5 c 128,-1,11
 511 1553 511 1553 666 1553 c 0,12,13
 817 1553 817 1553 931 1490.5 c 128,-1,14
 1045 1428 1045 1428 1122 1321.5 c 128,-1,15
 1199 1215 1199 1215 1238.5 1072 c 128,-1,16
 1278 929 1278 929 1278 768 c 0,17,18
 1278 660 1278 660 1261.5 560.5 c 128,-1,19
 1245 461 1245 461 1211 373.5 c 128,-1,20
 1177 286 1177 286 1126.5 214 c 128,-1,21
 1076 142 1076 142 1007.5 90.5 c 128,-1,22
 939 39 939 39 853.5 11 c 128,-1,23
 768 -17 768 -17 666 -17 c 0,0,1
920 738 m 0,24,25
 920 801 920 801 916.5 868 c 128,-1,26
 913 935 913 935 903 998 c 128,-1,27
 893 1061 893 1061 875 1116.5 c 128,-1,28
 857 1172 857 1172 828 1214 c 128,-1,29
 799 1256 799 1256 757.5 1280.5 c 128,-1,30
 716 1305 716 1305 660 1305 c 0,31,32
 607 1305 607 1305 568 1283 c 128,-1,33
 529 1261 529 1261 501 1223.5 c 128,-1,34
 473 1186 473 1186 455.5 1136 c 128,-1,35
 438 1086 438 1086 428 1030.5 c 128,-1,36
 418 975 418 975 414.5 916 c 128,-1,37
 411 857 411 857 411 802 c 0,38,39
 411 737 411 737 414.5 670 c 128,-1,40
 418 603 418 603 428.5 539.5 c 128,-1,41
 439 476 439 476 456.5 420.5 c 128,-1,42
 474 365 474 365 503 323 c 128,-1,43
 532 281 532 281 573.5 256 c 128,-1,44
 615 231 615 231 671 231 c 0,45,46
 724 231 724 231 763 253 c 128,-1,47
 802 275 802 275 829.5 313.5 c 128,-1,48
 857 352 857 352 874.5 402.5 c 128,-1,49
 892 453 892 453 902.5 509 c 128,-1,50
 913 565 913 565 916.5 624 c 128,-1,51
 920 683 920 683 920 738 c 0,24,25
258 1666 m 1,52,53
 262 1707 262 1707 278.5 1753.5 c 128,-1,54
 295 1800 295 1800 326 1839 c 128,-1,55
 357 1878 357 1878 404 1903.5 c 128,-1,56
 451 1929 451 1929 515 1929 c 0,57,58
 565 1929 565 1929 599.5 1916.5 c 128,-1,59
 634 1904 634 1904 662 1888.5 c 128,-1,60
 690 1873 690 1873 715 1860 c 128,-1,61
 740 1847 740 1847 771 1847 c 0,62,63
 793 1847 793 1847 807.5 1854.5 c 128,-1,64
 822 1862 822 1862 831.5 1874 c 128,-1,65
 841 1886 841 1886 846 1902.5 c 128,-1,66
 851 1919 851 1919 854 1937 c 1,67,-1
 1025 1927 l 1,68,69
 1022 1882 1022 1882 1008 1834.5 c 128,-1,70
 994 1787 994 1787 964.5 1748 c 128,-1,71
 935 1709 935 1709 889 1684 c 128,-1,72
 843 1659 843 1659 774 1659 c 0,73,74
 727 1659 727 1659 695 1671.5 c 128,-1,75
 663 1684 663 1684 636.5 1699.5 c 128,-1,76
 610 1715 610 1715 582.5 1728 c 128,-1,77
 555 1741 555 1741 520 1741 c 0,78,79
 502 1741 502 1741 489.5 1733.5 c 128,-1,80
 477 1726 477 1726 468 1715 c 128,-1,81
 459 1704 459 1704 454 1689 c 128,-1,82
 449 1674 449 1674 445 1659 c 1,83,-1
 258 1666 l 1,52,53
EndSplineSet
EndChar

StartChar: Odieresis
Encoding: 214 214 153
Width: 1331
GlyphClass: 1
Flags: W
LayerCount: 2
Fore
SplineSet
666 -17 m 0,0,1
 566 -17 566 -17 481.5 11 c 128,-1,2
 397 39 397 39 328.5 90.5 c 128,-1,3
 260 142 260 142 208.5 214 c 128,-1,4
 157 286 157 286 122 373.5 c 128,-1,5
 87 461 87 461 70 560.5 c 128,-1,6
 53 660 53 660 53 768 c 0,7,8
 53 929 53 929 90.5 1072 c 128,-1,9
 128 1215 128 1215 204.5 1321.5 c 128,-1,10
 281 1428 281 1428 396 1490.5 c 128,-1,11
 511 1553 511 1553 666 1553 c 0,12,13
 817 1553 817 1553 931 1490.5 c 128,-1,14
 1045 1428 1045 1428 1122 1321.5 c 128,-1,15
 1199 1215 1199 1215 1238.5 1072 c 128,-1,16
 1278 929 1278 929 1278 768 c 0,17,18
 1278 660 1278 660 1261.5 560.5 c 128,-1,19
 1245 461 1245 461 1211 373.5 c 128,-1,20
 1177 286 1177 286 1126.5 214 c 128,-1,21
 1076 142 1076 142 1007.5 90.5 c 128,-1,22
 939 39 939 39 853.5 11 c 128,-1,23
 768 -17 768 -17 666 -17 c 0,0,1
920 738 m 0,24,25
 920 801 920 801 916.5 868 c 128,-1,26
 913 935 913 935 903 998 c 128,-1,27
 893 1061 893 1061 875 1116.5 c 128,-1,28
 857 1172 857 1172 828 1214 c 128,-1,29
 799 1256 799 1256 757.5 1280.5 c 128,-1,30
 716 1305 716 1305 660 1305 c 0,31,32
 607 1305 607 1305 568 1283 c 128,-1,33
 529 1261 529 1261 501 1223.5 c 128,-1,34
 473 1186 473 1186 455.5 1136 c 128,-1,35
 438 1086 438 1086 428 1030.5 c 128,-1,36
 418 975 418 975 414.5 916 c 128,-1,37
 411 857 411 857 411 802 c 0,38,39
 411 737 411 737 414.5 670 c 128,-1,40
 418 603 418 603 428.5 539.5 c 128,-1,41
 439 476 439 476 456.5 420.5 c 128,-1,42
 474 365 474 365 503 323 c 128,-1,43
 532 281 532 281 573.5 256 c 128,-1,44
 615 231 615 231 671 231 c 0,45,46
 724 231 724 231 763 253 c 128,-1,47
 802 275 802 275 829.5 313.5 c 128,-1,48
 857 352 857 352 874.5 402.5 c 128,-1,49
 892 453 892 453 902.5 509 c 128,-1,50
 913 565 913 565 916.5 624 c 128,-1,51
 920 683 920 683 920 738 c 0,24,25
317 1911 m 1,52,-1
 599 1911 l 1,53,-1
 599 1638 l 1,54,-1
 317 1638 l 1,55,-1
 317 1911 l 1,52,-1
726 1911 m 1,56,-1
 1009 1911 l 1,57,-1
 1009 1638 l 1,58,-1
 726 1638 l 1,59,-1
 726 1911 l 1,56,-1
EndSplineSet
EndChar

StartChar: multiply
Encoding: 215 215 154
Width: 1331
GlyphClass: 1
Flags: W
LayerCount: 2
Fore
SplineSet
310.5 122 m 1,0,-1
 119.5 275 l 1,1,-1
 494.5 648 l 1,2,-1
 119.5 1022 l 1,3,-1
 310.5 1177 l 1,4,-1
 618.5 867 l 1,5,-1
 690.5 746 l 1,6,-1
 713.5 867 l 1,7,-1
 1020.5 1177 l 1,8,-1
 1211.5 1022 l 1,9,-1
 838.5 648 l 1,10,-1
 1211.5 275 l 1,11,-1
 1020.5 122 l 1,12,-1
 713.5 429 l 1,13,-1
 641.5 551 l 1,14,-1
 618.5 429 l 1,15,-1
 310.5 122 l 1,0,-1
EndSplineSet
EndChar

StartChar: Oslash
Encoding: 216 216 155
Width: 1331
GlyphClass: 1
Flags: W
LayerCount: 2
Fore
SplineSet
666.5 -17 m 0,0,1
 566.5 -17 566.5 -17 480.5 10 c 0,2,3
 443.5 22 443.5 22 411.5 39 c 1,4,-1
 340.5 -102 l 1,5,-1
 125.5 -102 l 1,6,-1
 255.5 156 l 1,7,8
 230.5 184 230.5 184 208.5 214 c 0,9,10
 157.5 286 157.5 286 122.5 373.5 c 128,-1,11
 87.5 461 87.5 461 70 560.5 c 128,-1,12
 52.5 660 52.5 660 52.5 768 c 0,13,14
 52.5 929 52.5 929 90.5 1072 c 128,-1,15
 128.5 1215 128.5 1215 205 1321.5 c 128,-1,16
 281.5 1428 281.5 1428 396.5 1490.5 c 128,-1,17
 511.5 1553 511.5 1553 666.5 1553 c 0,18,19
 817.5 1553 817.5 1553 930.5 1491 c 1,20,-1
 1005.5 1638 l 1,21,-1
 1209.5 1638 l 1,22,-1
 1077.5 1375 l 1,23,24
 1101.5 1349 1101.5 1349 1121.5 1322 c 0,25,26
 1199.5 1216 1199.5 1216 1239 1072.5 c 128,-1,27
 1278.5 929 1278.5 929 1278.5 768 c 0,28,29
 1278.5 660 1278.5 660 1261.5 560.5 c 128,-1,30
 1244.5 461 1244.5 461 1211 373.5 c 128,-1,31
 1177.5 286 1177.5 286 1126.5 214 c 128,-1,32
 1075.5 142 1075.5 142 1007.5 90.5 c 128,-1,33
 939.5 39 939.5 39 854 11 c 128,-1,34
 768.5 -17 768.5 -17 666.5 -17 c 0,0,1
757.5 1280 m 0,35,36
 716.5 1305 716.5 1305 659.5 1305 c 0,37,38
 606.5 1305 606.5 1305 567.5 1283 c 128,-1,39
 528.5 1261 528.5 1261 501 1223.5 c 128,-1,40
 473.5 1186 473.5 1186 455.5 1136 c 128,-1,41
 437.5 1086 437.5 1086 428 1030.5 c 128,-1,42
 418.5 975 418.5 975 415 916 c 128,-1,43
 411.5 857 411.5 857 411.5 802 c 0,44,45
 411.5 737 411.5 737 415 670 c 128,-1,46
 418.5 603 418.5 603 428.5 540 c 0,47,48
 430.5 524 430.5 524 433.5 508 c 1,49,-1
 805.5 1243 l 1,50,51
 784.5 1265 784.5 1265 757.5 1280 c 0,35,36
920.5 738 m 0,52,53
 920.5 801 920.5 801 916.5 868 c 128,-1,54
 912.5 935 912.5 935 902.5 997 c 0,55,56
 901.5 1007 901.5 1007 899.5 1018 c 1,57,-1
 533.5 286 l 1,58,59
 550.5 269 550.5 269 572.5 256 c 0,60,61
 614.5 231 614.5 231 671.5 231 c 0,62,63
 724.5 231 724.5 231 763.5 253 c 128,-1,64
 802.5 275 802.5 275 830 313.5 c 128,-1,65
 857.5 352 857.5 352 875 402.5 c 128,-1,66
 892.5 453 892.5 453 902.5 509 c 128,-1,67
 912.5 565 912.5 565 916.5 624 c 128,-1,68
 920.5 683 920.5 683 920.5 738 c 0,52,53
EndSplineSet
EndChar

StartChar: Ugrave
Encoding: 217 217 156
Width: 1331
GlyphClass: 1
Flags: W
LayerCount: 2
Fore
SplineSet
1212.5 1536 m 1,0,-1
 1212.5 547 l 2,1,2
 1212.5 405 1212.5 405 1174.5 299 c 128,-1,3
 1136.5 193 1136.5 193 1065 122.5 c 128,-1,4
 993.5 52 993.5 52 890.5 17.5 c 128,-1,5
 787.5 -17 787.5 -17 658.5 -17 c 0,6,7
 519.5 -17 519.5 -17 423 27 c 128,-1,8
 326.5 71 326.5 71 266.5 151.5 c 128,-1,9
 206.5 232 206.5 232 180 345.5 c 128,-1,10
 153.5 459 153.5 459 153.5 596 c 2,11,-1
 153.5 1293 l 1,12,-1
 118.5 1536 l 1,13,-1
 493.5 1556 l 1,14,-1
 493.5 578 l 2,15,16
 493.5 495 493.5 495 500 429.5 c 128,-1,17
 506.5 364 506.5 364 527.5 318.5 c 128,-1,18
 548.5 273 548.5 273 587 249.5 c 128,-1,19
 625.5 226 625.5 226 690.5 226 c 0,20,21
 741.5 226 741.5 226 776 245 c 128,-1,22
 810.5 264 810.5 264 832 302 c 128,-1,23
 853.5 340 853.5 340 863 396.5 c 128,-1,24
 872.5 453 872.5 453 872.5 528 c 2,25,-1
 872.5 1536 l 1,26,-1
 1212.5 1536 l 1,0,-1
843.5 1638 m 1,27,-1
 623.5 1638 l 1,28,-1
 331.5 1966 l 1,29,-1
 676.5 1946 l 1,30,-1
 843.5 1638 l 1,27,-1
EndSplineSet
EndChar

StartChar: Uacute
Encoding: 218 218 157
Width: 1331
GlyphClass: 1
Flags: W
LayerCount: 2
Fore
SplineSet
1212.5 1536 m 1,0,-1
 1212.5 547 l 2,1,2
 1212.5 405 1212.5 405 1174.5 299 c 128,-1,3
 1136.5 193 1136.5 193 1065 122.5 c 128,-1,4
 993.5 52 993.5 52 890.5 17.5 c 128,-1,5
 787.5 -17 787.5 -17 658.5 -17 c 0,6,7
 519.5 -17 519.5 -17 423 27 c 128,-1,8
 326.5 71 326.5 71 266.5 151.5 c 128,-1,9
 206.5 232 206.5 232 180 345.5 c 128,-1,10
 153.5 459 153.5 459 153.5 596 c 2,11,-1
 153.5 1293 l 1,12,-1
 118.5 1536 l 1,13,-1
 493.5 1556 l 1,14,-1
 493.5 578 l 2,15,16
 493.5 495 493.5 495 500 429.5 c 128,-1,17
 506.5 364 506.5 364 527.5 318.5 c 128,-1,18
 548.5 273 548.5 273 587 249.5 c 128,-1,19
 625.5 226 625.5 226 690.5 226 c 0,20,21
 741.5 226 741.5 226 776 245 c 128,-1,22
 810.5 264 810.5 264 832 302 c 128,-1,23
 853.5 340 853.5 340 863 396.5 c 128,-1,24
 872.5 453 872.5 453 872.5 528 c 2,25,-1
 872.5 1536 l 1,26,-1
 1212.5 1536 l 1,0,-1
703.5 1946 m 1,27,-1
 1048.5 1966 l 1,28,-1
 756.5 1638 l 1,29,-1
 536.5 1638 l 1,30,-1
 703.5 1946 l 1,27,-1
EndSplineSet
EndChar

StartChar: Ucircumflex
Encoding: 219 219 158
Width: 1331
GlyphClass: 1
Flags: W
LayerCount: 2
Fore
SplineSet
1212.5 1536 m 1,0,-1
 1212.5 547 l 2,1,2
 1212.5 405 1212.5 405 1174.5 299 c 128,-1,3
 1136.5 193 1136.5 193 1065 122.5 c 128,-1,4
 993.5 52 993.5 52 890.5 17.5 c 128,-1,5
 787.5 -17 787.5 -17 658.5 -17 c 0,6,7
 519.5 -17 519.5 -17 423 27 c 128,-1,8
 326.5 71 326.5 71 266.5 151.5 c 128,-1,9
 206.5 232 206.5 232 180 345.5 c 128,-1,10
 153.5 459 153.5 459 153.5 596 c 2,11,-1
 153.5 1293 l 1,12,-1
 118.5 1536 l 1,13,-1
 493.5 1556 l 1,14,-1
 493.5 578 l 2,15,16
 493.5 495 493.5 495 500 429.5 c 128,-1,17
 506.5 364 506.5 364 527.5 318.5 c 128,-1,18
 548.5 273 548.5 273 587 249.5 c 128,-1,19
 625.5 226 625.5 226 690.5 226 c 0,20,21
 741.5 226 741.5 226 776 245 c 128,-1,22
 810.5 264 810.5 264 832 302 c 128,-1,23
 853.5 340 853.5 340 863 396.5 c 128,-1,24
 872.5 453 872.5 453 872.5 528 c 2,25,-1
 872.5 1536 l 1,26,-1
 1212.5 1536 l 1,0,-1
1016.5 1659 m 1,27,-1
 791.5 1659 l 1,28,-1
 719.5 1764 l 1,29,-1
 689.5 1894 l 1,30,-1
 658.5 1764 l 1,31,-1
 575.5 1659 l 1,32,-1
 330.5 1659 l 1,33,-1
 530.5 1946 l 1,34,-1
 827.5 1966 l 1,35,-1
 1016.5 1659 l 1,27,-1
EndSplineSet
EndChar

StartChar: Udieresis
Encoding: 220 220 159
Width: 1331
GlyphClass: 1
Flags: W
LayerCount: 2
Fore
SplineSet
1212.5 1536 m 1,0,-1
 1212.5 547 l 2,1,2
 1212.5 405 1212.5 405 1174.5 299 c 128,-1,3
 1136.5 193 1136.5 193 1065 122.5 c 128,-1,4
 993.5 52 993.5 52 890.5 17.5 c 128,-1,5
 787.5 -17 787.5 -17 658.5 -17 c 0,6,7
 519.5 -17 519.5 -17 423 27 c 128,-1,8
 326.5 71 326.5 71 266.5 151.5 c 128,-1,9
 206.5 232 206.5 232 180 345.5 c 128,-1,10
 153.5 459 153.5 459 153.5 596 c 2,11,-1
 153.5 1293 l 1,12,-1
 118.5 1536 l 1,13,-1
 493.5 1556 l 1,14,-1
 493.5 578 l 2,15,16
 493.5 495 493.5 495 500 429.5 c 128,-1,17
 506.5 364 506.5 364 527.5 318.5 c 128,-1,18
 548.5 273 548.5 273 587 249.5 c 128,-1,19
 625.5 226 625.5 226 690.5 226 c 0,20,21
 741.5 226 741.5 226 776 245 c 128,-1,22
 810.5 264 810.5 264 832 302 c 128,-1,23
 853.5 340 853.5 340 863 396.5 c 128,-1,24
 872.5 453 872.5 453 872.5 528 c 2,25,-1
 872.5 1536 l 1,26,-1
 1212.5 1536 l 1,0,-1
342.5 1911 m 1,27,-1
 625.5 1911 l 1,28,-1
 625.5 1638 l 1,29,-1
 342.5 1638 l 1,30,-1
 342.5 1911 l 1,27,-1
752.5 1911 m 1,31,-1
 1035.5 1911 l 1,32,-1
 1035.5 1638 l 1,33,-1
 752.5 1638 l 1,34,-1
 752.5 1911 l 1,31,-1
EndSplineSet
EndChar

StartChar: Yacute
Encoding: 221 221 160
Width: 1331
GlyphClass: 1
Flags: W
LayerCount: 2
Fore
SplineSet
588.5 1170 m 1,0,-1
 698.5 792 l 1,1,-1
 757.5 1170 l 1,2,-1
 943.5 1536 l 1,3,-1
 1286.5 1536 l 1,4,-1
 843.5 666 l 1,5,-1
 843.5 0 l 1,6,-1
 484.5 0 l 1,7,-1
 484.5 666 l 1,8,-1
 44.5 1536 l 1,9,-1
 391.5 1556 l 1,10,-1
 588.5 1170 l 1,0,-1
612.5 1946 m 1,11,-1
 957.5 1966 l 1,12,-1
 665.5 1638 l 1,13,-1
 445.5 1638 l 1,14,-1
 612.5 1946 l 1,11,-1
EndSplineSet
EndChar

StartChar: Thorn
Encoding: 222 222 161
Width: 1331
GlyphClass: 1
Flags: W
LayerCount: 2
Fore
SplineSet
163 1536 m 1,0,-1
 536 1536 l 1,1,-1
 536 1342 l 1,2,-1
 653 1342 l 2,3,4
 705 1342 705 1342 764 1333 c 128,-1,5
 823 1324 823 1324 879.5 1303 c 128,-1,6
 936 1282 936 1282 988.5 1248 c 128,-1,7
 1041 1214 1041 1214 1081 1165 c 128,-1,8
 1121 1116 1121 1116 1144.5 1051 c 128,-1,9
 1168 986 1168 986 1168 903 c 0,10,11
 1168 845 1168 845 1159 782 c 128,-1,12
 1150 719 1150 719 1122.5 658.5 c 128,-1,13
 1095 598 1095 598 1044.5 543.5 c 128,-1,14
 994 489 994 489 910 449 c 0,15,16
 883 437 883 437 853.5 426 c 128,-1,17
 824 415 824 415 788 407 c 128,-1,18
 752 399 752 399 709 394.5 c 128,-1,19
 666 390 666 390 614 390 c 2,20,-1
 536 390 l 1,21,-1
 536 0 l 1,22,-1
 186 0 l 1,23,-1
 186 1297 l 1,24,-1
 163 1536 l 1,0,-1
536 1119 m 1,25,-1
 536 620 l 1,26,-1
 643 620 l 2,27,28
 693 620 693 620 730 641.5 c 128,-1,29
 767 663 767 663 791 701 c 128,-1,30
 815 739 815 739 826.5 791 c 128,-1,31
 838 843 838 843 838 903 c 0,32,33
 838 1006 838 1006 780 1062.5 c 128,-1,34
 722 1119 722 1119 623 1119 c 2,35,-1
 536 1119 l 1,25,-1
EndSplineSet
EndChar

StartChar: germandbls
Encoding: 223 223 162
Width: 1331
GlyphClass: 1
Flags: W
LayerCount: 2
Fore
SplineSet
486.5 -17 m 1,0,-1
 135.5 0 l 1,1,-1
 135.5 1099 l 2,2,3
 135.5 1204 135.5 1204 172 1284 c 128,-1,4
 208.5 1364 208.5 1364 274.5 1417.5 c 128,-1,5
 340.5 1471 340.5 1471 431.5 1498 c 128,-1,6
 522.5 1525 522.5 1525 633.5 1525 c 0,7,8
 870.5 1525 870.5 1525 982.5 1406 c 0,9,10
 1008.5 1378 1008.5 1378 1030 1351 c 128,-1,11
 1051.5 1324 1051.5 1324 1066.5 1294 c 128,-1,12
 1081.5 1264 1081.5 1264 1090.5 1229.5 c 128,-1,13
 1099.5 1195 1099.5 1195 1099.5 1154 c 0,14,15
 1099.5 1100 1099.5 1100 1084 1052 c 128,-1,16
 1068.5 1004 1068.5 1004 1040.5 963 c 128,-1,17
 1012.5 922 1012.5 922 973 888.5 c 128,-1,18
 933.5 855 933.5 855 885.5 830 c 1,19,20
 950.5 808 950.5 808 1007 776.5 c 128,-1,21
 1063.5 745 1063.5 745 1105.5 702 c 128,-1,22
 1147.5 659 1147.5 659 1171.5 603.5 c 128,-1,23
 1195.5 548 1195.5 548 1195.5 477 c 0,24,25
 1195.5 389 1195.5 389 1171 319.5 c 128,-1,26
 1146.5 250 1146.5 250 1104.5 196.5 c 128,-1,27
 1062.5 143 1062.5 143 1006.5 106 c 128,-1,28
 950.5 69 950.5 69 886.5 45.5 c 128,-1,29
 822.5 22 822.5 22 754.5 11 c 128,-1,30
 686.5 0 686.5 0 620.5 0 c 1,31,-1
 537.5 229 l 1,32,33
 687.5 232 687.5 232 769.5 289.5 c 128,-1,34
 851.5 347 851.5 347 851.5 468 c 0,35,36
 851.5 528 851.5 528 834 571.5 c 128,-1,37
 816.5 615 816.5 615 785 643 c 128,-1,38
 753.5 671 753.5 671 710.5 684 c 128,-1,39
 667.5 697 667.5 697 614.5 697 c 1,40,-1
 517.5 924 l 1,41,42
 572.5 929 572.5 929 618 943.5 c 128,-1,43
 663.5 958 663.5 958 696 984 c 128,-1,44
 728.5 1010 728.5 1010 746 1046.5 c 128,-1,45
 763.5 1083 763.5 1083 763.5 1134 c 0,46,47
 763.5 1170 763.5 1170 752 1201.5 c 128,-1,48
 740.5 1233 740.5 1233 722 1256.5 c 128,-1,49
 703.5 1280 703.5 1280 679.5 1293.5 c 128,-1,50
 655.5 1307 655.5 1307 630.5 1307 c 0,51,52
 557.5 1307 557.5 1307 522 1269.5 c 128,-1,53
 486.5 1232 486.5 1232 486.5 1146 c 2,54,-1
 486.5 -17 l 1,0,-1
EndSplineSet
EndChar

StartChar: agrave
Encoding: 224 224 163
Width: 1331
GlyphClass: 1
Flags: W
LayerCount: 2
Fore
SplineSet
1192 0 m 1,0,-1
 844 0 l 1,1,-1
 844 102 l 1,2,-1
 758 5 l 1,3,4
 722 -6 722 -6 687 -11.5 c 128,-1,5
 652 -17 652 -17 621 -17 c 0,6,7
 536 -17 536 -17 450 8 c 128,-1,8
 364 33 364 33 295 81.5 c 128,-1,9
 226 130 226 130 182.5 201.5 c 128,-1,10
 139 273 139 273 139 367 c 0,11,12
 139 465 139 465 183 536.5 c 128,-1,13
 227 608 227 608 299 654.5 c 128,-1,14
 371 701 371 701 462 723.5 c 128,-1,15
 553 746 553 746 648 746 c 0,16,17
 706 746 706 746 754.5 742.5 c 128,-1,18
 803 739 803 739 844 732 c 1,19,20
 840 819 840 819 800 870.5 c 128,-1,21
 760 922 760 922 677 922 c 0,22,23
 632 922 632 922 586.5 916.5 c 128,-1,24
 541 911 541 911 499 902 c 128,-1,25
 457 893 457 893 420.5 881.5 c 128,-1,26
 384 870 384 870 357 858 c 1,27,-1
 260 1048 l 1,28,29
 307 1070 307 1070 351 1087.5 c 128,-1,30
 395 1105 395 1105 443.5 1117.5 c 128,-1,31
 492 1130 492 1130 550.5 1137 c 128,-1,32
 609 1144 609 1144 687 1144 c 0,33,34
 818 1144 818 1144 910 1111.5 c 128,-1,35
 1002 1079 1002 1079 1059 1020.5 c 128,-1,36
 1116 962 1116 962 1142.5 879.5 c 128,-1,37
 1169 797 1169 797 1169 697 c 2,38,-1
 1169 205 l 1,39,-1
 1192 0 l 1,0,-1
844 512 m 1,40,41
 829 513 829 513 808.5 514 c 128,-1,42
 788 515 788 515 766.5 515.5 c 128,-1,43
 745 516 745 516 724 516.5 c 128,-1,44
 703 517 703 517 687 517 c 0,45,46
 648 517 648 517 610 510 c 128,-1,47
 572 503 572 503 542 485.5 c 128,-1,48
 512 468 512 468 493.5 439.5 c 128,-1,49
 475 411 475 411 475 368 c 0,50,51
 475 333 475 333 488 304.5 c 128,-1,52
 501 276 501 276 522.5 256 c 128,-1,53
 544 236 544 236 571.5 224.5 c 128,-1,54
 599 213 599 213 629 213 c 0,55,56
 687 213 687 213 740.5 238.5 c 128,-1,57
 794 264 794 264 844 307 c 1,58,-1
 844 512 l 1,40,41
914 1229 m 1,59,-1
 694 1229 l 1,60,-1
 402 1556 l 1,61,-1
 747 1536 l 1,62,-1
 914 1229 l 1,59,-1
EndSplineSet
EndChar

StartChar: aacute
Encoding: 225 225 164
Width: 1331
GlyphClass: 1
Flags: W
LayerCount: 2
Fore
SplineSet
1192 0 m 1,0,-1
 844 0 l 1,1,-1
 844 102 l 1,2,-1
 758 5 l 1,3,4
 722 -6 722 -6 687 -11.5 c 128,-1,5
 652 -17 652 -17 621 -17 c 0,6,7
 536 -17 536 -17 450 8 c 128,-1,8
 364 33 364 33 295 81.5 c 128,-1,9
 226 130 226 130 182.5 201.5 c 128,-1,10
 139 273 139 273 139 367 c 0,11,12
 139 465 139 465 183 536.5 c 128,-1,13
 227 608 227 608 299 654.5 c 128,-1,14
 371 701 371 701 462 723.5 c 128,-1,15
 553 746 553 746 648 746 c 0,16,17
 706 746 706 746 754.5 742.5 c 128,-1,18
 803 739 803 739 844 732 c 1,19,20
 840 819 840 819 800 870.5 c 128,-1,21
 760 922 760 922 677 922 c 0,22,23
 632 922 632 922 586.5 916.5 c 128,-1,24
 541 911 541 911 499 902 c 128,-1,25
 457 893 457 893 420.5 881.5 c 128,-1,26
 384 870 384 870 357 858 c 1,27,-1
 260 1048 l 1,28,29
 307 1070 307 1070 351 1087.5 c 128,-1,30
 395 1105 395 1105 443.5 1117.5 c 128,-1,31
 492 1130 492 1130 550.5 1137 c 128,-1,32
 609 1144 609 1144 687 1144 c 0,33,34
 818 1144 818 1144 910 1111.5 c 128,-1,35
 1002 1079 1002 1079 1059 1020.5 c 128,-1,36
 1116 962 1116 962 1142.5 879.5 c 128,-1,37
 1169 797 1169 797 1169 697 c 2,38,-1
 1169 205 l 1,39,-1
 1192 0 l 1,0,-1
844 512 m 1,40,41
 829 513 829 513 808.5 514 c 128,-1,42
 788 515 788 515 766.5 515.5 c 128,-1,43
 745 516 745 516 724 516.5 c 128,-1,44
 703 517 703 517 687 517 c 0,45,46
 648 517 648 517 610 510 c 128,-1,47
 572 503 572 503 542 485.5 c 128,-1,48
 512 468 512 468 493.5 439.5 c 128,-1,49
 475 411 475 411 475 368 c 0,50,51
 475 333 475 333 488 304.5 c 128,-1,52
 501 276 501 276 522.5 256 c 128,-1,53
 544 236 544 236 571.5 224.5 c 128,-1,54
 599 213 599 213 629 213 c 0,55,56
 687 213 687 213 740.5 238.5 c 128,-1,57
 794 264 794 264 844 307 c 1,58,-1
 844 512 l 1,40,41
709 1536 m 1,59,-1
 1054 1556 l 1,60,-1
 762 1229 l 1,61,-1
 542 1229 l 1,62,-1
 709 1536 l 1,59,-1
EndSplineSet
EndChar

StartChar: acircumflex
Encoding: 226 226 165
Width: 1331
GlyphClass: 1
Flags: W
LayerCount: 2
Fore
SplineSet
1192 0 m 1,0,-1
 844 0 l 1,1,-1
 844 102 l 1,2,-1
 758 5 l 1,3,4
 722 -6 722 -6 687 -11.5 c 128,-1,5
 652 -17 652 -17 621 -17 c 0,6,7
 536 -17 536 -17 450 8 c 128,-1,8
 364 33 364 33 295 81.5 c 128,-1,9
 226 130 226 130 182.5 201.5 c 128,-1,10
 139 273 139 273 139 367 c 0,11,12
 139 465 139 465 183 536.5 c 128,-1,13
 227 608 227 608 299 654.5 c 128,-1,14
 371 701 371 701 462 723.5 c 128,-1,15
 553 746 553 746 648 746 c 0,16,17
 706 746 706 746 754.5 742.5 c 128,-1,18
 803 739 803 739 844 732 c 1,19,20
 840 819 840 819 800 870.5 c 128,-1,21
 760 922 760 922 677 922 c 0,22,23
 632 922 632 922 586.5 916.5 c 128,-1,24
 541 911 541 911 499 902 c 128,-1,25
 457 893 457 893 420.5 881.5 c 128,-1,26
 384 870 384 870 357 858 c 1,27,-1
 260 1048 l 1,28,29
 307 1070 307 1070 351 1087.5 c 128,-1,30
 395 1105 395 1105 443.5 1117.5 c 128,-1,31
 492 1130 492 1130 550.5 1137 c 128,-1,32
 609 1144 609 1144 687 1144 c 0,33,34
 818 1144 818 1144 910 1111.5 c 128,-1,35
 1002 1079 1002 1079 1059 1020.5 c 128,-1,36
 1116 962 1116 962 1142.5 879.5 c 128,-1,37
 1169 797 1169 797 1169 697 c 2,38,-1
 1169 205 l 1,39,-1
 1192 0 l 1,0,-1
844 512 m 1,40,41
 829 513 829 513 808.5 514 c 128,-1,42
 788 515 788 515 766.5 515.5 c 128,-1,43
 745 516 745 516 724 516.5 c 128,-1,44
 703 517 703 517 687 517 c 0,45,46
 648 517 648 517 610 510 c 128,-1,47
 572 503 572 503 542 485.5 c 128,-1,48
 512 468 512 468 493.5 439.5 c 128,-1,49
 475 411 475 411 475 368 c 0,50,51
 475 333 475 333 488 304.5 c 128,-1,52
 501 276 501 276 522.5 256 c 128,-1,53
 544 236 544 236 571.5 224.5 c 128,-1,54
 599 213 599 213 629 213 c 0,55,56
 687 213 687 213 740.5 238.5 c 128,-1,57
 794 264 794 264 844 307 c 1,58,-1
 844 512 l 1,40,41
1074 1249 m 1,59,-1
 849 1249 l 1,60,-1
 778 1355 l 1,61,-1
 747 1485 l 1,62,-1
 716 1355 l 1,63,-1
 633 1249 l 1,64,-1
 388 1249 l 1,65,-1
 588 1536 l 1,66,-1
 885 1556 l 1,67,-1
 1074 1249 l 1,59,-1
EndSplineSet
EndChar

StartChar: atilde
Encoding: 227 227 166
Width: 1331
GlyphClass: 1
Flags: W
LayerCount: 2
Fore
SplineSet
1192 0 m 1,0,-1
 844 0 l 1,1,-1
 844 102 l 1,2,-1
 758 5 l 1,3,4
 722 -6 722 -6 687 -11.5 c 128,-1,5
 652 -17 652 -17 621 -17 c 0,6,7
 536 -17 536 -17 450 8 c 128,-1,8
 364 33 364 33 295 81.5 c 128,-1,9
 226 130 226 130 182.5 201.5 c 128,-1,10
 139 273 139 273 139 367 c 0,11,12
 139 465 139 465 183 536.5 c 128,-1,13
 227 608 227 608 299 654.5 c 128,-1,14
 371 701 371 701 462 723.5 c 128,-1,15
 553 746 553 746 648 746 c 0,16,17
 706 746 706 746 754.5 742.5 c 128,-1,18
 803 739 803 739 844 732 c 1,19,20
 840 819 840 819 800 870.5 c 128,-1,21
 760 922 760 922 677 922 c 0,22,23
 632 922 632 922 586.5 916.5 c 128,-1,24
 541 911 541 911 499 902 c 128,-1,25
 457 893 457 893 420.5 881.5 c 128,-1,26
 384 870 384 870 357 858 c 1,27,-1
 260 1048 l 1,28,29
 307 1070 307 1070 351 1087.5 c 128,-1,30
 395 1105 395 1105 443.5 1117.5 c 128,-1,31
 492 1130 492 1130 550.5 1137 c 128,-1,32
 609 1144 609 1144 687 1144 c 0,33,34
 818 1144 818 1144 910 1111.5 c 128,-1,35
 1002 1079 1002 1079 1059 1020.5 c 128,-1,36
 1116 962 1116 962 1142.5 879.5 c 128,-1,37
 1169 797 1169 797 1169 697 c 2,38,-1
 1169 205 l 1,39,-1
 1192 0 l 1,0,-1
844 512 m 1,40,41
 829 513 829 513 808.5 514 c 128,-1,42
 788 515 788 515 766.5 515.5 c 128,-1,43
 745 516 745 516 724 516.5 c 128,-1,44
 703 517 703 517 687 517 c 0,45,46
 648 517 648 517 610 510 c 128,-1,47
 572 503 572 503 542 485.5 c 128,-1,48
 512 468 512 468 493.5 439.5 c 128,-1,49
 475 411 475 411 475 368 c 0,50,51
 475 333 475 333 488 304.5 c 128,-1,52
 501 276 501 276 522.5 256 c 128,-1,53
 544 236 544 236 571.5 224.5 c 128,-1,54
 599 213 599 213 629 213 c 0,55,56
 687 213 687 213 740.5 238.5 c 128,-1,57
 794 264 794 264 844 307 c 1,58,-1
 844 512 l 1,40,41
313 1277 m 1,59,60
 317 1318 317 1318 333 1364.5 c 128,-1,61
 349 1411 349 1411 380 1450 c 128,-1,62
 411 1489 411 1489 458 1514.5 c 128,-1,63
 505 1540 505 1540 570 1540 c 0,64,65
 620 1540 620 1540 654 1527 c 128,-1,66
 688 1514 688 1514 716 1499 c 128,-1,67
 744 1484 744 1484 769 1471 c 128,-1,68
 794 1458 794 1458 826 1458 c 0,69,70
 848 1458 848 1458 862 1465.5 c 128,-1,71
 876 1473 876 1473 885.5 1485 c 128,-1,72
 895 1497 895 1497 900.5 1513.5 c 128,-1,73
 906 1530 906 1530 909 1548 c 1,74,-1
 1080 1538 l 1,75,76
 1077 1493 1077 1493 1062.5 1445.5 c 128,-1,77
 1048 1398 1048 1398 1018.5 1359 c 128,-1,78
 989 1320 989 1320 943 1295 c 128,-1,79
 897 1270 897 1270 829 1270 c 0,80,81
 782 1270 782 1270 749.5 1282.5 c 128,-1,82
 717 1295 717 1295 690.5 1310.5 c 128,-1,83
 664 1326 664 1326 637 1339 c 128,-1,84
 610 1352 610 1352 574 1352 c 0,85,86
 556 1352 556 1352 543.5 1344.5 c 128,-1,87
 531 1337 531 1337 522 1326 c 128,-1,88
 513 1315 513 1315 508 1300 c 128,-1,89
 503 1285 503 1285 499 1270 c 1,90,-1
 313 1277 l 1,59,60
EndSplineSet
EndChar

StartChar: adieresis
Encoding: 228 228 167
Width: 1331
GlyphClass: 1
Flags: W
LayerCount: 2
Fore
SplineSet
1192 0 m 1,0,-1
 844 0 l 1,1,-1
 844 102 l 1,2,-1
 758 5 l 1,3,4
 722 -6 722 -6 687 -11.5 c 128,-1,5
 652 -17 652 -17 621 -17 c 0,6,7
 536 -17 536 -17 450 8 c 128,-1,8
 364 33 364 33 295 81.5 c 128,-1,9
 226 130 226 130 182.5 201.5 c 128,-1,10
 139 273 139 273 139 367 c 0,11,12
 139 465 139 465 183 536.5 c 128,-1,13
 227 608 227 608 299 654.5 c 128,-1,14
 371 701 371 701 462 723.5 c 128,-1,15
 553 746 553 746 648 746 c 0,16,17
 706 746 706 746 754.5 742.5 c 128,-1,18
 803 739 803 739 844 732 c 1,19,20
 840 819 840 819 800 870.5 c 128,-1,21
 760 922 760 922 677 922 c 0,22,23
 632 922 632 922 586.5 916.5 c 128,-1,24
 541 911 541 911 499 902 c 128,-1,25
 457 893 457 893 420.5 881.5 c 128,-1,26
 384 870 384 870 357 858 c 1,27,-1
 260 1048 l 1,28,29
 307 1070 307 1070 351 1087.5 c 128,-1,30
 395 1105 395 1105 443.5 1117.5 c 128,-1,31
 492 1130 492 1130 550.5 1137 c 128,-1,32
 609 1144 609 1144 687 1144 c 0,33,34
 818 1144 818 1144 910 1111.5 c 128,-1,35
 1002 1079 1002 1079 1059 1020.5 c 128,-1,36
 1116 962 1116 962 1142.5 879.5 c 128,-1,37
 1169 797 1169 797 1169 697 c 2,38,-1
 1169 205 l 1,39,-1
 1192 0 l 1,0,-1
844 512 m 1,40,41
 829 513 829 513 808.5 514 c 128,-1,42
 788 515 788 515 766.5 515.5 c 128,-1,43
 745 516 745 516 724 516.5 c 128,-1,44
 703 517 703 517 687 517 c 0,45,46
 648 517 648 517 610 510 c 128,-1,47
 572 503 572 503 542 485.5 c 128,-1,48
 512 468 512 468 493.5 439.5 c 128,-1,49
 475 411 475 411 475 368 c 0,50,51
 475 333 475 333 488 304.5 c 128,-1,52
 501 276 501 276 522.5 256 c 128,-1,53
 544 236 544 236 571.5 224.5 c 128,-1,54
 599 213 599 213 629 213 c 0,55,56
 687 213 687 213 740.5 238.5 c 128,-1,57
 794 264 794 264 844 307 c 1,58,-1
 844 512 l 1,40,41
362 1604 m 1,59,-1
 644 1604 l 1,60,-1
 644 1331 l 1,61,-1
 362 1331 l 1,62,-1
 362 1604 l 1,59,-1
771 1604 m 1,63,-1
 1054 1604 l 1,64,-1
 1054 1331 l 1,65,-1
 771 1331 l 1,66,-1
 771 1604 l 1,63,-1
EndSplineSet
EndChar

StartChar: aring
Encoding: 229 229 168
Width: 1331
GlyphClass: 1
Flags: W
LayerCount: 2
Fore
SplineSet
696 1722 m 256,0,1
 756 1722 756 1722 808.5 1699 c 128,-1,2
 861 1676 861 1676 900.5 1636.5 c 128,-1,3
 940 1597 940 1597 963 1544 c 128,-1,4
 986 1491 986 1491 986 1431 c 256,5,6
 986 1371 986 1371 963.5 1317 c 128,-1,7
 941 1263 941 1263 902.5 1222.5 c 128,-1,8
 864 1182 864 1182 810 1158 c 0,9,10
 785 1147 785 1147 759 1141 c 1,11,12
 844 1135 844 1135 910 1111 c 0,13,14
 1002 1079 1002 1079 1059 1020.5 c 128,-1,15
 1116 962 1116 962 1142.5 879.5 c 128,-1,16
 1169 797 1169 797 1169 697 c 2,17,-1
 1169 205 l 1,18,-1
 1192 0 l 1,19,-1
 844 0 l 1,20,-1
 844 102 l 1,21,-1
 758 5 l 1,22,23
 722 -6 722 -6 687 -11.5 c 128,-1,24
 652 -17 652 -17 621 -17 c 0,25,26
 536 -17 536 -17 450 8 c 128,-1,27
 364 33 364 33 295 81.5 c 128,-1,28
 226 130 226 130 182.5 201.5 c 128,-1,29
 139 273 139 273 139 367 c 0,30,31
 139 465 139 465 183 536.5 c 128,-1,32
 227 608 227 608 299 654.5 c 128,-1,33
 371 701 371 701 462 723.5 c 128,-1,34
 553 746 553 746 648 746 c 0,35,36
 706 746 706 746 754.5 742.5 c 128,-1,37
 803 739 803 739 844 732 c 1,38,39
 840 819 840 819 800 870.5 c 128,-1,40
 760 922 760 922 677 922 c 0,41,42
 632 922 632 922 586.5 916.5 c 128,-1,43
 541 911 541 911 499 902 c 128,-1,44
 457 893 457 893 420.5 881.5 c 128,-1,45
 384 870 384 870 357 858 c 1,46,-1
 260 1048 l 1,47,48
 307 1070 307 1070 351 1087.5 c 128,-1,49
 395 1105 395 1105 443.5 1117.5 c 128,-1,50
 492 1130 492 1130 550 1137 c 0,51,52
 585 1141 585 1141 627 1143 c 1,53,54
 604 1149 604 1149 583 1158 c 0,55,56
 530 1182 530 1182 490 1222.5 c 128,-1,57
 450 1263 450 1263 426.5 1316.5 c 128,-1,58
 403 1370 403 1370 403 1431 c 256,59,60
 403 1491 403 1491 426 1544 c 128,-1,61
 449 1597 449 1597 489 1636.5 c 128,-1,62
 529 1676 529 1676 582.5 1699 c 128,-1,63
 636 1722 636 1722 696 1722 c 256,0,1
844 512 m 1,64,65
 829 513 829 513 808.5 514 c 128,-1,66
 788 515 788 515 766.5 515.5 c 128,-1,67
 745 516 745 516 724 516.5 c 128,-1,68
 703 517 703 517 687 517 c 0,69,70
 648 517 648 517 610 510 c 128,-1,71
 572 503 572 503 542 485.5 c 128,-1,72
 512 468 512 468 493.5 439.5 c 128,-1,73
 475 411 475 411 475 368 c 0,74,75
 475 333 475 333 488 304.5 c 128,-1,76
 501 276 501 276 522.5 256 c 128,-1,77
 544 236 544 236 571.5 224.5 c 128,-1,78
 599 213 599 213 629 213 c 0,79,80
 687 213 687 213 740.5 238.5 c 128,-1,81
 794 264 794 264 844 307 c 1,82,-1
 844 512 l 1,64,65
697 1328 m 256,83,84
 717 1328 717 1328 735 1336.5 c 128,-1,85
 753 1345 753 1345 766.5 1358.5 c 128,-1,86
 780 1372 780 1372 787.5 1390.5 c 128,-1,87
 795 1409 795 1409 795 1430 c 256,88,89
 795 1450 795 1450 787.5 1468 c 128,-1,90
 780 1486 780 1486 766.5 1499.5 c 128,-1,91
 753 1513 753 1513 734.5 1521 c 128,-1,92
 716 1529 716 1529 696 1529 c 256,93,94
 676 1529 676 1529 657 1521 c 128,-1,95
 638 1513 638 1513 625 1499.5 c 128,-1,96
 612 1486 612 1486 604 1468 c 128,-1,97
 596 1450 596 1450 596 1430 c 256,98,99
 596 1410 596 1410 604 1391 c 128,-1,100
 612 1372 612 1372 625.5 1358.5 c 128,-1,101
 639 1345 639 1345 658 1336.5 c 128,-1,102
 677 1328 677 1328 697 1328 c 256,83,84
EndSplineSet
EndChar

StartChar: ae
Encoding: 230 230 169
Width: 1331
GlyphClass: 1
Flags: W
LayerCount: 2
Fore
SplineSet
673 89 m 1,0,1
 634 43 634 43 568 13 c 128,-1,2
 502 -17 502 -17 405 -17 c 0,3,4
 316 -17 316 -17 244 8 c 128,-1,5
 172 33 172 33 122 81.5 c 128,-1,6
 72 130 72 130 44.5 201.5 c 128,-1,7
 17 273 17 273 17 367 c 0,8,9
 17 465 17 465 43.5 537.5 c 128,-1,10
 70 610 70 610 118 658.5 c 128,-1,11
 166 707 166 707 234 730.5 c 128,-1,12
 302 754 302 754 385 754 c 2,13,-1
 423 754 l 2,14,15
 440 754 440 754 457 752 c 1,16,17
 457 790 457 790 456 819.5 c 128,-1,18
 455 849 455 849 448.5 870 c 128,-1,19
 442 891 442 891 429.5 902 c 128,-1,20
 417 913 417 913 393 913 c 0,21,22
 354 913 354 913 320.5 904.5 c 128,-1,23
 287 896 287 896 260 885 c 0,24,25
 229 873 229 873 203 856 c 1,26,-1
 100 1050 l 1,27,28
 146 1077 146 1077 204 1097 c 0,29,30
 253 1114 253 1114 320.5 1129 c 128,-1,31
 388 1144 388 1144 471 1144 c 0,32,33
 536 1144 536 1144 585.5 1124.5 c 128,-1,34
 635 1105 635 1105 668 1076 c 1,35,36
 709 1106 709 1106 767.5 1125 c 128,-1,37
 826 1144 826 1144 905 1144 c 0,38,39
 990 1144 990 1144 1053.5 1126.5 c 128,-1,40
 1117 1109 1117 1109 1162 1078 c 128,-1,41
 1207 1047 1207 1047 1237 1005 c 128,-1,42
 1267 963 1267 963 1284 913 c 128,-1,43
 1301 863 1301 863 1307.5 808.5 c 128,-1,44
 1314 754 1314 754 1314 697 c 0,45,46
 1314 666 1314 666 1310.5 634.5 c 128,-1,47
 1307 603 1307 603 1301.5 574 c 128,-1,48
 1296 545 1296 545 1290 520 c 128,-1,49
 1284 495 1284 495 1278 477 c 1,50,-1
 817 477 l 1,51,52
 817 432 817 432 819.5 384 c 128,-1,53
 822 336 822 336 836.5 296 c 128,-1,54
 851 256 851 256 882 230.5 c 128,-1,55
 913 205 913 205 971 205 c 0,56,57
 1000 205 1000 205 1023.5 215.5 c 128,-1,58
 1047 226 1047 226 1066 242 c 128,-1,59
 1085 258 1085 258 1099.5 275.5 c 128,-1,60
 1114 293 1114 293 1124 306 c 1,61,-1
 1294 165 l 1,62,63
 1263 128 1263 128 1234.5 94.5 c 128,-1,64
 1206 61 1206 61 1168.5 36 c 128,-1,65
 1131 11 1131 11 1077.5 -3 c 128,-1,66
 1024 -17 1024 -17 944 -17 c 0,67,68
 866 -17 866 -17 795 11.5 c 128,-1,69
 724 40 724 40 673 89 c 1,0,1
725 697 m 1,70,-1
 1042 697 l 1,71,-1
 1042 786 l 2,72,73
 1042 804 1042 804 1036.5 826.5 c 128,-1,74
 1031 849 1031 849 1018 868 c 128,-1,75
 1005 887 1005 887 983.5 900 c 128,-1,76
 962 913 962 913 930 913 c 0,77,78
 899 913 899 913 877.5 900 c 128,-1,79
 856 887 856 887 841.5 868 c 128,-1,80
 827 849 827 849 819 827 c 128,-1,81
 811 805 811 805 807 786 c 1,82,-1
 725 697 l 1,70,-1
457 525 m 1,83,-1
 448 525 l 2,84,85
 422 525 422 525 394.5 516.5 c 128,-1,86
 367 508 367 508 344 489.5 c 128,-1,87
 321 471 321 471 306 441 c 128,-1,88
 291 411 291 411 291 368 c 0,89,90
 291 295 291 295 317 254 c 128,-1,91
 343 213 343 213 387 213 c 0,92,93
 414 213 414 213 427 226.5 c 128,-1,94
 440 240 440 240 448 257 c 0,95,96
 455 275 455 275 457 301 c 2,97,-1
 457 525 l 1,83,-1
EndSplineSet
EndChar

StartChar: ccedilla
Encoding: 231 231 170
Width: 1331
GlyphClass: 1
Flags: W
LayerCount: 2
Fore
SplineSet
1023.5 791 m 1,0,1
 974.5 849 974.5 849 914.5 875.5 c 128,-1,2
 854.5 902 854.5 902 776.5 902 c 0,3,4
 714.5 902 714.5 902 660 875 c 128,-1,5
 605.5 848 605.5 848 565.5 802 c 128,-1,6
 525.5 756 525.5 756 502 695 c 128,-1,7
 478.5 634 478.5 634 478.5 566 c 0,8,9
 478.5 495 478.5 495 503 435.5 c 128,-1,10
 527.5 376 527.5 376 568 333 c 128,-1,11
 608.5 290 608.5 290 662.5 266 c 128,-1,12
 716.5 242 716.5 242 776.5 242 c 0,13,14
 829.5 242 829.5 242 873.5 251.5 c 128,-1,15
 917.5 261 917.5 261 951.5 278 c 128,-1,16
 985.5 295 985.5 295 1012 316.5 c 128,-1,17
 1038.5 338 1038.5 338 1056.5 361 c 1,18,-1
 1183.5 140 l 1,19,20
 1165.5 124 1165.5 124 1129 97.5 c 128,-1,21
 1092.5 71 1092.5 71 1038 45 c 128,-1,22
 983.5 19 983.5 19 910.5 1 c 0,23,24
 896.5 -2 896.5 -2 880.5 -5 c 1,25,26
 904.5 -23 904.5 -23 923.5 -47 c 256,27,28
 942.5 -71 942.5 -71 958.5 -103 c 128,-1,29
 974.5 -135 974.5 -135 974.5 -175 c 0,30,31
 974.5 -226 974.5 -226 950.5 -270 c 128,-1,32
 926.5 -314 926.5 -314 885.5 -346.5 c 128,-1,33
 844.5 -379 844.5 -379 791.5 -398 c 128,-1,34
 738.5 -417 738.5 -417 679.5 -417 c 0,35,36
 618.5 -417 618.5 -417 559.5 -398.5 c 128,-1,37
 500.5 -380 500.5 -380 451.5 -357 c 0,38,39
 395.5 -330 395.5 -330 342.5 -297 c 1,40,-1
 460.5 -134 l 1,41,42
 493.5 -154 493.5 -154 526.5 -170 c 0,43,44
 553.5 -183 553.5 -183 583.5 -194 c 128,-1,45
 613.5 -205 613.5 -205 635.5 -205 c 0,46,47
 659.5 -205 659.5 -205 680.5 -192 c 128,-1,48
 701.5 -179 701.5 -179 701.5 -151 c 0,49,50
 701.5 -129 701.5 -129 689 -105 c 128,-1,51
 676.5 -81 676.5 -81 660 -59.5 c 128,-1,52
 643.5 -38 643.5 -38 627.5 -22 c 2,53,-1
 610.5 -4 l 1,54,55
 550.5 7 550.5 7 495.5 32 c 0,56,57
 384.5 81 384.5 81 306 163 c 128,-1,58
 227.5 245 227.5 245 184.5 353 c 128,-1,59
 141.5 461 141.5 461 141.5 579 c 0,60,61
 141.5 685 141.5 685 182.5 787 c 128,-1,62
 223.5 889 223.5 889 302 968.5 c 128,-1,63
 380.5 1048 380.5 1048 493 1096 c 128,-1,64
 605.5 1144 605.5 1144 747.5 1144 c 0,65,66
 885.5 1144 885.5 1144 997.5 1105.5 c 128,-1,67
 1109.5 1067 1109.5 1067 1189.5 980 c 1,68,-1
 1023.5 791 l 1,0,1
EndSplineSet
EndChar

StartChar: egrave
Encoding: 232 232 171
Width: 1331
GlyphClass: 1
Flags: W
LayerCount: 2
Fore
SplineSet
1197 162 m 1,0,1
 1156 124 1156 124 1108.5 91.5 c 128,-1,2
 1061 59 1061 59 1004 35 c 128,-1,3
 947 11 947 11 877 -2.5 c 128,-1,4
 807 -16 807 -16 723 -16 c 0,5,6
 576 -16 576 -16 464 32 c 128,-1,7
 352 80 352 80 276 160.5 c 128,-1,8
 200 241 200 241 161.5 345.5 c 128,-1,9
 123 450 123 450 123 563 c 0,10,11
 123 636 123 636 140.5 707 c 128,-1,12
 158 778 158 778 192 842 c 128,-1,13
 226 906 226 906 274.5 961.5 c 128,-1,14
 323 1017 323 1017 386 1057 c 128,-1,15
 449 1097 449 1097 525.5 1120 c 128,-1,16
 602 1143 602 1143 690 1143 c 0,17,18
 813 1143 813 1143 909 1106.5 c 128,-1,19
 1005 1070 1005 1070 1071.5 1005 c 128,-1,20
 1138 940 1138 940 1173 849 c 128,-1,21
 1208 758 1208 758 1208 647 c 0,22,23
 1208 619 1208 619 1204.5 574 c 128,-1,24
 1201 529 1201 529 1196 477 c 1,25,-1
 431 477 l 1,26,27
 433 422 433 422 461.5 372.5 c 128,-1,28
 490 323 490 323 534.5 286 c 128,-1,29
 579 249 579 249 634 227 c 128,-1,30
 689 205 689 205 744 205 c 0,31,32
 796 205 796 205 844.5 216 c 128,-1,33
 893 227 893 227 932.5 243.5 c 128,-1,34
 972 260 972 260 1001.5 277.5 c 128,-1,35
 1031 295 1031 295 1045 307 c 1,36,-1
 1197 162 l 1,0,1
907 688 m 1,37,38
 907 735 907 735 893 777 c 128,-1,39
 879 819 879 819 852.5 851.5 c 128,-1,40
 826 884 826 884 786 903 c 128,-1,41
 746 922 746 922 694 922 c 256,42,43
 642 922 642 922 603 906.5 c 128,-1,44
 564 891 564 891 536 868 c 128,-1,45
 508 845 508 845 491 819.5 c 128,-1,46
 474 794 474 794 465 774 c 1,47,-1
 372 669 l 1,48,-1
 549 687 l 1,49,-1
 907 688 l 1,37,38
840 1229 m 1,50,-1
 620 1229 l 1,51,-1
 328 1556 l 1,52,-1
 673 1536 l 1,53,-1
 840 1229 l 1,50,-1
EndSplineSet
EndChar

